<svg width="213" height="141" viewBox="0 0 213 141" fill="none" xmlns="http://www.w3.org/2000/svg">
<g id="college project-rafiki 1">
<g id="freepik--background-complete--inject-7">
<path id="Vector" d="M70.6341 58.5178C70.2422 59.11 69.978 59.7614 69.836 60.4354L68.7568 60.5369V62.6096L69.836 62.7112C69.9752 63.3823 70.2393 64.0337 70.6341 64.6288L69.9468 65.455L71.4236 66.9214L72.2557 66.239C72.8521 66.6281 73.5082 66.8904 74.1869 67.0314L74.2891 68.103H76.3766L76.4788 67.0314C77.1547 66.8904 77.8108 66.631 78.41 66.239L79.2421 66.9214L80.7189 65.455L80.0316 64.6288C80.4235 64.0366 80.6877 63.3851 80.8297 62.7112L81.9089 62.6096V60.5369L80.8297 60.4354C80.6905 59.7643 80.4264 59.1128 80.0316 58.5178L80.7189 57.6916L79.2421 56.2252L78.41 56.9076C77.8136 56.5184 77.1547 56.2562 76.4788 56.1152L76.3766 55.0436H74.2891L74.1869 56.1152C73.511 56.2534 72.855 56.5156 72.2557 56.9076L71.4236 56.2252L69.9468 57.6916L70.6341 58.5178ZM77.328 59.5866C78.4327 60.6836 78.4327 62.4602 77.328 63.5543C76.2232 64.6513 74.434 64.6513 73.3292 63.5543C72.2245 62.4574 72.2245 60.6808 73.3292 59.5838C74.434 58.4868 76.2232 58.4868 77.3251 59.5838L77.328 59.5866Z" fill="#F5F5F5"/>
<path id="Vector_2" d="M122.983 62.824C122.727 63.2104 122.554 63.6362 122.463 64.0733L121.762 64.1381V65.4889L122.463 65.5538C122.554 65.9909 122.727 66.4167 122.983 66.803L122.534 67.3417L123.497 68.2976L124.039 67.8521C124.428 68.1059 124.857 68.2779 125.298 68.3681L125.363 69.0647H126.723L126.789 68.3681C127.229 68.2779 127.658 68.1059 128.047 67.8521L128.589 68.2976L129.552 67.3417L129.103 66.803C129.359 66.4167 129.532 65.9909 129.623 65.5538L130.324 65.4889V64.1381L129.623 64.0733C129.532 63.6362 129.359 63.2104 129.103 62.824L129.552 62.2854L128.589 61.3294L128.047 61.775C127.658 61.5212 127.229 61.3492 126.789 61.2589L126.723 60.5624H125.363L125.298 61.2589C124.857 61.3492 124.428 61.5212 124.039 61.775L123.497 61.3294L122.534 62.2854L122.983 62.824ZM127.345 63.5206C128.064 64.234 128.064 65.393 127.345 66.1065C126.627 66.82 125.459 66.82 124.741 66.1065C124.022 65.393 124.022 64.234 124.741 63.5206C125.459 62.8071 126.627 62.8071 127.345 63.5206Z" fill="#F5F5F5"/>
<path id="Vector_3" d="M131.43 72.9563C131.166 73.3539 130.99 73.791 130.896 74.2422L130.172 74.3099V75.7001L130.896 75.7678C130.99 76.219 131.169 76.6561 131.43 77.0537L130.967 77.6093L131.958 78.5935L132.518 78.1338C132.918 78.3961 133.358 78.5709 133.813 78.664L133.881 79.3831H135.281L135.349 78.664C135.804 78.5709 136.244 78.3932 136.644 78.1338L137.204 78.5935L138.195 77.6093L137.732 77.0537C137.996 76.6561 138.172 76.219 138.266 75.7678L138.99 75.7001V74.3099L138.266 74.2422C138.172 73.791 137.993 73.3539 137.732 72.9563L138.195 72.4007L137.204 71.4166L136.644 71.8762C136.244 71.614 135.804 71.4391 135.349 71.3461L135.281 70.627H133.881L133.813 71.3461C133.358 71.4391 132.918 71.6168 132.518 71.8762L131.958 71.4166L130.967 72.4007L131.43 72.9563ZM135.923 73.6754C136.664 74.4114 136.664 75.6043 135.923 76.3403C135.182 77.0763 133.98 77.0763 133.239 76.3403C132.498 75.6043 132.498 74.4114 133.239 73.6754C133.98 72.9394 135.182 72.9394 135.923 73.6754Z" fill="#E0E0E0"/>
<path id="Vector_4" d="M28.508 78.8811C27.8889 79.8173 27.4714 80.8494 27.2499 81.9098L25.5459 82.0677V85.3445L27.2499 85.5053C27.4714 86.5684 27.8889 87.5977 28.508 88.5339L27.4203 89.8396L29.7519 92.1548L31.0669 91.0748C32.0097 91.6895 33.0492 92.1041 34.117 92.324L34.2761 94.016H37.5761L37.738 92.324C38.8087 92.1041 39.8453 91.6895 40.7882 91.0748L42.1031 92.1548L44.4347 89.8396L43.347 88.5339C43.9661 87.5977 44.3836 86.5656 44.6051 85.5053L46.3091 85.3445V82.0677L44.6051 81.9069C44.3836 80.8438 43.9661 79.8145 43.347 78.8783L44.4347 77.5726L42.1031 75.2574L40.7882 76.3374C39.8425 75.7227 38.8059 75.3081 37.738 75.0882L37.5761 73.3962H34.2761L34.117 75.0882C33.0463 75.3081 32.0097 75.7227 31.0669 76.3374L29.7519 75.2574L27.4203 77.5726L28.508 78.8783V78.8811ZM39.087 80.5731C40.8308 82.3046 40.8308 85.1133 39.087 86.8448C37.3433 88.5762 34.5146 88.5762 32.7709 86.8448C31.0271 85.1133 31.0271 82.3046 32.7709 80.5731C34.5146 78.8416 37.3433 78.8416 39.087 80.5731Z" fill="#F5F5F5"/>
<path id="Vector_5" d="M166.106 80.6379C165.708 81.2414 165.438 81.9041 165.296 82.5865L164.2 82.6881V84.7946L165.296 84.8961C165.438 85.5786 165.708 86.2413 166.106 86.8447L165.407 87.6851L166.907 89.1741L167.753 88.4803C168.361 88.8751 169.028 89.143 169.715 89.284L169.818 90.3726H171.939L172.041 89.284C172.729 89.143 173.396 88.8751 174.004 88.4803L174.85 89.1741L176.35 87.6851L175.651 86.8447C176.049 86.2413 176.318 85.5786 176.46 84.8961L177.557 84.7946V82.6881L176.46 82.5865C176.318 81.9041 176.049 81.2414 175.651 80.6379L176.35 79.7976L174.85 78.3086L174.004 79.0023C173.396 78.6075 172.729 78.3396 172.041 78.1986L171.939 77.1101H169.818L169.715 78.1986C169.028 78.3396 168.361 78.6075 167.753 79.0023L166.907 78.3086L165.407 79.7976L166.106 80.6379ZM172.91 81.7264C174.032 82.8403 174.032 84.648 172.91 85.7619C171.789 86.8758 169.968 86.8758 168.846 85.7619C167.725 84.648 167.725 82.8403 168.846 81.7264C169.968 80.6125 171.786 80.6125 172.91 81.7264Z" fill="#F5F5F5"/>
<path id="Vector_6" d="M25.5794 97.6284C25.2642 98.105 25.054 98.6267 24.9404 99.1653L24.0742 99.2471V100.911L24.9404 100.993C25.054 101.531 25.2642 102.056 25.5794 102.53L25.0256 103.192L26.2099 104.368L26.8773 103.818C27.3573 104.131 27.8827 104.34 28.4251 104.453L28.5075 105.313H30.1831L30.2654 104.453C30.8079 104.34 31.3361 104.131 31.8132 103.818L32.4806 104.368L33.6649 103.192L33.1111 102.53C33.4263 102.053 33.6365 101.531 33.7501 100.993L34.6163 100.911V99.2471L33.7501 99.1653C33.6365 98.6267 33.4263 98.1022 33.1111 97.6284L33.6649 96.9657L32.4806 95.7898L31.8132 96.3397C31.3333 96.0267 30.8079 95.818 30.2654 95.7052L30.1831 94.8451H28.5075L28.4251 95.7052C27.8827 95.818 27.3544 96.0267 26.8773 96.3397L26.2099 95.7898L25.0256 96.9657L25.5794 97.6284ZM30.9499 98.4857C31.8359 99.3656 31.8359 100.79 30.9499 101.669C30.0638 102.549 28.6267 102.549 27.7435 101.669C26.8603 100.79 26.8574 99.3656 27.7435 98.4857C28.6296 97.6059 30.0638 97.6059 30.9499 98.4857Z" fill="#E0E0E0"/>
<path id="Vector_7" d="M133.656 59.8179C133.276 60.396 133.017 61.0305 132.881 61.6847L131.83 61.7834V63.8025L132.881 63.9012C133.017 64.5555 133.276 65.19 133.656 65.7681L132.986 66.5718L134.423 67.9987L135.232 67.3332C135.815 67.7111 136.454 67.9677 137.112 68.103L137.212 69.1464H139.245L139.345 68.103C140.004 67.9677 140.643 67.7111 141.225 67.3332L142.034 67.9987L143.471 66.5718L142.801 65.7681C143.182 65.19 143.44 64.5555 143.576 63.9012L144.627 63.8025V61.7834L143.579 61.6847C143.443 61.0305 143.184 60.396 142.804 59.8179L143.474 59.0142L142.037 57.5873L141.228 58.2528C140.645 57.8749 140.006 57.6183 139.348 57.4829L139.248 56.4395H137.215L137.115 57.4829C136.456 57.6183 135.817 57.8749 135.235 58.2528L134.426 57.5873L132.989 59.0142L133.659 59.8179H133.656ZM140.174 60.8585C141.248 61.9244 141.248 63.6559 140.174 64.7219C139.1 65.7878 137.357 65.7878 136.283 64.7219C135.21 63.6559 135.21 61.9244 136.283 60.8585C137.357 59.7925 139.1 59.7925 140.174 60.8585Z" fill="#E0E0E0"/>
<g id="Group">
<path id="Vector_8" d="M47.0324 37.0926L20.2725 43.4081L24.8255 62.4293L51.5854 56.1138L47.0324 37.0926Z" fill="#E0E0E0"/>
<path id="Vector_9" d="M46.1634 38.0833L21.4951 43.9052L25.6929 61.4421L50.3612 55.6202L46.1634 38.0833Z" fill="#FAFAFA"/>
<path id="Vector_10" d="M25.6939 61.4393L25.0605 58.7942C25.958 55.8134 28.8889 51.2958 30.1555 50.9376C32.2571 50.3426 36.4802 53.3657 36.4802 53.3657C36.4802 53.3657 40.6521 46.1352 41.9955 45.5007C44.1397 44.4911 48.8739 49.4007 48.8739 49.4007L50.3621 55.616L25.6939 61.4393Z" fill="#EBEBEB"/>
<path id="Vector_11" d="M36.8148 46.2141C36.9994 47.4239 36.1616 48.5547 34.9433 48.738C33.7249 48.9213 32.5861 48.0894 32.4015 46.8797C32.2169 45.6699 33.0547 44.5391 34.273 44.3558C35.4914 44.1725 36.6302 45.0044 36.8148 46.2141Z" fill="#EBEBEB"/>
</g>
<g id="Group_2">
<path id="Vector_12" d="M175.114 25.0672L141.395 23.6931L140.404 47.6627L174.123 49.0367L175.114 25.0672Z" fill="#E0E0E0"/>
<path id="Vector_13" d="M173.759 25.949L142.673 24.6823L141.76 46.7809L172.846 48.0476L173.759 25.949Z" fill="#FAFAFA"/>
<path id="Vector_14" d="M141.759 46.7866L141.898 43.4534C143.957 40.2301 148.93 35.862 150.546 35.8563C153.229 35.8479 157.203 40.8111 157.203 40.8111C157.203 40.8111 164.55 33.6483 166.35 33.3437C169.221 32.8587 173.166 40.2217 173.166 40.2217L172.842 48.0528L141.756 46.7838L141.759 46.7866Z" fill="#EBEBEB"/>
<path id="Vector_15" d="M159.991 32.4751C159.804 33.9641 158.438 35.0244 156.935 34.8383C155.436 34.6522 154.368 33.2958 154.556 31.804C154.743 30.315 156.109 29.2547 157.611 29.4408C159.111 29.6269 160.179 30.9834 159.991 32.4751Z" fill="#EBEBEB"/>
</g>
<g id="Group_3">
<path id="Vector_16" d="M193.548 64.804L175.174 61.4061L172.724 74.4665L191.098 77.8644L193.548 64.804Z" fill="#E0E0E0"/>
<path id="Vector_17" d="M192.735 65.1814L175.796 62.0489L173.538 74.0891L190.477 77.2216L192.735 65.1814Z" fill="#FAFAFA"/>
<path id="Vector_18" d="M173.532 74.1012L173.873 72.2851C175.256 70.6777 178.332 68.6755 179.218 68.7996C180.689 69.0054 182.473 72.0369 182.473 72.0369C182.473 72.0369 187.071 68.6868 188.082 68.6614C189.695 68.6191 191.271 72.9675 191.271 72.9675L190.47 77.2342L173.532 74.1012Z" fill="#EBEBEB"/>
<path id="Vector_19" d="M184.665 67.6857C184.443 68.4894 183.611 68.9603 182.802 68.7403C181.995 68.5204 181.518 67.6941 181.74 66.8904C181.961 66.0867 182.793 65.6158 183.603 65.8357C184.412 66.0557 184.887 66.882 184.665 67.6857Z" fill="#EBEBEB"/>
</g>
<g id="Group_4">
<path id="Vector_20" d="M99.7179 20.022C99.7605 20.022 99.7945 20.0559 99.7917 20.0982C99.7917 20.1236 99.7775 20.1489 99.7548 20.163L93.183 23.6006L92.8706 23.767L89.5052 25.5239L77.9265 25.9102C77.8839 25.9102 77.8499 25.8764 77.8527 25.8341C77.8527 25.8087 77.8669 25.7833 77.8896 25.7692L87.9972 20.4845C88.0909 20.4338 88.1931 20.4084 88.3011 20.4056L91.9363 20.2815L92.2913 20.2702L99.7179 20.0249V20.022Z" fill="#E6E6E6"/>
<path id="Vector_21" d="M94.9323 21.3587C94.7023 20.9865 91.9305 21.3728 88.6275 22.2414C85.3246 23.1099 82.726 24.1392 82.709 24.5763L84.0665 29.6608C84.0921 29.7567 84.1886 29.8103 84.2852 29.7877L96.1677 26.6603C96.2643 26.6378 96.3211 26.5419 96.2984 26.446L94.9409 21.3587H94.9295H94.9323Z" fill="#EBEBEB"/>
<path id="Vector_22" d="M93.9326 25.3687L94.2194 26.4431L94.1342 26.4657L93.8957 25.8199L94.0064 26.4967L93.8644 26.5334L93.623 25.8904L93.7338 26.5672L93.5918 26.6039L93.3504 25.9609L93.464 26.6377L93.3788 26.6603L93.092 25.5859C93.0494 25.4167 93.1118 25.2418 93.251 25.1375L91.9531 20.2758L92.3081 20.2645L93.5861 25.0501C93.7537 25.0783 93.89 25.2023 93.9326 25.3659V25.3687Z" fill="#E0E0E0"/>
</g>
<g id="Group_5">
<g id="Group_6">
<g id="Group_7">
<g id="Group_8">
<path id="Vector_23" d="M191.339 91.3737H140.006C139.089 91.3737 138.342 90.632 138.342 89.7211V15.4762C138.342 14.5653 139.089 13.8237 140.006 13.8237H191.339C192.256 13.8237 193.003 14.5653 193.003 15.4762V89.7183C193.003 90.6292 192.256 91.3708 191.339 91.3708V91.3737ZM140.009 13.8942C139.131 13.8942 138.416 14.6048 138.416 15.4762V89.7183C138.416 90.5897 139.131 91.3003 140.009 91.3003H191.342C192.219 91.3003 192.935 90.5897 192.935 89.7183V15.4762C192.935 14.6048 192.219 13.8942 191.342 13.8942H140.009Z" fill="#E0E0E0"/>
<path id="Vector_24" d="M132.148 91.3737H80.8146C79.8973 91.3737 79.1504 90.632 79.1504 89.7211V15.4762C79.1504 14.5653 79.8973 13.8237 80.8146 13.8237H132.148C133.065 13.8237 133.812 14.5653 133.812 15.4762V89.7183C133.812 90.6292 133.065 91.3708 132.148 91.3708V91.3737ZM80.8146 13.8942C79.9371 13.8942 79.2214 14.6048 79.2214 15.4762V89.7183C79.2214 90.5897 79.9371 91.3003 80.8146 91.3003H132.148C133.025 91.3003 133.741 90.5897 133.741 89.7183V15.4762C133.741 14.6048 133.025 13.8942 132.148 13.8942H80.8146Z" fill="#E0E0E0"/>
</g>
<path id="Vector_25" d="M72.9905 91.3737H21.6603C20.743 91.3737 19.9961 90.632 19.9961 89.7211V15.4762C19.9961 14.5653 20.743 13.8237 21.6603 13.8237H72.9933C73.9107 13.8237 74.6576 14.5653 74.6576 15.4762V89.7183C74.6576 90.6292 73.9107 91.3708 72.9933 91.3708L72.9905 91.3737ZM21.6603 13.8942C20.7828 13.8942 20.0671 14.6048 20.0671 15.4762V89.7183C20.0671 90.5897 20.7828 91.3003 21.6603 91.3003H72.9933C73.8709 91.3003 74.5866 90.5897 74.5866 89.7183V15.4762C74.5866 14.6048 73.8709 13.8942 72.9933 13.8942H21.6603Z" fill="#E0E0E0"/>
</g>
<path id="Vector_26" d="M213 108.595H0V108.629H213V108.595Z" fill="#E0E0E0"/>
</g>
<g id="Group_9">
<path id="Vector_27" d="M201.458 116.878H185.631V116.996H201.458V116.878Z" fill="#EBEBEB"/>
<path id="Vector_28" d="M144.747 118.166H140.592V118.285H144.747V118.166Z" fill="#EBEBEB"/>
<path id="Vector_29" d="M32.1803 113.268H11.542V113.387H32.1803V113.268Z" fill="#EBEBEB"/>
<path id="Vector_30" d="M39.4649 113.268H36.4375V113.387H39.4649V113.268Z" fill="#EBEBEB"/>
<path id="Vector_31" d="M94.0611 115.273H49.2998V115.392H94.0611V115.273Z" fill="#EBEBEB"/>
</g>
</g>
</g>
<g id="freepik--Shadow--inject-7">
<path id="Vector_32" d="M204.472 126.223C204.472 127.264 160.1 128.107 105.364 128.107C50.629 128.107 6.25684 127.264 6.25684 126.223C6.25684 125.183 50.629 124.339 105.364 124.339C160.1 124.339 204.472 125.183 204.472 126.223Z" fill="#F5F5F5"/>
</g>
<g id="freepik--Computer_case--inject-7">
<g id="Group_10">
<path id="Vector_33" d="M29.9048 112.538L28.6523 112.363C28.8739 110.812 30.1803 107.876 33.5229 107.876C37.4791 107.876 39.45 110.144 39.646 112.397L38.3935 112.504C38.2487 110.82 36.681 109.12 33.5201 109.12C30.3592 109.12 29.936 112.4 29.9076 112.538H29.9048Z" fill="#263238"/>
<path id="Vector_34" d="M44.5622 111.444H24.2107C23.0971 111.444 22.1943 112.34 22.1943 113.446V123.897C22.1943 125.003 23.0971 125.899 24.2107 125.899H44.5622C45.6758 125.899 46.5786 125.003 46.5786 123.897V113.446C46.5786 112.34 45.6758 111.444 44.5622 111.444Z" fill="#263238"/>
<path id="Vector_35" opacity="0.2" d="M44.5622 111.444H24.2107C23.0971 111.444 22.1943 112.34 22.1943 113.446V123.897C22.1943 125.003 23.0971 125.899 24.2107 125.899H44.5622C45.6758 125.899 46.5786 125.003 46.5786 123.897V113.446C46.5786 112.34 45.6758 111.444 44.5622 111.444Z" fill="white"/>
<path id="Vector_36" d="M39.6548 126.122C22.416 126.122 21.5811 114.382 21.5811 114.258L22.2825 112.899C22.3109 113.333 23.6685 124.87 39.669 124.87C46.255 124.87 51.9378 124.87 52.5143 123.626C53.0199 122.526 50.5519 119.703 46.5929 115.18V113.429C51.6368 119.196 54.4938 122.298 53.656 124.128C52.7699 126.048 48.9615 126.122 39.6577 126.122H39.6548Z" fill="#263238"/>
</g>
</g>
<g id="freepik--Globe--inject-7">
<g id="freepik--freepik--Globe--inject-2--inject-7">
<path id="Vector_37" d="M185.901 116.779H184.311V121.971H185.901V116.779Z" fill="#263238"/>
<path id="Vector_38" d="M185.086 117.614C182.612 117.614 180.178 117.007 177.997 115.846L178.75 114.455C185.316 117.938 193.481 115.479 196.988 108.959C198.695 105.787 199.044 102.064 197.957 98.6323C197.531 97.2731 196.883 95.99 196.045 94.8366C194.844 93.1784 193.276 91.8164 191.462 90.8491L192.211 89.4589C193.046 89.9044 193.841 90.4261 194.58 91.0183C195.625 91.8559 196.551 92.8288 197.335 93.9116C198.275 95.2032 198.996 96.6358 199.473 98.1557C201.975 106.038 197.57 114.441 189.633 116.926C188.161 117.385 186.628 117.619 185.086 117.619V117.614Z" fill="#263238"/>
<g id="Group_11" opacity="0.3">
<path id="Vector_39" d="M185.086 117.614C182.612 117.614 180.178 117.007 177.997 115.846L178.75 114.455C185.316 117.938 193.481 115.479 196.988 108.959C198.695 105.787 199.044 102.064 197.957 98.6323C197.531 97.2731 196.883 95.99 196.045 94.8366C194.844 93.1784 193.276 91.8164 191.462 90.8491L192.211 89.4589C193.046 89.9044 193.841 90.4261 194.58 91.0183C195.625 91.8559 196.551 92.8288 197.335 93.9116C198.275 95.2032 198.996 96.6358 199.473 98.1557C201.975 106.038 197.57 114.441 189.633 116.926C188.161 117.385 186.628 117.619 185.086 117.619V117.614Z" fill="white"/>
</g>
<path id="Vector_40" d="M177.486 117.163C177.421 117.163 177.356 117.148 177.299 117.115C177.112 117.01 177.038 116.779 177.137 116.587L192.379 88.3534C192.482 88.1617 192.723 88.0883 192.916 88.1899C193.109 88.2914 193.183 88.5311 193.081 88.7228L177.836 116.945C177.768 117.075 177.634 117.157 177.486 117.16V117.163Z" fill="#263238"/>
<g id="Group_12" opacity="0.4">
<path id="Vector_41" d="M177.486 117.163C177.421 117.163 177.356 117.148 177.299 117.115C177.112 117.01 177.038 116.779 177.137 116.587L192.379 88.3534C192.482 88.1617 192.723 88.0883 192.916 88.1899C193.109 88.2914 193.183 88.5311 193.081 88.7228L177.836 116.945C177.768 117.075 177.634 117.157 177.486 117.16V117.163Z" fill="white"/>
</g>
<path id="Vector_42" d="M182.2 121.587H188.011C188.4 121.587 188.715 121.9 188.715 122.286V123.575H181.496V122.286C181.496 121.9 181.811 121.587 182.198 121.587H182.2Z" fill="#263238"/>
<path id="Vector_43" d="M185.702 91.1255C192.112 91.4526 197.042 96.8783 196.716 103.243C196.386 109.608 190.922 114.503 184.512 114.179C178.102 113.852 173.172 108.426 173.499 102.061C173.828 95.6939 179.292 90.8012 185.702 91.1255Z" fill="#0D4C93"/>
<path id="Vector_44" opacity="0.2" d="M188.738 91.698C188.906 95.1694 187.784 98.9172 185.328 102.138C182.607 105.702 178.815 107.873 175.035 108.421C171.838 102.891 173.76 95.8321 179.327 92.6568C182.187 91.0268 185.606 90.6771 188.738 91.698Z" fill="white"/>
<g id="Group_13" opacity="0.3">
<path id="Vector_45" d="M182.2 121.587H188.011C188.4 121.587 188.715 121.9 188.715 122.286V123.575H181.496V122.286C181.496 121.9 181.811 121.587 182.198 121.587H182.2Z" fill="white"/>
</g>
<path id="Vector_46" d="M179.065 123.197H191.149C191.604 123.197 191.97 123.561 191.97 124.012V125.352H178.244V124.012C178.244 123.561 178.611 123.197 179.065 123.197Z" fill="#263238"/>
<g id="Group_14" opacity="0.4">
<path id="Vector_47" d="M179.065 123.197H191.149C191.604 123.197 191.97 123.561 191.97 124.012V125.352H178.244V124.012C178.244 123.561 178.611 123.197 179.065 123.197Z" fill="white"/>
</g>
</g>
</g>
<g id="freepik--Speech_Bubble_2--inject-7">
<g id="Group_15">
<g id="Group_16">
<path id="Vector_48" d="M179.219 47.83C181.533 50.9518 180.863 55.3453 177.722 57.6436C175.297 59.4202 172.11 59.4202 169.716 57.8946L167.671 58.4614L167.915 56.2477C167.893 56.2167 167.864 56.1885 167.842 56.1575C165.527 53.0358 166.197 48.6422 169.338 46.3439C172.482 44.0456 176.907 44.7111 179.221 47.83H179.219Z" fill="#0D4C93"/>
<path id="Vector_49" opacity="0.7" d="M179.219 47.83C181.533 50.9518 180.863 55.3453 177.722 57.6436C175.297 59.4202 172.11 59.4202 169.716 57.8946L167.671 58.4614L167.915 56.2477C167.893 56.2167 167.864 56.1885 167.842 56.1575C165.527 53.0358 166.197 48.6422 169.338 46.3439C172.482 44.0456 176.907 44.7111 179.221 47.83H179.219Z" fill="white"/>
<path id="Vector_50" d="M179.676 47.1476C179.653 47.1476 179.631 47.1363 179.616 47.1166C178.375 45.3061 176.177 44.1584 173.973 44.1584C173.914 44.1584 173.854 44.1584 173.792 44.1584C173.758 44.1612 173.721 44.1274 173.718 44.0907C173.718 44.0512 173.746 44.0202 173.786 44.0174C176.095 43.9497 178.432 45.1341 179.733 47.0348C179.756 47.0658 179.747 47.1109 179.713 47.1335C179.702 47.142 179.687 47.1448 179.673 47.1448L179.676 47.1476ZM171.733 44.3896C172.051 44.2684 172.397 44.2148 172.735 44.2289C172.775 44.2317 172.809 44.2007 172.809 44.1612C172.809 44.1217 172.781 44.0907 172.741 44.0879C172.38 44.071 172.017 44.1302 171.681 44.2599C171.645 44.274 171.628 44.3135 171.642 44.3502C171.653 44.3784 171.679 44.3953 171.707 44.3953C171.716 44.3953 171.724 44.3953 171.733 44.3896Z" fill="#0D4C93"/>
<path id="Vector_51" opacity="0.7" d="M179.676 47.1476C179.653 47.1476 179.631 47.1363 179.616 47.1166C178.375 45.3061 176.177 44.1584 173.973 44.1584C173.914 44.1584 173.854 44.1584 173.792 44.1584C173.758 44.1612 173.721 44.1274 173.718 44.0907C173.718 44.0512 173.746 44.0202 173.786 44.0174C176.095 43.9497 178.432 45.1341 179.733 47.0348C179.756 47.0658 179.747 47.1109 179.713 47.1335C179.702 47.142 179.687 47.1448 179.673 47.1448L179.676 47.1476ZM171.733 44.3896C172.051 44.2684 172.397 44.2148 172.735 44.2289C172.775 44.2317 172.809 44.2007 172.809 44.1612C172.809 44.1217 172.781 44.0907 172.741 44.0879C172.38 44.071 172.017 44.1302 171.681 44.2599C171.645 44.274 171.628 44.3135 171.642 44.3502C171.653 44.3784 171.679 44.3953 171.707 44.3953C171.716 44.3953 171.724 44.3953 171.733 44.3896Z" fill="white"/>
</g>
<path id="Vector_52" d="M171.931 51.7752C171.931 52.2969 171.505 52.7171 170.983 52.7171C170.46 52.7171 170.034 52.2941 170.034 51.7752C170.034 51.2563 170.46 50.8333 170.983 50.8333C171.505 50.8333 171.931 51.2563 171.931 51.7752Z" fill="#0D4C93"/>
<path id="Vector_53" d="M173.888 52.7171C174.412 52.7171 174.837 52.2954 174.837 51.7752C174.837 51.255 174.412 50.8333 173.888 50.8333C173.364 50.8333 172.939 51.255 172.939 51.7752C172.939 52.2954 173.364 52.7171 173.888 52.7171Z" fill="#0D4C93"/>
<path id="Vector_54" d="M176.793 52.7171C177.317 52.7171 177.742 52.2954 177.742 51.7752C177.742 51.255 177.317 50.8333 176.793 50.8333C176.269 50.8333 175.845 51.255 175.845 51.7752C175.845 52.2954 176.269 52.7171 176.793 52.7171Z" fill="#0D4C93"/>
</g>
</g>
<g id="freepik--Speech_Bubble_1--inject-7">
<g id="Group_17">
<g id="Group_18">
<path id="Vector_55" d="M72.2693 41.9362C70.0825 39.1783 65.9787 38.6481 63.1074 40.749C60.8894 42.3705 60.0629 45.0862 60.8042 47.5086L59.7676 49.1103L61.8095 49.46C61.8323 49.4882 61.8493 49.5192 61.872 49.5446C64.0588 52.3026 68.1598 52.8327 71.0339 50.7318C73.9051 48.6309 74.4589 44.6942 72.2721 41.9362H72.2693Z" fill="#0D4C93"/>
<path id="Vector_56" opacity="0.7" d="M72.2693 41.9362C70.0825 39.1783 65.9787 38.6481 63.1074 40.749C60.8894 42.3705 60.0629 45.0862 60.8042 47.5086L59.7676 49.1103L61.8095 49.46C61.8323 49.4882 61.8493 49.5192 61.872 49.5446C64.0588 52.3026 68.1598 52.8327 71.0339 50.7318C73.9051 48.6309 74.4589 44.6942 72.2721 41.9362H72.2693Z" fill="white"/>
<path id="Vector_57" d="M74.2031 47.5706C74.2031 47.5706 74.1889 47.5706 74.1804 47.5678C74.1435 47.5565 74.1236 47.5142 74.135 47.4775C74.7796 45.5684 74.3366 43.3321 73.0075 41.7811C72.9819 41.7529 72.9848 41.7078 73.016 41.6824C73.0444 41.657 73.0898 41.6599 73.1154 41.6909C74.4758 43.2785 74.9302 45.5684 74.2684 47.5226C74.2599 47.5508 74.2315 47.5706 74.2003 47.5706H74.2031ZM73.5102 49.2598C73.7118 49.006 73.8595 48.707 73.939 48.3968C73.9475 48.3602 73.9248 48.3207 73.8879 48.3122C73.8481 48.301 73.8112 48.3263 73.8027 48.363C73.7288 48.6535 73.5897 48.9355 73.3994 49.1723C73.3738 49.2034 73.3795 49.2485 73.4108 49.271C73.425 49.2823 73.4392 49.2851 73.4534 49.2851C73.4732 49.2851 73.496 49.2767 73.5102 49.2569V49.2598Z" fill="#0D4C93"/>
<path id="Vector_58" opacity="0.7" d="M74.2031 47.5706C74.2031 47.5706 74.1889 47.5706 74.1804 47.5678C74.1435 47.5565 74.1236 47.5142 74.135 47.4775C74.7796 45.5684 74.3366 43.3321 73.0075 41.7811C72.9819 41.7529 72.9848 41.7078 73.016 41.6824C73.0444 41.657 73.0898 41.6599 73.1154 41.6909C74.4758 43.2785 74.9302 45.5684 74.2684 47.5226C74.2599 47.5508 74.2315 47.5706 74.2003 47.5706H74.2031ZM73.5102 49.2598C73.7118 49.006 73.8595 48.707 73.939 48.3968C73.9475 48.3602 73.9248 48.3207 73.8879 48.3122C73.8481 48.301 73.8112 48.3263 73.8027 48.363C73.7288 48.6535 73.5897 48.9355 73.3994 49.1723C73.3738 49.2034 73.3795 49.2485 73.4108 49.271C73.425 49.2823 73.4392 49.2851 73.4534 49.2851C73.4732 49.2851 73.496 49.2767 73.5102 49.2569V49.2598Z" fill="white"/>
</g>
<path id="Vector_59" d="M68.6279 45.5994C68.6279 46.0647 69.0199 46.4426 69.5055 46.4426C69.9911 46.4426 70.3831 46.0647 70.3831 45.5994C70.3831 45.1341 69.9911 44.7562 69.5055 44.7562C69.0199 44.7562 68.6279 45.1341 68.6279 45.5994Z" fill="#0D4C93"/>
<path id="Vector_60" d="M65.9414 45.5994C65.9414 46.0647 66.3333 46.4426 66.819 46.4426C67.3046 46.4426 67.6965 46.0647 67.6965 45.5994C67.6965 45.1341 67.3046 44.7562 66.819 44.7562C66.3333 44.7562 65.9414 45.1341 65.9414 45.5994Z" fill="#0D4C93"/>
<path id="Vector_61" d="M63.2549 45.5994C63.2549 46.0647 63.6468 46.4426 64.1324 46.4426C64.6181 46.4426 65.01 46.0647 65.01 45.5994C65.01 45.1341 64.6181 44.7562 64.1324 44.7562C63.6468 44.7562 63.2549 45.1341 63.2549 45.5994Z" fill="#0D4C93"/>
</g>
</g>
<g id="freepik--Light_Bulb--inject-7">
<g id="Group_19">
<g id="Group_20">
<g id="Group_21">
<g id="Group_22">
<path id="Vector_62" d="M120.964 15.4112C116.048 15.3548 112.015 19.2662 111.959 24.1476C111.927 26.7956 113.095 29.3195 115.139 31.0228C115.514 31.3301 116.091 31.7024 116.077 32.4751C116.077 32.4976 116.116 34.4068 116.116 34.4068H125.48C125.48 34.4068 125.52 32.4243 125.52 32.4017C125.52 31.7221 126.051 31.4288 126.44 31.1215C128.51 29.4718 129.731 26.9902 129.763 24.3535C129.819 19.472 125.88 15.4676 120.964 15.4112Z" fill="#0D4C93"/>
<path id="Vector_63" opacity="0.4" d="M120.964 15.4112C116.048 15.3548 112.015 19.2662 111.959 24.1476C111.927 26.7956 113.095 29.3195 115.139 31.0228C115.514 31.3301 116.091 31.7024 116.077 32.4751C116.077 32.4976 116.116 34.4068 116.116 34.4068H125.48C125.48 34.4068 125.52 32.4243 125.52 32.4017C125.52 31.7221 126.051 31.4288 126.44 31.1215C128.51 29.4718 129.731 26.9902 129.763 24.3535C129.819 19.472 125.88 15.4676 120.964 15.4112Z" fill="white"/>
<path id="Vector_64" opacity="0.2" d="M125.389 19.2182C125.389 20.9384 123.361 22.3372 120.845 22.3372C118.329 22.3372 116.301 20.9384 116.301 19.2182C116.301 17.498 118.329 16.0965 120.845 16.0965C123.361 16.0965 125.389 17.4952 125.389 19.2182Z" fill="white"/>
</g>
<path id="Vector_65" d="M114.015 27.6444C113.228 26.3049 112.918 24.7201 113.148 23.186C113.376 21.6519 114.131 20.2222 115.276 19.1647L115.372 19.269C114.253 20.304 113.512 21.7027 113.288 23.2057C113.063 24.7088 113.364 26.2598 114.137 27.5739L114.015 27.6444Z" fill="white"/>
<path id="Vector_66" d="M123.446 32.5174C122.992 31.3274 122.614 30.1063 122.313 28.857C121.853 29.2575 121.35 29.4633 120.864 29.438C120.472 29.4182 120.078 29.2547 119.674 28.9416C119.615 30.1514 119.41 31.3527 119.07 32.5146L118.797 32.4356C119.155 31.2258 119.356 29.9709 119.402 28.7104C119.336 28.6484 119.271 28.5863 119.206 28.5158C118.209 27.4865 117.743 26.2091 117.959 25.1036C118.041 24.6834 118.297 24.2745 118.683 24.2745C119.035 24.283 119.297 24.627 119.416 25.2446C119.629 26.3472 119.72 27.4696 119.689 28.5891C120.103 28.9529 120.495 29.139 120.879 29.1588C121.455 29.187 121.944 28.8288 122.239 28.544C122.02 27.5937 121.85 26.6292 121.725 25.6535C121.679 25.301 121.645 24.957 121.725 24.6214C121.819 24.2125 122.086 23.9023 122.404 23.8346C122.952 23.7162 123.398 24.2999 123.551 24.9344C123.855 26.1978 123.472 27.6388 122.58 28.6032C122.571 28.6117 122.566 28.6202 122.557 28.6286C122.861 29.9202 123.247 31.1892 123.719 32.4187L123.452 32.5174H123.446ZM118.669 24.5537C118.462 24.5537 118.294 24.8555 118.235 25.1544C118.036 26.1724 118.473 27.354 119.405 28.3184C119.416 27.3089 119.325 26.2937 119.132 25.2954C119.098 25.1234 118.967 24.5622 118.672 24.5537H118.666H118.669ZM122.534 24.0997C122.509 24.0997 122.483 24.0997 122.458 24.1082C122.219 24.1589 122.054 24.4325 121.998 24.6806C121.929 24.9711 121.963 25.2869 122.003 25.6112C122.12 26.5108 122.276 27.4047 122.472 28.2846C123.213 27.3991 123.534 26.0991 123.27 24.9936C123.159 24.534 122.861 24.0969 122.534 24.0969V24.0997Z" fill="#263238"/>
</g>
<path id="Vector_67" d="M126.096 33.8456H115.545C115.294 33.8456 115.091 34.0476 115.091 34.2968V34.5167C115.091 34.7659 115.294 34.9679 115.545 34.9679H126.096C126.347 34.9679 126.55 34.7659 126.55 34.5167V34.2968C126.55 34.0476 126.347 33.8456 126.096 33.8456Z" fill="#263238"/>
<path id="Vector_68" opacity="0.3" d="M126.096 33.8456H115.545C115.294 33.8456 115.091 34.0476 115.091 34.2968V34.5167C115.091 34.7659 115.294 34.9679 115.545 34.9679H126.096C126.347 34.9679 126.55 34.7659 126.55 34.5167V34.2968C126.55 34.0476 126.347 33.8456 126.096 33.8456Z" fill="white"/>
<path id="Vector_69" d="M125.908 34.8665H115.73C115.479 34.8665 115.275 35.0685 115.275 35.3177V35.501C115.275 35.7501 115.479 35.9522 115.73 35.9522H125.908C126.159 35.9522 126.363 35.7501 126.363 35.501V35.3177C126.363 35.0685 126.159 34.8665 125.908 34.8665Z" fill="#263238"/>
<path id="Vector_70" opacity="0.3" d="M125.908 34.8665H115.73C115.479 34.8665 115.275 35.0685 115.275 35.3177V35.501C115.275 35.7501 115.479 35.9522 115.73 35.9522H125.908C126.159 35.9522 126.363 35.7501 126.363 35.501V35.3177C126.363 35.0685 126.159 34.8665 125.908 34.8665Z" fill="white"/>
<path id="Vector_71" d="M117.304 37.5003C118.005 38.7749 119.485 40.1201 120.945 40.0355C122.407 39.9509 123.779 38.7157 124.324 37.3677L117.304 37.5003Z" fill="#263238"/>
<path id="Vector_72" d="M125.23 36.8235H116.407C116.156 36.8235 115.952 37.0255 115.952 37.2747V37.458C115.952 37.7072 116.156 37.9092 116.407 37.9092H125.23C125.481 37.9092 125.685 37.7072 125.685 37.458V37.2747C125.685 37.0255 125.481 36.8235 125.23 36.8235Z" fill="#263238"/>
<path id="Vector_73" opacity="0.3" d="M125.23 36.8235H116.407C116.156 36.8235 115.952 37.0255 115.952 37.2747V37.458C115.952 37.7072 116.156 37.9092 116.407 37.9092H125.23C125.481 37.9092 125.685 37.7072 125.685 37.458V37.2747C125.685 37.0255 125.481 36.8235 125.23 36.8235Z" fill="white"/>
<path id="Vector_74" d="M125.761 35.8281H115.88C115.629 35.8281 115.426 36.0301 115.426 36.2793V36.4626C115.426 36.7118 115.629 36.9138 115.88 36.9138H125.761C126.012 36.9138 126.215 36.7118 126.215 36.4626V36.2793C126.215 36.0301 126.012 35.8281 125.761 35.8281Z" fill="#263238"/>
<path id="Vector_75" opacity="0.3" d="M125.761 35.8281H115.88C115.629 35.8281 115.426 36.0301 115.426 36.2793V36.4626C115.426 36.7118 115.629 36.9138 115.88 36.9138H125.761C126.012 36.9138 126.215 36.7118 126.215 36.4626V36.2793C126.215 36.0301 126.012 35.8281 125.761 35.8281Z" fill="white"/>
</g>
<path id="Vector_76" d="M115.918 12.2049C116.594 12.8761 117.272 13.5501 117.948 14.2212C118.045 14.3171 118.195 14.1676 118.099 14.0718C117.423 13.4006 116.744 12.7266 116.068 12.0555C115.972 11.9596 115.821 12.109 115.918 12.2049Z" fill="#263238"/>
<path id="Vector_77" d="M121.211 13.4288V9.61617C121.211 9.48081 120.998 9.48081 120.998 9.61617V13.4288C120.998 13.5642 121.211 13.5642 121.211 13.4288Z" fill="#263238"/>
<path id="Vector_78" d="M124.025 14.3848C124.758 13.6572 125.488 12.9325 126.221 12.2049C126.317 12.109 126.167 11.9596 126.07 12.0555C125.337 12.783 124.608 13.5078 123.875 14.2353C123.778 14.3312 123.929 14.4807 124.025 14.3848Z" fill="#263238"/>
</g>
</g>
<g id="freepik--Books--inject-7">
<g id="Group_23">
<path id="Vector_79" d="M168.247 112.326H44.71V125.459H168.247V112.326Z" fill="#0D4C93"/>
<path id="Vector_80" d="M87.1538 113.7H44.71V124.086H87.1538V113.7Z" fill="white"/>
<g id="Group_24">
<path id="Vector_81" d="M44.71 116.26C57.6206 116.122 72.1018 116.122 85.0124 116.26C72.1018 116.398 57.6206 116.398 44.71 116.26Z" fill="#263238"/>
<path id="Vector_82" d="M44.71 117.492C57.6206 117.354 72.1018 117.354 85.0124 117.492C72.1018 117.631 57.6206 117.631 44.71 117.492Z" fill="#263238"/>
<path id="Vector_83" d="M44.71 118.722C57.6206 118.584 72.1018 118.584 85.0124 118.722C72.1018 118.86 57.6206 118.86 44.71 118.722Z" fill="#263238"/>
<path id="Vector_84" d="M44.71 119.954C57.6206 119.816 72.1018 119.816 85.0124 119.954C72.1018 120.092 57.6206 120.092 44.71 119.954Z" fill="#263238"/>
<path id="Vector_85" d="M44.71 121.187C57.6206 121.048 72.1018 121.048 85.0124 121.187C72.1018 121.325 57.6206 121.325 44.71 121.187Z" fill="#263238"/>
<path id="Vector_86" d="M44.71 122.419C57.6206 122.281 72.1018 122.281 85.0124 122.419C72.1018 122.557 57.6206 122.557 44.71 122.419Z" fill="#263238"/>
<path id="Vector_87" d="M44.71 115.028C57.6206 114.89 72.1018 114.89 85.0124 115.028C72.1018 115.166 57.6206 115.166 44.71 115.028Z" fill="#263238"/>
</g>
<path id="Vector_88" opacity="0.3" d="M101.789 112.326H98V125.459H101.789V112.326Z" fill="white"/>
<path id="Vector_89" opacity="0.3" d="M159.574 112.326H155.785V125.459H159.574V112.326Z" fill="white"/>
<path id="Vector_90" opacity="0.2" d="M89.5592 112.326H44.71V125.459H89.5592V112.326Z" fill="black"/>
</g>
<g id="Group_25">
<path id="Vector_91" d="M135.141 84.6113H63.3574V93.9652H135.141V84.6113Z" fill="#0D4C93"/>
<path id="Vector_92" d="M93.5949 85.5898H63.3574V92.9895H93.5949V85.5898Z" fill="white"/>
<g id="Group_26">
<path id="Vector_93" d="M63.3574 87.4115C72.5533 87.2733 82.8739 87.2733 92.0698 87.4115C82.8739 87.5497 72.5533 87.5497 63.3574 87.4115Z" fill="#263238"/>
<path id="Vector_94" d="M63.3574 88.2885C72.5533 88.1503 82.8739 88.1503 92.0698 88.2885C82.8739 88.4267 72.5533 88.4267 63.3574 88.2885Z" fill="#263238"/>
<path id="Vector_95" d="M63.3574 89.1684C72.5533 89.0302 82.8739 89.0302 92.0698 89.1684C82.8739 89.3066 72.5533 89.3066 63.3574 89.1684Z" fill="#263238"/>
<path id="Vector_96" d="M63.3574 90.0454C72.5533 89.9072 82.8739 89.9072 92.0698 90.0454C82.8739 90.1836 72.5533 90.1836 63.3574 90.0454Z" fill="#263238"/>
<path id="Vector_97" d="M63.3574 90.9224C72.5533 90.7842 82.8739 90.7842 92.0698 90.9224C82.8739 91.0606 72.5533 91.0606 63.3574 90.9224Z" fill="#263238"/>
<path id="Vector_98" d="M63.3574 91.7994C72.5533 91.6613 82.8739 91.6613 92.0698 91.7994C82.8739 91.9376 72.5533 91.9376 63.3574 91.7994Z" fill="#263238"/>
<path id="Vector_99" d="M63.3574 86.5345C72.5533 86.3963 82.8739 86.3963 92.0698 86.5345C82.8739 86.6727 72.5533 86.6727 63.3574 86.5345Z" fill="#263238"/>
</g>
<path id="Vector_100" opacity="0.3" d="M132.224 84.6113H129.523V93.9652H132.224V84.6113Z" fill="black"/>
<path id="Vector_101" opacity="0.3" d="M103.515 84.6113H100.814V93.9652H103.515V84.6113Z" fill="black"/>
<path id="Vector_102" opacity="0.2" d="M95.3103 84.6113H63.3574V93.9652H95.3103V84.6113Z" fill="black"/>
<path id="Vector_103" opacity="0.3" d="M126.798 87.9135H105.915V90.6517H126.798V87.9135Z" fill="black"/>
</g>
<g id="Group_27">
<path id="Vector_104" d="M137.927 106.825H37.1699V112.329H137.927V106.825Z" fill="#263238"/>
<path id="Vector_105" d="M79.5058 107.535H37.1699V111.618H79.5058V107.535Z" fill="white"/>
<g id="Group_28">
<path id="Vector_106" d="M37.459 108.344C50.3696 108.206 64.8508 108.206 77.7614 108.344C64.8508 108.483 50.3696 108.483 37.459 108.344Z" fill="#263238"/>
<path id="Vector_107" d="M37.459 109.577C50.3696 109.439 64.8508 109.439 77.7614 109.577C64.8508 109.715 50.3696 109.715 37.459 109.577Z" fill="#263238"/>
<path id="Vector_108" d="M37.459 110.806C50.3696 110.668 64.8508 110.668 77.7614 110.806C64.8508 110.944 50.3696 110.944 37.459 110.806Z" fill="#263238"/>
</g>
<path id="Vector_109" opacity="0.3" d="M91.5357 106.824H90.4707V112.329H91.5357V106.824Z" fill="white"/>
<path id="Vector_110" opacity="0.3" d="M93.5181 106.824H92.4531V112.329H93.5181V106.824Z" fill="white"/>
<path id="Vector_111" opacity="0.3" d="M131.145 106.824H130.08V112.329H131.145V106.824Z" fill="white"/>
<path id="Vector_112" opacity="0.3" d="M133.127 106.824H132.062V112.329H133.127V106.824Z" fill="white"/>
<path id="Vector_113" opacity="0.2" d="M80.5337 106.822H37.1641V112.326H80.5337V106.822Z" fill="black"/>
</g>
<g id="Group_29">
<path id="Vector_114" d="M157.486 93.9175H56.7285V99.4221H157.486V93.9175Z" fill="#263238"/>
<path id="Vector_115" d="M99.0644 94.6279H56.7285V98.7112H99.0644V94.6279Z" fill="white"/>
<g id="Group_30">
<path id="Vector_116" d="M57.0176 95.4373C69.9282 95.2991 84.4094 95.2991 97.32 95.4373C84.4094 95.5754 69.9282 95.5754 57.0176 95.4373Z" fill="#263238"/>
<path id="Vector_117" d="M57.0176 96.6696C69.9282 96.5314 84.4094 96.5314 97.32 96.6696C84.4094 96.8078 69.9282 96.8078 57.0176 96.6696Z" fill="#263238"/>
<path id="Vector_118" d="M57.0176 97.9019C69.9282 97.7637 84.4094 97.7637 97.32 97.9019C84.4094 98.0401 69.9282 98.0401 57.0176 97.9019Z" fill="#263238"/>
</g>
<path id="Vector_119" opacity="0.3" d="M111.094 93.9172H110.029V99.4219H111.094V93.9172Z" fill="white"/>
<path id="Vector_120" opacity="0.3" d="M113.077 93.9172H112.012V99.4219H113.077V93.9172Z" fill="white"/>
<path id="Vector_121" opacity="0.3" d="M150.707 93.9172H149.642V99.4219H150.707V93.9172Z" fill="white"/>
<path id="Vector_122" opacity="0.3" d="M152.689 93.9172H151.624V99.4219H152.689V93.9172Z" fill="white"/>
<path id="Vector_123" opacity="0.2" d="M100.092 93.9144H56.7227V99.4191H100.092V93.9144Z" fill="black"/>
</g>
<g id="Group_31">
<g id="Group_32">
<path id="Vector_124" d="M41.3304 106.878L142.088 106.878V99.3683L41.3304 99.3683V106.878Z" fill="#0D4C93"/>
<path id="Vector_125" opacity="0.4" d="M41.3304 106.878L142.088 106.878V99.3683L41.3304 99.3683V106.878Z" fill="white"/>
<path id="Vector_126" d="M99.7549 106.167H142.091V100.231H99.7549V106.167Z" fill="white"/>
<g id="Group_33">
<path id="Vector_127" d="M141.8 102.893C128.89 103.031 114.409 103.031 101.498 102.893C114.409 102.755 128.89 102.755 141.8 102.893Z" fill="#263238"/>
<path id="Vector_128" d="M141.8 104.126C128.89 104.264 114.409 104.264 101.498 104.126C114.409 103.987 128.89 103.987 141.8 104.126Z" fill="#263238"/>
<path id="Vector_129" d="M141.8 105.358C128.89 105.496 114.409 105.496 101.498 105.358C114.409 105.22 128.89 105.22 141.8 105.358Z" fill="#263238"/>
</g>
<path id="Vector_130" d="M141.8 101.616C128.89 101.754 114.409 101.754 101.498 101.616C114.409 101.478 128.89 101.478 141.8 101.616Z" fill="#263238"/>
<path id="Vector_131" opacity="0.2" d="M98.7261 106.872H142.096V99.3627H98.7261V106.872Z" fill="black"/>
</g>
<path id="Vector_132" opacity="0.4" d="M90.0903 101.616H50.3389V104.126H90.0903V101.616Z" fill="white"/>
</g>
</g>
<g id="freepik--Character_3--inject-7">
<g id="Group_34">
<g id="Group_35">
<path id="Vector_133" d="M158.423 99.6137C158.423 99.6137 128.853 93.6409 127.638 99.7575C125.902 108.485 147.262 113.697 158.537 113.011C169.812 112.323 158.423 99.6165 158.423 99.6165V99.6137Z" fill="#263238"/>
<path id="Vector_134" opacity="0.2" d="M158.423 99.6137C158.423 99.6137 128.853 93.6409 127.638 99.7575C125.902 108.485 147.262 113.697 158.537 113.011C169.812 112.323 158.423 99.6165 158.423 99.6165V99.6137Z" fill="black"/>
<path id="Vector_135" opacity="0.2" d="M137.328 101.348L151.378 109.647L149.614 112.298C149.614 112.298 150.625 113.697 152.34 109.261L143.641 103.911C143.641 103.911 146.305 103.567 146.226 103.156C146.092 102.479 140.188 101.354 137.493 100.849C137.354 100.804 137.203 100.88 137.158 101.018C137.112 101.156 137.189 101.306 137.328 101.351V101.348Z" fill="black"/>
<path id="Vector_136" opacity="0.2" d="M151.849 108.652L149.571 112.572C152.536 112.997 155.541 113.144 158.537 113.009C159.523 112.975 160.494 112.769 161.403 112.405L162.198 110.854L160.281 107.293L151.849 108.652Z" fill="black"/>
<g id="Group_36">
<path id="Vector_137" d="M147.237 107.256L153.488 110.939L152.477 113.928L145.178 110.925L147.237 107.256Z" fill="#EBB373"/>
<g id="Group_37">
<path id="Vector_138" d="M156.893 111.83L156.353 113.973C156.353 113.973 155.904 114.08 155.776 114.531C155.705 114.785 155.913 115.473 155.913 115.473L154.476 121.378C154.476 121.378 154.067 121.283 153.908 121.173C153.712 121.04 153.553 120.905 153.425 120.767C152.973 120.279 152.905 119.557 152.874 119.021C152.82 118.121 152.221 115.513 152.221 115.513C152.221 115.513 152.002 114.833 151.255 114.252C150.841 113.928 150.639 113.508 150.67 113.246C150.73 112.707 151.113 112.495 151.619 112.541L152.207 112.594C152.616 112.273 152.729 111.745 152.448 111.246C152.448 111.246 152.065 109.98 152.61 110.18C152.922 110.293 154.294 110.854 155.39 111.263C155.646 111.359 155.887 111.449 156.1 111.528C156.572 111.706 156.895 111.827 156.895 111.827L156.893 111.83Z" fill="#263238"/>
<path id="Vector_139" d="M152.485 116.909C152.468 116.878 152.474 116.835 152.502 116.81C152.624 116.692 152.781 116.604 152.954 116.562C153.047 116.539 153.093 116.686 152.999 116.708C152.843 116.745 152.707 116.821 152.599 116.926C152.562 116.959 152.508 116.954 152.482 116.912L152.485 116.909Z" fill="#0D4C93"/>
<path id="Vector_140" d="M152.349 116.393C152.332 116.362 152.34 116.319 152.366 116.294C152.488 116.176 152.644 116.088 152.817 116.046C152.911 116.023 152.956 116.17 152.863 116.192C152.707 116.229 152.57 116.305 152.462 116.41C152.425 116.443 152.371 116.438 152.346 116.395L152.349 116.393Z" fill="#0D4C93"/>
<path id="Vector_141" d="M152.232 115.868C152.215 115.837 152.221 115.795 152.249 115.769C152.371 115.651 152.528 115.564 152.701 115.521C152.795 115.499 152.84 115.645 152.746 115.668C152.59 115.705 152.454 115.781 152.346 115.885C152.309 115.919 152.255 115.913 152.229 115.871L152.232 115.868Z" fill="#0D4C93"/>
</g>
<path id="Vector_142" opacity="0.2" d="M156.098 111.531C156.569 111.709 156.893 111.83 156.893 111.83L156.354 113.973C156.354 113.973 155.905 114.08 155.777 114.531C155.706 114.785 155.913 115.473 155.913 115.473L154.476 121.378C154.476 121.378 154.067 121.283 153.908 121.173C153.817 121.113 153.738 121.051 153.664 120.989L155.984 111.486C156.024 111.5 156.067 111.517 156.104 111.531H156.098Z" fill="white"/>
<path id="Vector_143" d="M151.401 116.314C151.25 116.314 151.105 116.274 150.992 116.198C150.901 116.139 150.81 116.029 150.833 115.908C150.855 115.789 150.966 115.722 151.06 115.685C151.244 115.612 151.463 115.592 151.707 115.628C151.92 115.659 152.128 115.73 152.329 115.795L152.392 115.817L152.341 115.857C152.221 115.947 151.815 116.246 151.599 116.291C151.534 116.305 151.469 116.314 151.403 116.314H151.401ZM151.472 115.679C151.33 115.679 151.199 115.702 151.083 115.747C151.023 115.769 150.918 115.826 150.901 115.916C150.884 116.003 150.958 116.088 151.029 116.136C151.176 116.235 151.378 116.266 151.58 116.221C151.758 116.181 152.096 115.944 152.238 115.837C152.06 115.778 151.878 115.722 151.693 115.693C151.616 115.682 151.543 115.676 151.469 115.676L151.472 115.679Z" fill="#0D4C93"/>
<path id="Vector_144" d="M152.354 115.874L152.3 115.834C152.13 115.707 151.956 115.578 151.809 115.423C151.638 115.245 151.53 115.056 151.485 114.861C151.462 114.766 151.454 114.636 151.542 114.551C151.63 114.464 151.772 114.475 151.874 114.515C152.056 114.585 152.212 114.746 152.297 114.954C152.382 115.16 152.365 115.659 152.36 115.809V115.877L152.354 115.874ZM151.715 114.554C151.667 114.554 151.621 114.565 151.587 114.599C151.522 114.664 151.536 114.78 151.55 114.844C151.593 115.025 151.695 115.203 151.854 115.372C151.982 115.507 152.135 115.623 152.283 115.736C152.292 115.451 152.283 115.118 152.223 114.98C152.144 114.791 152.005 114.644 151.84 114.579C151.8 114.565 151.755 114.554 151.712 114.554H151.715Z" fill="#0D4C93"/>
</g>
</g>
<path id="Vector_145" d="M145.74 81.4162C145.74 81.4162 144.948 90.9281 144.678 91.4442C143.76 93.1926 137.427 96.3284 137.427 96.3284L134.133 95.7447L131.844 97.7581L133.426 98.9172L135.221 98.184C136.217 98.3306 137.223 98.387 138.228 98.356C139.918 98.3052 148.347 96.2128 149.639 93.9173C150.931 91.6218 150.914 80.9481 150.914 80.9481L145.737 81.4162H145.74Z" fill="#EBB373"/>
<g id="Group_38">
<path id="Vector_146" d="M151.175 84.9863C151.175 84.9863 153.445 76.5855 150.241 74.3662C147.037 72.1469 144.885 83.6666 144.885 83.6666L151.175 84.9863Z" fill="#0D4C93"/>
<path id="Vector_147" opacity="0.5" d="M151.175 84.9863C151.175 84.9863 153.445 76.5855 150.241 74.3662C147.037 72.1469 144.885 83.6666 144.885 83.6666L151.175 84.9863Z" fill="white"/>
<path id="Vector_148" d="M149.642 100.274L149.338 89.2361L149.128 74.1181L155.651 72.5107L160.221 72.4684L167.949 74.8569L168.21 78.5596C168.21 78.5596 167.971 95.6065 168.028 96.1197C168.099 96.7486 170.059 100.643 170.059 100.643C161.899 102.741 149.526 100.838 149.636 100.271L149.642 100.274Z" fill="#0D4C93"/>
<path id="Vector_149" opacity="0.2" d="M149.293 84.5916L149.182 78.0097L148.018 84.3237L149.293 84.5916Z" fill="black"/>
<path id="Vector_150" opacity="0.2" d="M163.226 85.2232C163.021 85.1894 162.192 84.9469 162.192 84.9469L164.078 78.5314L161.158 85.5785L163.058 86.2666L163.223 85.2232H163.226Z" fill="black"/>
</g>
<g id="Group_39">
<path id="Vector_151" d="M163.95 79.9809C163.95 79.9809 162.669 90.553 161.778 91.5626C160.273 93.2715 152.701 97.9076 152.701 97.9076L148.816 96.6809C148.543 96.6019 148.248 96.6583 148.032 96.8303L145.462 98.9002L145.72 99.1033C145.831 99.1907 145.99 99.2048 146.115 99.1371L146.518 98.9228L146.075 99.3796L146.223 99.4953C146.371 99.6109 146.572 99.6504 146.754 99.594L147.921 99.2471L146.859 99.9944C147.106 100.189 147.447 100.251 147.754 100.155L149.458 99.6193C150.639 99.8506 151.838 99.9859 153.042 100.023C155.07 100.087 164.533 96.4891 166.242 94.0103C167.952 91.5287 169.491 81.3908 169.491 81.3908L163.95 79.978V79.9809Z" fill="#EBB373"/>
<g id="Group_40">
<path id="Vector_152" d="M169.247 86.8334C169.247 86.8334 171.346 77.2257 168.142 75.0035C164.939 72.7842 162.192 84.944 162.192 84.944L169.247 86.8334Z" fill="#0D4C93"/>
<path id="Vector_153" opacity="0.5" d="M169.247 86.8334C169.247 86.8334 171.346 77.2257 168.142 75.0035C164.939 72.7842 162.192 84.944 162.192 84.944L169.247 86.8334Z" fill="white"/>
</g>
</g>
<g id="Group_41">
<path id="Vector_154" d="M143.948 99.7124L149.861 99.5404L156.134 99.3571C156.146 99.8224 155.637 100.212 154.998 100.228L148.731 100.412L145.144 100.516H145.127L135.147 100.809C134.514 100.823 133.994 100.465 133.982 100.006L143.948 99.7152V99.7124Z" fill="#263238"/>
<path id="Vector_155" d="M134.965 100.764L146.098 100.437C146.291 100.431 146.441 100.302 146.436 100.147C146.436 100.118 146.427 100.09 146.416 100.062L141.128 88.9315C140.994 88.6129 140.614 88.4042 140.191 88.4155L129.049 88.7426C128.862 88.7482 128.711 88.8751 128.717 89.0246C128.717 89.0556 128.725 89.0866 128.74 89.1177L134.028 100.248C134.164 100.564 134.542 100.773 134.965 100.764Z" fill="#263238"/>
<path id="Vector_156" opacity="0.7" d="M129.049 88.7426L140.191 88.4155C140.614 88.4042 140.994 88.6129 141.128 88.9315L146.217 99.6419L149.864 99.5347L156.137 99.3514C156.149 99.8167 155.64 100.206 155.001 100.223L148.733 100.406L145.146 100.51H145.129L135.15 100.804C134.948 100.809 134.763 100.773 134.596 100.711C134.334 100.632 134.121 100.465 134.028 100.245L128.74 89.1148C128.725 89.0866 128.717 89.0556 128.717 89.0218C128.711 88.8723 128.862 88.7454 129.049 88.7398V88.7426Z" fill="white"/>
<path id="Vector_157" d="M135.919 94.5518C136.175 95.0848 136.675 95.4429 137.036 95.3555C137.396 95.2681 137.479 94.7746 137.229 94.2388C136.979 93.703 136.476 93.3533 136.113 93.4407C135.752 93.5282 135.655 94.0047 135.917 94.5518H135.919Z" fill="white"/>
<g id="Group_42" opacity="0.3">
<path id="Vector_158" d="M141.128 88.9344L146.217 99.6447L145.7 99.6588L140.19 88.4155C140.614 88.4042 140.994 88.6129 141.128 88.9315V88.9344Z" fill="black"/>
</g>
</g>
<g id="Group_43">
<g id="Group_44">
<g id="Group_45">
<g id="Group_46">
<path id="Vector_159" d="M160.417 73.2721C160.417 73.2721 159.236 70.9484 159.999 67.1019C159.531 66.8848 160.15 65.9231 160.13 65.5368L155.242 69.1577C155.47 70.3477 155.24 72.7024 155.066 73.7035L156.952 75.404L160.414 73.2721H160.417Z" fill="#EBB373"/>
<path id="Vector_160" opacity="0.2" d="M155.373 69.8712L158.207 69.6456C157.73 70.4803 157.392 71.2135 155.319 71.2981C155.319 71.2981 155.302 70.2688 155.373 69.8683V69.8712Z" fill="black"/>
</g>
<g id="Group_47">
<path id="Vector_161" d="M153.419 58.4135C152.547 59.4343 152.169 62.3784 154.154 62.2825C156.142 62.1895 154.915 56.6594 153.419 58.4135Z" fill="#263238"/>
<path id="Vector_162" d="M161.596 63.8899C160.496 66.9863 159.94 68.7572 157.872 69.905C149.222 73.3905 150.162 58.6786 156.853 57.8354C160.266 57.497 162.695 60.7907 161.596 63.8899Z" fill="#EBB373"/>
<path id="Vector_163" d="M164.157 59.9617C163.708 56.9415 158.767 57.0937 157.287 57.6352C157.065 57.717 159.292 59.7473 159.15 59.643L160.252 60.41C161.805 61.1912 159.002 63.6784 160.34 66.3743C163.296 65.9936 164.384 62.1641 164.157 59.9617Z" fill="#263238"/>
<path id="Vector_164" d="M162.096 66.8735C161.241 68.4555 158.14 68.8729 158.946 66.4308C159.579 64.0281 163.337 64.0422 162.096 66.8735Z" fill="#EBB373"/>
<path id="Vector_165" d="M156.862 63.5262C156.649 64.2904 155.868 64.0535 156.095 63.3006C156.308 62.5363 157.089 62.7732 156.862 63.5262Z" fill="#263238"/>
<path id="Vector_166" d="M153.567 62.6745C153.354 63.4387 152.573 63.2018 152.8 62.4489C153.013 61.6847 153.794 61.9215 153.567 62.6745Z" fill="#263238"/>
<path id="Vector_167" d="M154.675 62.7902C154.675 62.7902 153.187 64.1015 152.67 64.6626C153.005 65.1956 153.837 65.2295 153.837 65.2295L154.675 62.7902Z" fill="#E4873E"/>
<path id="Vector_168" d="M158.02 62.2205C157.966 62.2261 157.909 62.2036 157.872 62.1556C157.455 61.5888 156.872 61.6086 156.867 61.6086C156.236 61.194 157.548 61.1038 158.128 61.9723C158.201 62.0654 158.136 62.2092 158.02 62.2205Z" fill="#263238"/>
</g>
<path id="Vector_169" opacity="0.2" d="M159.9 66.3997C159.9 66.3997 159.886 66.3997 159.878 66.3969C159.841 66.3856 159.821 66.3461 159.832 66.3095C159.983 65.8414 160.539 65.3845 161.002 65.3507C161.218 65.3366 161.502 65.3958 161.684 65.7652C161.701 65.7991 161.684 65.8414 161.653 65.8583C161.619 65.8752 161.576 65.8611 161.559 65.8273C161.44 65.5876 161.258 65.4748 161.014 65.4917C160.61 65.5199 160.102 65.9401 159.969 66.3518C159.96 66.3828 159.932 66.3997 159.9 66.3997Z" fill="black"/>
</g>
<path id="Vector_170" d="M152.57 60.9176C152.462 60.8641 152.46 60.6949 152.57 60.6385C153.334 60.2239 153.973 60.568 154.005 60.5792C154.183 60.6723 154.036 60.9543 153.857 60.8584C153.772 60.7231 153.155 60.7372 152.573 60.9176H152.57Z" fill="#263238"/>
</g>
<path id="Vector_171" d="M162.882 64.7952C162.882 64.7952 160.69 61.6847 158.012 60.2352C155.047 58.6306 152.877 59.1072 152.877 59.1072C152.877 59.1072 152.369 58.6137 152.695 58.3345C153.022 58.0554 153.326 58.3007 153.326 58.3007C153.326 58.3007 156.507 54.9364 160.301 56.0109C164.098 57.0853 165.362 59.4146 165.208 59.5838C164.427 60.4439 163.979 59.11 163.979 59.11C163.979 59.11 164.902 60.3311 163.837 62.8296L163.521 63.8082C163.521 63.8082 163.783 64.9503 162.88 64.798L162.882 64.7952Z" fill="#263238"/>
<path id="Vector_172" opacity="0.7" d="M162.882 64.7952C162.882 64.7952 160.69 61.6847 158.012 60.2352C155.047 58.6306 152.877 59.1072 152.877 59.1072C152.877 59.1072 152.369 58.6137 152.695 58.3345C153.022 58.0554 153.326 58.3007 153.326 58.3007C153.326 58.3007 156.507 54.9364 160.301 56.0109C164.098 57.0853 165.362 59.4146 165.208 59.5838C164.427 60.4439 163.979 59.11 163.979 59.11C163.979 59.11 164.902 60.3311 163.837 62.8296L163.521 63.8082C163.521 63.8082 163.783 64.9503 162.88 64.798L162.882 64.7952Z" fill="white"/>
<path id="Vector_173" d="M157.949 60.0971C157.543 59.9617 157.242 59.5584 157.23 59.1326C157.222 58.8534 157.324 58.5855 157.398 58.3148C157.469 58.0441 157.509 57.7452 157.381 57.4942C157.27 57.2827 157.04 57.1361 156.799 57.1276C156.557 57.1191 156.319 57.2489 156.194 57.4519C156.285 57.2827 156.222 57.0684 156.097 56.9246C155.972 56.7807 155.793 56.6933 155.62 56.6115C155.311 56.4621 154.961 56.307 154.629 56.4057C154.297 56.5044 154.089 56.8287 153.973 57.153C153.825 57.5703 153.785 58.0385 153.936 58.453C154.138 59.0114 154.657 59.4062 155.217 59.6092C155.776 59.8122 156.381 59.8461 156.978 59.8799" fill="#263238"/>
<path id="Vector_174" opacity="0.2" d="M164.1 59.3272C164.1 59.3272 163.668 57.8974 161.888 57.1812L164.1 59.3272Z" fill="black"/>
<path id="Vector_175" opacity="0.3" d="M163.313 63.7461C162.243 61.6593 160.005 59.5528 157.741 58.5038L157.772 58.4389C160.047 59.4936 162.299 61.6114 163.379 63.7123L163.316 63.7433L163.313 63.7461Z" fill="black"/>
<g id="Group_48">
<path id="Vector_176" d="M154.09 66.4054C154.323 66.8115 154.524 67.2373 154.698 67.6716C154.777 67.6547 154.862 67.6406 154.942 67.618C156.044 67.3727 156.475 66.8989 156.612 66.4449C156.674 66.2221 156.686 65.9881 156.64 65.7596C156.617 65.6299 156.578 65.5058 156.521 65.3874C156.015 65.864 155.007 66.1713 154.462 66.3123C154.223 66.3631 154.087 66.4026 154.087 66.4026L154.09 66.4054Z" fill="#263238"/>
<path id="Vector_177" d="M154.45 66.3039L154.64 66.6733C155.674 66.4392 156.373 66.1431 156.628 65.7511C156.606 65.6214 156.566 65.4973 156.509 65.3789C156.001 65.8611 154.995 66.1629 154.45 66.3039Z" fill="white"/>
<path id="Vector_178" d="M154.928 67.6095C156.03 67.3642 156.461 66.8904 156.598 66.4364C156.18 66.5379 155.785 66.7099 155.43 66.9468C155.198 67.1104 155.021 67.3416 154.928 67.6067V67.6095Z" fill="#C15854"/>
</g>
</g>
<g id="Group_49">
<g id="Group_50">
<path id="Vector_179" d="M141.244 112.307L134.107 113.663L132.869 110.758L140.338 108.203L141.244 112.307Z" fill="#EBB373"/>
<g id="Group_51">
<path id="Vector_180" d="M130.963 115.237L129.935 113.277C129.935 113.277 130.199 112.899 129.995 112.479C129.878 112.242 129.265 111.864 129.265 111.864L126.399 106.495C126.399 106.495 126.769 106.297 126.962 106.275C127.195 106.244 127.405 106.241 127.595 106.26C128.257 106.328 128.791 106.824 129.174 107.205C129.813 107.842 132.006 109.402 132.006 109.402C132.006 109.402 132.622 109.766 133.568 109.709C134.096 109.678 134.525 109.862 134.678 110.079C134.993 110.521 134.848 110.933 134.439 111.232L133.962 111.579C133.871 112.089 134.138 112.56 134.681 112.746C134.681 112.746 135.814 113.44 135.274 113.652C134.965 113.77 133.565 114.255 132.468 114.67C132.213 114.766 131.971 114.859 131.758 114.938C131.287 115.115 130.966 115.237 130.966 115.237H130.963Z" fill="#263238"/>
<path id="Vector_181" d="M130.873 108.533C130.907 108.547 130.93 108.581 130.927 108.618C130.915 108.787 130.859 108.956 130.754 109.103C130.7 109.179 130.566 109.103 130.62 109.024C130.711 108.894 130.762 108.748 130.773 108.598C130.776 108.547 130.825 108.516 130.87 108.533H130.873Z" fill="#0D4C93"/>
<path id="Vector_182" d="M131.318 108.829C131.352 108.844 131.375 108.877 131.372 108.914C131.361 109.083 131.304 109.252 131.199 109.399C131.145 109.475 131.011 109.399 131.065 109.32C131.156 109.19 131.207 109.044 131.219 108.894C131.222 108.844 131.27 108.813 131.315 108.829H131.318Z" fill="#0D4C93"/>
<path id="Vector_183" d="M131.756 109.148C131.79 109.159 131.812 109.196 131.81 109.233C131.798 109.402 131.741 109.571 131.636 109.718C131.582 109.794 131.449 109.718 131.503 109.639C131.594 109.509 131.645 109.362 131.656 109.213C131.659 109.162 131.707 109.131 131.753 109.148H131.756Z" fill="#0D4C93"/>
</g>
<path id="Vector_184" opacity="0.2" d="M129.995 112.479C129.878 112.242 129.265 111.864 129.265 111.864L126.399 106.495C126.399 106.495 126.769 106.297 126.962 106.275C127.07 106.261 127.172 106.255 127.268 106.252L131.878 114.893C131.838 114.907 131.795 114.924 131.758 114.938C131.287 115.116 130.963 115.237 130.963 115.237L129.935 113.277C129.935 113.277 130.199 112.899 129.995 112.479Z" fill="white"/>
<path id="Vector_185" d="M131.674 109.289L131.685 109.224C131.713 109.078 131.819 108.59 131.949 108.409C132.083 108.226 132.27 108.108 132.466 108.082C132.574 108.068 132.716 108.091 132.778 108.195C132.827 108.274 132.821 108.387 132.759 108.511C132.668 108.688 132.517 108.846 132.31 108.979C132.128 109.097 131.926 109.179 131.733 109.261L131.671 109.286L131.674 109.289ZM132.529 108.15C132.512 108.15 132.494 108.15 132.477 108.153C132.301 108.175 132.131 108.285 132.009 108.452C131.918 108.576 131.83 108.894 131.77 109.174C131.944 109.1 132.117 109.024 132.276 108.923C132.472 108.796 132.614 108.649 132.699 108.483C132.727 108.423 132.77 108.313 132.722 108.234C132.685 108.172 132.605 108.15 132.531 108.15H132.529Z" fill="#0D4C93"/>
<path id="Vector_186" d="M132.696 109.963C132.571 109.963 132.443 109.932 132.318 109.873C132.119 109.777 131.795 109.391 131.702 109.275L131.659 109.224L131.725 109.219C131.938 109.202 132.153 109.182 132.369 109.202C132.616 109.224 132.821 109.295 132.985 109.41C133.099 109.489 133.159 109.585 133.15 109.681C133.142 109.805 133.028 109.89 132.926 109.926C132.852 109.952 132.772 109.966 132.693 109.966L132.696 109.963ZM131.801 109.281C131.986 109.501 132.213 109.74 132.349 109.808C132.534 109.898 132.738 109.915 132.903 109.856C132.985 109.825 133.076 109.763 133.082 109.673C133.088 109.58 133 109.503 132.946 109.464C132.792 109.357 132.599 109.289 132.364 109.269C132.176 109.252 131.986 109.264 131.798 109.281H131.801Z" fill="#0D4C93"/>
</g>
<path id="Vector_187" d="M168.096 108.271C169.57 105.781 172.87 99.0497 165.736 97.9668C158.605 96.8839 135.234 108.762 135.234 108.762L136.87 113.209L158.829 109.109C158.829 109.109 155.929 113.198 159.585 112.91C164.895 112.23 166.136 110.928 168.096 108.271Z" fill="#263238"/>
<path id="Vector_188" opacity="0.2" d="M158.309 109.244L164.305 107.177C164.305 107.177 159.318 110.409 157.466 110.832L158.306 109.244H158.309Z" fill="black"/>
</g>
</g>
</g>
<g id="freepik--Character_2--inject-7">
<g id="Group_52">
<g id="Group_53">
<path id="Vector_189" d="M114.592 49.6376L116.739 47.1701L118.926 47.9371L117.435 50.8248L114.592 49.6376Z" fill="#EEC1BB"/>
<g id="Group_54">
<path id="Vector_190" d="M116.415 46.9643C116.415 46.9643 116.227 45.8475 116.787 45.0918C117.344 44.336 117.588 43.5859 118.039 43.0529C118.494 42.5199 118.502 43.4618 118.406 43.9638C118.309 44.4657 118.204 45.0354 118.596 45.0467C118.988 45.0579 121.956 43.4759 122.498 43.5549C123.041 43.631 122.64 44.0371 122.64 44.0371C122.64 44.0371 123.373 43.6733 123.597 43.9215C123.657 43.9863 123.685 44.2289 123.379 44.4488C122.688 44.9395 121.183 45.8955 121.183 45.8955C121.269 45.8391 123.208 44.79 123.521 44.6716C123.927 44.5165 124.199 44.649 124.282 44.8859C124.401 45.2243 122.038 46.6033 121.981 46.7302C121.981 46.7302 123.313 45.8898 123.719 46.1126C124.126 46.3354 123.316 46.9107 122.507 47.2801C121.763 47.6213 120.394 48.4814 119.604 48.755C118.63 49.0905 117.903 49.1018 117.236 48.4081C116.568 47.7144 116.415 46.9671 116.415 46.9671V46.9643Z" fill="#EEC1BB"/>
<path id="Vector_191" opacity="0.3" d="M120.86 45.1144C120.86 45.1144 120.837 45.1087 120.831 45.0974C120.82 45.0805 120.825 45.058 120.842 45.0495C121.391 44.6914 121.961 44.3558 122.538 44.0512C122.555 44.0428 122.578 44.0512 122.586 44.0653C122.595 44.0822 122.586 44.1048 122.572 44.1133C121.998 44.4178 121.428 44.7534 120.882 45.1087C120.877 45.1115 120.871 45.1144 120.862 45.1144H120.86Z" fill="black"/>
<path id="Vector_192" opacity="0.3" d="M121.49 47.1222C121.473 47.1222 121.459 47.1109 121.456 47.094C121.269 46.2847 120.831 45.5233 120.226 44.9508C120.212 44.9367 120.212 44.9141 120.226 44.9C120.241 44.8859 120.263 44.8859 120.278 44.9C120.894 45.481 121.34 46.2565 121.53 47.0799C121.536 47.0996 121.522 47.1166 121.504 47.1222C121.504 47.1222 121.499 47.1222 121.496 47.1222H121.49Z" fill="black"/>
<path id="Vector_193" opacity="0.3" d="M117.897 47.297C117.897 47.297 117.875 47.2914 117.866 47.2801C117.858 47.2632 117.863 47.2406 117.88 47.2321C118.17 47.0658 118.4 46.7894 118.517 46.4764C118.633 46.1634 118.633 45.8052 118.522 45.4922C118.517 45.4725 118.525 45.4527 118.545 45.4471C118.565 45.4414 118.585 45.4499 118.59 45.4696C118.707 45.7996 118.707 46.1746 118.585 46.5018C118.465 46.8289 118.221 47.1193 117.917 47.2942C117.912 47.297 117.906 47.2998 117.9 47.2998L117.897 47.297Z" fill="black"/>
</g>
</g>
<g id="Group_55">
<path id="Vector_194" d="M123.953 89.7352L125.063 86.433L117.029 81.983L115.285 86.9914L123.953 89.7352Z" fill="#EEC1BB"/>
<g id="Group_56">
<path id="Vector_195" d="M124.072 85.2824L123.481 86.3709C123.347 86.6163 123.35 86.9124 123.472 87.1662C123.995 88.2547 123.415 88.5536 122.231 88.8018C121.944 89.2078 122.385 89.5942 122.498 89.7013L125.04 92.1068C125.25 92.3098 125.588 92.307 125.793 92.0955C125.829 92.0589 125.861 92.0166 125.883 91.9686C126.599 90.646 126.937 90.02 127.829 88.3731L130.555 83.3394C131.299 81.9661 130.058 80.9396 129.624 81.4359C127.681 83.675 125.954 85.0737 124.784 85.4629C124.574 85.539 124.557 85.336 124.069 85.2796L124.072 85.2824Z" fill="#263238"/>
<path id="Vector_196" d="M126.199 83.3705C126.179 83.2125 126.082 83.0715 125.94 82.9954C125.869 82.9446 125.775 82.939 125.699 82.9813C125.27 83.1928 125.173 84.8961 125.168 85.0907C125.165 85.1104 125.171 85.1301 125.185 85.1471C125.21 85.1753 125.253 85.1781 125.281 85.1527C125.543 84.8594 125.773 84.5436 125.966 84.2024C126.13 83.957 126.213 83.6666 126.199 83.3733V83.3705ZM125.756 83.1195C125.787 83.0997 125.829 83.1054 125.858 83.1279C125.957 83.1872 126.025 83.2887 126.045 83.4015C126.111 83.8358 125.605 84.5295 125.313 84.8904C125.366 84.1911 125.52 83.2379 125.756 83.1195Z" fill="#0D4C93"/>
<path id="Vector_197" d="M125.322 85.1104C125.37 84.6084 125.157 83.393 124.776 83.2464C124.697 83.2125 124.577 83.2182 124.453 83.3902C123.961 84.0924 125.14 85.1301 125.197 85.1611C125.216 85.1809 125.245 85.1865 125.27 85.1781C125.282 85.1668 125.29 85.1527 125.293 85.1358L125.322 85.1104ZM124.549 83.4748C124.637 83.3451 124.688 83.3704 124.705 83.3789C124.944 83.455 125.171 84.38 125.165 84.9496C124.901 84.6902 124.259 83.9937 124.518 83.5227L124.549 83.4748Z" fill="#0D4C93"/>
<path id="Vector_198" d="M125.429 86.292C125.403 86.292 125.381 86.2779 125.366 86.2553C125.142 85.8633 125.102 85.3755 125.261 84.9496C125.276 84.913 125.315 84.8932 125.352 84.9073C125.389 84.9214 125.406 84.9609 125.395 84.9976C125.25 85.3839 125.287 85.8267 125.489 86.1848C125.508 86.2186 125.497 86.2609 125.463 86.2807C125.452 86.2863 125.44 86.2891 125.429 86.2891V86.292Z" fill="#0D4C93"/>
<path id="Vector_199" d="M126.307 85.8887C126.281 85.8887 126.259 85.8746 126.244 85.852C126.02 85.46 125.98 84.9722 126.139 84.5464C126.154 84.5097 126.193 84.4928 126.23 84.5041C126.267 84.5182 126.284 84.5576 126.273 84.5943C126.128 84.9806 126.162 85.4234 126.367 85.7815C126.386 85.8154 126.375 85.8577 126.341 85.8774C126.33 85.883 126.318 85.8859 126.307 85.8859V85.8887Z" fill="#0D4C93"/>
<path id="Vector_200" d="M127.196 85.2768C127.17 85.2768 127.147 85.2627 127.133 85.2401C126.909 84.8481 126.869 84.3603 127.028 83.9345C127.042 83.8978 127.082 83.878 127.119 83.8921C127.156 83.9062 127.173 83.9457 127.161 83.9824C127.017 84.3687 127.054 84.8115 127.255 85.1696C127.275 85.2034 127.264 85.2457 127.23 85.2655C127.218 85.2711 127.207 85.274 127.196 85.274V85.2768Z" fill="#0D4C93"/>
</g>
<path id="Vector_201" opacity="0.3" d="M121.275 84.3349L122.26 84.882L120.732 88.7144L119.579 88.3506L121.275 84.3349Z" fill="black"/>
<path id="Vector_202" d="M98.9462 67.5897L102.953 70.0234C108.1 70.2772 125.492 70.4182 125.543 76.563C127.25 83.8047 111.502 83.1138 101.031 83.2153C100.96 83.2153 100.9 83.2576 100.858 83.3253C100.764 83.4691 99.7499 83.9852 98.4521 84.1911C96.8531 84.442 93.1981 84.6648 90.8494 84.2954C86.7967 83.6581 85.6295 79.837 86.4048 74.4621C86.7229 72.254 87.9526 70.4605 88.3246 67.7082L98.9462 67.5925V67.5897Z" fill="#263238"/>
<path id="Vector_203" opacity="0.2" d="M87.9639 75.7621L87.9894 76.0131C87.9894 76.0131 101.235 73.836 109.304 79.101C109.304 79.101 118.048 76.9719 119.826 75.3504C110.141 80.4095 101.468 74.5523 101.468 74.5523L97.1967 72.6573C93.7063 71.1091 90.1904 72.2907 87.9667 75.7621H87.9639Z" fill="black"/>
<path id="Vector_204" d="M102.959 84.2813L104.49 87.4115L113.368 85.0173L111.09 80.2233L102.959 84.2813Z" fill="#EEC1BB"/>
<g id="Group_57">
<path id="Vector_205" d="M106.45 87.3438L105.717 86.3427C105.552 86.1171 105.282 85.9902 105.001 85.9902C103.786 85.9874 103.769 85.336 104.053 84.1713C103.808 83.7399 103.269 83.9655 103.121 84.0219L99.8351 85.2542C99.5597 85.3557 99.4177 85.6575 99.5171 85.9338C99.5341 85.9818 99.5597 86.0297 99.5909 86.0692C100.48 87.2846 100.903 87.8571 102.011 89.3686L105.399 93.9906C106.322 95.2511 107.793 94.5884 107.529 93.9821C106.339 91.2721 105.819 89.1204 105.972 87.905C105.995 87.6851 106.185 87.7584 106.45 87.3438Z" fill="#263238"/>
<path id="Vector_206" d="M107.259 90.0764C107.413 90.1272 107.58 90.1018 107.714 90.0087C107.79 89.9664 107.836 89.8846 107.83 89.8C107.825 89.3263 106.319 88.5 106.149 88.4098C106.132 88.3985 106.109 88.3957 106.089 88.4013C106.052 88.4126 106.032 88.4493 106.041 88.4859C106.192 88.8469 106.382 89.1881 106.606 89.5096C106.757 89.7634 106.987 89.9608 107.259 90.0764ZM107.677 89.7888C107.677 89.8254 107.66 89.8593 107.626 89.8762C107.526 89.9382 107.407 89.958 107.296 89.9269C106.873 89.7972 106.464 89.0443 106.263 88.6269C106.873 88.9794 107.674 89.5293 107.68 89.7916L107.677 89.7888Z" fill="#0D4C93"/>
<path id="Vector_207" d="M106.06 88.5367C106.492 88.7989 107.69 89.1345 107.989 88.8553C108.054 88.7989 108.099 88.6918 107.997 88.5057C107.574 87.764 106.12 88.3647 106.066 88.4041C106.04 88.4126 106.02 88.4352 106.018 88.4634C106.023 88.4803 106.032 88.4916 106.046 88.5028L106.057 88.5395L106.06 88.5367ZM107.878 88.5564C107.957 88.6918 107.912 88.7256 107.895 88.7369C107.722 88.9174 106.787 88.72 106.27 88.469C106.623 88.3449 107.528 88.0742 107.847 88.5085L107.878 88.5564Z" fill="#0D4C93"/>
<path id="Vector_208" d="M106.179 88.672C106.16 88.672 106.143 88.6636 106.128 88.6495C105.842 88.3534 105.424 88.1926 105.012 88.2208C104.972 88.2265 104.938 88.1926 104.936 88.156C104.936 88.1165 104.961 88.0827 105.001 88.0798C105.455 88.046 105.915 88.2265 106.231 88.5536C106.259 88.5818 106.256 88.6269 106.231 88.6523C106.216 88.6664 106.199 88.672 106.182 88.672H106.179Z" fill="#0D4C93"/>
<path id="Vector_209" d="M106.166 89.6337C106.146 89.6337 106.129 89.6252 106.115 89.6111C105.828 89.315 105.411 89.1543 104.999 89.1825C104.965 89.1881 104.925 89.1571 104.922 89.1176C104.919 89.0782 104.95 89.0443 104.987 89.0415C105.442 89.0105 105.902 89.1881 106.217 89.5153C106.245 89.5435 106.243 89.5886 106.217 89.614C106.203 89.6281 106.186 89.6337 106.169 89.6337H106.166Z" fill="#0D4C93"/>
<path id="Vector_210" d="M106.336 90.6912C106.316 90.6912 106.299 90.6827 106.285 90.6686C105.998 90.3725 105.58 90.2118 105.168 90.24C105.134 90.2456 105.095 90.2146 105.092 90.1751C105.092 90.1356 105.117 90.1018 105.157 90.099C105.612 90.0651 106.072 90.2456 106.387 90.5727C106.415 90.6009 106.412 90.646 106.387 90.6714C106.373 90.6855 106.356 90.6912 106.339 90.6912H106.336Z" fill="#0D4C93"/>
</g>
<path id="Vector_211" d="M121.555 84.0529C121.555 84.0529 101.167 72.7193 94.1635 72.505C87.1601 72.2906 86.3677 77.5358 88.9436 81.5769C91.5195 85.6151 97.9833 83.6581 97.9833 83.6581C97.9833 83.6581 92.8713 82.3721 93.5046 80.996C94.1379 79.6198 96.0265 81.7546 96.0265 81.7546C96.0265 81.7546 108.415 86.8052 119.468 88.5959L121.558 84.0529H121.555Z" fill="#263238"/>
<path id="Vector_212" opacity="0.2" d="M111.051 78.4411L117.614 82.2029L118.307 82.1296L112.093 78.2437L111.051 78.4411Z" fill="black"/>
<path id="Vector_213" opacity="0.2" d="M100.636 83.486C100.636 83.486 94.0215 80.8804 94.0953 80.8804C94.1692 80.8804 98.2645 83.9288 99.6049 83.9147L100.636 83.486Z" fill="black"/>
</g>
<path id="Vector_214" d="M102.039 48.0105C102.039 48.0105 102.837 47.8272 105.762 51.214C107.747 53.5123 110.763 55.2043 110.763 55.2043C111.022 54.6516 115.58 48.0105 115.58 48.0105L118.48 49.6461C118.48 49.6461 114.223 60.5764 111.454 61.0079C108.685 61.4365 102.232 55.9121 102.232 55.9121L102.036 48.0133L102.039 48.0105Z" fill="#0D4C93"/>
<path id="Vector_215" d="M86.1237 52.029C87.3847 55.7908 87.4443 64.2903 86.9984 68.9856H102.599C105.058 59.6176 102.928 52.9567 102.718 50.7628C102.457 48.0922 102.042 47.9907 102.042 47.9907C102.042 47.9907 99.1252 47.7087 96.5863 47.7285C94.621 47.8018 92.6614 48.0133 90.7273 48.3601C89.2875 48.5998 87.8618 48.9185 86.456 49.3133C85.8539 49.4825 85.5046 50.1057 85.675 50.7064C85.6807 50.7261 85.6864 50.743 85.692 50.7628C85.8426 51.183 85.9874 51.6144 86.1237 52.0318V52.029Z" fill="#0D4C93"/>
<path id="Vector_216" opacity="0.2" d="M86.9951 68.9856C87.3672 64.6118 90.2242 59.5668 89.7755 55.2015C91.1018 57.074 91.542 60.7484 92.0816 64.8515C92.2576 66.1882 97.1424 67.539 97.3725 68.9208L86.9951 68.9856Z" fill="black"/>
<path id="Vector_217" d="M89.4629 48.8593C88.7359 49.8914 97.6791 51.5524 97.6791 51.5524C97.6791 51.5524 102.913 48.1797 96.8015 47.6552C95.5547 47.5452 90.6131 47.2378 89.4629 48.8593Z" fill="#CD877B"/>
<path id="Vector_218" d="M97.9717 53.4644C97.9717 53.4644 102.791 49.5164 100.298 47.1504C97.8042 44.7872 86.0636 43.7297 87.0576 49.1131C87.0576 49.1131 88.5685 48.6704 90.0936 50.1142C93.3085 53.1683 97.9746 53.4644 97.9746 53.4644H97.9717Z" fill="#0D4C93"/>
<path id="Vector_219" opacity="0.2" d="M97.5682 52.3279C97.5682 52.3279 100.297 50.2242 99.3347 48.3263C98.3748 46.4313 92.6976 44.3529 88.6279 46.9671C89.602 47.4634 90.5108 48.0838 91.3231 48.8114C92.9362 50.1819 97.5654 52.3251 97.5654 52.3251L97.5682 52.3279Z" fill="black"/>
<path id="Vector_220" opacity="0.2" d="M96.5316 52.5958C96.5316 52.7452 96.4123 52.8693 96.2618 52.8693C96.1113 52.8693 95.9863 52.7509 95.9863 52.6014C95.9863 52.452 96.1056 52.3279 96.2561 52.3279C96.2561 52.3279 96.2618 52.3279 96.2646 52.3279C96.4123 52.3279 96.5316 52.4491 96.5344 52.5958H96.5316Z" fill="black"/>
<path id="Vector_221" opacity="0.2" d="M99.2523 51.8175C99.2523 51.9642 99.1359 52.0854 98.9882 52.0882H98.9854C98.8349 52.1052 98.6985 52.0008 98.6815 51.8514C98.6645 51.7019 98.7695 51.5665 98.9201 51.5496C98.9428 51.5496 98.9627 51.5496 98.9854 51.5496C99.1331 51.5496 99.2552 51.6681 99.2552 51.8175H99.2523Z" fill="black"/>
<path id="Vector_222" d="M101.786 54.5275C101.786 54.677 101.666 54.8011 101.516 54.8011C101.365 54.8011 101.24 54.6826 101.24 54.5332C101.24 54.3837 101.36 54.2596 101.51 54.2596H101.513C101.663 54.2596 101.783 54.3781 101.786 54.5275Z" fill="#263238"/>
<path id="Vector_223" d="M95.9156 55.9093C95.9156 56.056 95.7963 56.1772 95.6458 56.1772C95.4981 56.1772 95.376 56.0588 95.376 55.9093C95.376 55.7599 95.4953 55.6414 95.6458 55.6414C95.7935 55.6414 95.9156 55.7599 95.9156 55.9093Z" fill="#263238"/>
<path id="Vector_224" d="M101.451 54.6403C101.451 54.6403 100.395 54.4993 100.213 53.1598C100.19 52.5112 99.6564 51.998 99.0032 52.0008C98.9492 52.0008 98.9009 51.9613 98.9009 51.9077C98.8953 51.857 98.935 51.809 98.989 51.8062H98.9975C99.7472 51.8062 100.369 52.3871 100.412 53.1316C100.571 54.3104 101.468 54.4429 101.474 54.4457C101.528 54.4514 101.565 54.4993 101.562 54.5529C101.553 54.6065 101.505 54.6431 101.451 54.6403Z" fill="#263238"/>
<path id="Vector_225" d="M95.6457 55.9093C95.5918 55.9093 95.5492 55.867 95.5463 55.8162C95.5236 55.1281 95.7792 54.457 96.2535 53.955C96.4409 53.7915 96.5488 53.5602 96.5574 53.3149C96.5375 53.0695 96.4296 52.8355 96.2563 52.6606C96.2109 52.6296 96.2024 52.5676 96.2336 52.5225C96.2648 52.4773 96.3273 52.4689 96.3728 52.4999C96.3813 52.5055 96.387 52.5112 96.3926 52.5196C96.6056 52.7283 96.7363 53.0075 96.7562 53.3036C96.7505 53.6025 96.6198 53.8873 96.3955 54.0876C95.9638 54.55 95.7281 55.1648 95.7423 55.7965C95.7423 55.8501 95.7054 55.8952 95.6514 55.9036L95.6429 55.9121L95.6457 55.9093Z" fill="#263238"/>
<g id="Group_58">
<path id="Vector_226" d="M106.131 76.2048L106.915 76.3458C106.915 76.3458 106.696 75.6465 109.477 74.73C112.257 73.8135 115.023 73.3171 115.023 73.3171C115.023 73.3171 109.999 73.0662 109.869 73.0662C109.738 73.0662 105.089 74.7046 105.089 74.7046L106.131 76.202V76.2048Z" fill="#0D4C93"/>
<path id="Vector_227" d="M104.143 71.1119C104.282 71.1119 115.026 73.3172 115.026 73.3172C115.026 73.3172 107.556 73.0465 106.134 76.2049L97.4375 72.6601C97.4375 72.6601 99.8742 71.0499 104.143 71.1148V71.1119Z" fill="#EBEBEB"/>
<path id="Vector_228" d="M122.26 71.1119V71.5772C122.26 71.5772 117.434 71.0217 115.023 73.32L114.893 72.2173L118.09 70.7594L122.26 71.1119Z" fill="#0D4C93"/>
<path id="Vector_229" d="M112.498 68.9574C112.498 68.9574 106.671 67.4262 104.526 71.1852L115.023 73.32C115.023 73.32 115.509 70.4549 122.259 71.1119L112.498 68.9574Z" fill="#EBEBEB"/>
</g>
<path id="Vector_230" d="M85.9927 49.553C85.7456 49.6404 84.1467 50.9687 84.2234 54.0819C84.337 58.6447 85.4673 68.0974 85.9927 68.9857C86.5181 69.874 100.426 73.743 100.633 73.9686C100.84 74.1942 101.562 71.5575 101.562 71.5575L90.8519 64.812C90.8519 64.812 90.2186 55.3086 89.9659 53.8845C89.7131 52.4604 88.9832 48.4871 85.9927 49.553Z" fill="#0D4C93"/>
<path id="Vector_231" d="M101.439 71.989L102.039 72.2569C102.039 72.2569 104.873 72.0341 105.591 72.7447C106.31 73.4554 106.713 76.7012 106.713 76.7012L100.633 73.9686L101.439 71.989Z" fill="#EEC1BB"/>
<g id="Group_59">
<g id="Group_60">
<path id="Vector_232" d="M91.63 49.1639C91.63 49.1639 92.9222 50.0127 94.7454 51.1125C95.126 51.3409 97.0629 52.1897 97.486 52.3279L98.2699 51.6596C98.3096 51.5411 98.3324 51.4142 98.3437 51.2845C98.4232 50.4103 98.1364 49.2485 97.3639 48.8227C96.492 48.3433 96.0348 47.8836 96.0376 47.0376C96.032 46.5582 96.1228 46.0506 96.2421 45.5487L95.2652 45.1651L91.5703 42.5172C92.2576 44.4009 93.1039 47.737 91.63 49.1611V49.1639Z" fill="#EEC1BB"/>
<path id="Vector_233" opacity="0.2" d="M96.0408 47.2237C95.0837 46.8543 93.9818 46.1239 93.925 45.0862C93.9051 44.6491 93.9278 44.2289 93.9903 43.9525L96.1458 45.9829C96.0635 46.3805 96.0521 46.6372 96.0408 47.2209V47.2237Z" fill="black"/>
<path id="Vector_234" d="M90.3576 39.0457C91.1954 42.2239 91.4822 43.5831 93.4447 44.9988C96.3954 47.1279 100.133 45.6304 100.264 42.3198C100.383 39.3418 98.9912 34.6437 95.5718 33.8146C92.2036 32.9968 89.517 35.8676 90.3576 39.0457Z" fill="#EEC1BB"/>
<path id="Vector_235" d="M94.9161 39.3813C94.9899 39.7197 95.2228 39.9707 95.4358 39.9397C95.6516 39.9087 95.7652 39.6097 95.6914 39.2713C95.6176 38.9329 95.3847 38.682 95.1717 38.713C94.9558 38.744 94.8422 39.0429 94.9161 39.3813Z" fill="#263238"/>
<path id="Vector_236" d="M98.2132 38.8173C98.2842 39.1444 98.5171 39.3869 98.7301 39.3559C98.9431 39.3249 99.0595 39.0344 98.9885 38.7045C98.9175 38.3774 98.6847 38.1349 98.4717 38.1659C98.2587 38.1969 98.1422 38.4874 98.2132 38.8173Z" fill="#263238"/>
<path id="Vector_237" d="M93.8647 38.3238C93.9073 38.3238 93.9471 38.3041 93.9755 38.2674C94.3987 37.7232 94.9894 37.7937 94.9979 37.7937C95.0859 37.8049 95.1626 37.7429 95.1683 37.6555C95.174 37.5681 95.1058 37.4891 95.0149 37.475C94.9837 37.4722 94.2425 37.3848 93.7171 38.0587C93.6659 38.1264 93.6801 38.2279 93.7511 38.2843C93.7852 38.3125 93.8278 38.3238 93.8676 38.321L93.8647 38.3238Z" fill="#263238"/>
<path id="Vector_238" d="M98.7558 37.0633C98.7871 37.0464 98.8098 37.0182 98.8183 36.9815C98.8354 36.9026 98.7842 36.818 98.7019 36.7869C97.8896 36.4937 97.3926 36.9026 97.3699 36.9195C97.3103 36.9702 97.3103 37.0633 97.3699 37.131C97.4296 37.1987 97.5233 37.2128 97.5829 37.162C97.6028 37.1451 97.9947 36.8377 98.6394 37.0689C98.682 37.083 98.7218 37.0802 98.7558 37.0633Z" fill="#263238"/>
<path id="Vector_239" d="M97.0488 38.8483C97.0488 38.8483 97.7588 39.9735 98.4603 40.6306C98.5824 40.7462 98.554 40.9492 98.4063 41.031C98.0286 41.2453 97.5373 41.1889 97.5373 41.1889L97.0488 38.8483Z" fill="#D4827D"/>
</g>
<path id="Vector_240" d="M95.0518 38.7468L95.7674 38.4479C95.7674 38.4479 95.4522 39.0683 95.0518 38.7468Z" fill="#263238"/>
<path id="Vector_241" d="M98.3604 38.1997L99.076 37.9008C99.076 37.9008 98.7608 38.5212 98.3604 38.1997Z" fill="#263238"/>
<path id="Vector_242" d="M91.7521 43.2729C80.855 36.5726 93.0357 32.0211 93.0357 32.0211C97.9291 28.6174 98.0995 33.7921 98.0995 33.7921C100.55 36.3329 97.0799 38.555 97.0799 38.555C98.5425 36.4654 96.279 35.219 96.279 35.219C96.6255 37.9967 93.8991 39.0852 93.8991 39.0852C94.9669 36.581 94.2853 35.2838 94.2853 35.2838C93.5043 39.7479 91.2551 40.6447 91.2551 40.6447L91.7521 43.2729Z" fill="#263238"/>
<path id="Vector_243" d="M89.8153 41.8403C90.3094 42.4382 91.0024 42.7512 91.5988 42.7991C92.4962 42.8724 92.7092 41.423 92.2719 40.6164C91.8771 39.8889 90.9484 39.5195 90.139 39.8268C89.341 40.1286 89.2501 41.1579 89.8153 41.8403Z" fill="#EEC1BB"/>
</g>
<path id="Vector_244" opacity="0.2" d="M91.965 41.3976C91.9337 41.3976 91.9053 41.375 91.8968 41.344C91.8315 41.0902 91.698 40.8533 91.5077 40.6644C91.3856 40.5403 91.1868 40.388 90.9426 40.3626C90.721 40.3401 90.4995 40.4416 90.4143 40.608C90.3973 40.6418 90.3547 40.6559 90.3178 40.639C90.2837 40.6221 90.2695 40.5798 90.2865 40.5431C90.4001 40.326 90.6756 40.1906 90.9568 40.2216C91.2436 40.2527 91.4708 40.4247 91.61 40.5657C91.8173 40.7744 91.9621 41.031 92.0331 41.3102C92.0416 41.3468 92.0189 41.3863 91.982 41.3947C91.9763 41.3947 91.9706 41.3947 91.965 41.3947V41.3976Z" fill="black"/>
<g id="Group_61">
<path id="Vector_245" d="M97.4808 42.3597C97.2366 42.6727 97.0122 43.0055 96.8162 43.3524C96.7509 43.3298 96.6828 43.3044 96.6174 43.279C95.7228 42.9406 95.4161 42.4894 95.3565 42.0918C95.3309 41.8972 95.3508 41.697 95.4161 41.5109C95.4502 41.4066 95.4985 41.305 95.561 41.212C95.9273 41.6745 96.7367 42.0523 97.1769 42.2385C97.37 42.309 97.4808 42.3597 97.4808 42.3597Z" fill="#263238"/>
<path id="Vector_246" d="M97.1915 42.2323L96.987 42.5199C96.1463 42.1985 95.5982 41.8657 95.4307 41.5047C95.4647 41.4004 95.513 41.2989 95.5755 41.2058C95.9447 41.6711 96.7513 42.0462 97.1915 42.2323Z" fill="white"/>
<path id="Vector_247" d="M96.6291 43.2728C95.7345 42.9344 95.4278 42.4833 95.3682 42.0856C95.7061 42.221 96.0185 42.4127 96.2883 42.6553C96.4644 42.8216 96.5837 43.036 96.6291 43.27V43.2728Z" fill="#C15854"/>
</g>
</g>
</g>
<g id="freepik--Character_1--inject-7">
<g id="Group_62">
<g id="Group_63">
<path id="Vector_248" d="M73.6221 109.822L77.2715 116.449L80.4579 115.507L77.564 107.817L73.6221 109.822Z" fill="#895555"/>
<g id="Group_64">
<path id="Vector_249" d="M78.0869 120.019L80.3646 119.537C80.3646 119.537 80.4952 119.075 80.9751 118.959C81.2449 118.894 81.9606 119.134 81.9606 119.134L88.237 117.856C88.237 117.856 88.149 117.428 88.0411 117.258C87.9104 117.05 87.7713 116.881 87.6293 116.74C87.1323 116.255 86.374 116.156 85.8088 116.102C84.8631 116.012 82.1367 115.296 82.1367 115.296C82.1367 115.296 81.4296 115.045 80.8445 114.247C80.5179 113.804 80.0834 113.578 79.8051 113.601C79.2371 113.643 78.9985 114.032 79.0269 114.56L79.061 115.172C78.706 115.586 78.1465 115.682 77.6325 115.375C77.6325 115.375 76.3119 114.929 76.5021 115.502C76.6101 115.829 77.1497 117.275 77.5416 118.429C77.6325 118.697 77.7205 118.953 77.7944 119.176C77.9619 119.672 78.0784 120.014 78.0784 120.014L78.0869 120.019Z" fill="#263238"/>
<path id="Vector_250" d="M83.5991 115.629C83.5651 115.609 83.5225 115.614 83.4941 115.643C83.3634 115.767 83.2669 115.922 83.2158 116.105C83.1902 116.201 83.3435 116.255 83.3691 116.159C83.4145 115.998 83.4998 115.86 83.6134 115.753C83.6503 115.716 83.6474 115.66 83.602 115.631L83.5991 115.629Z" fill="#0D4C93"/>
<path id="Vector_251" d="M83.063 115.468C83.0289 115.448 82.9863 115.454 82.9579 115.482C82.8273 115.606 82.7307 115.761 82.6796 115.944C82.6541 116.04 82.8074 116.094 82.833 115.998C82.8784 115.837 82.9636 115.699 83.0772 115.592C83.1141 115.555 83.1113 115.499 83.0659 115.471L83.063 115.468Z" fill="#0D4C93"/>
<path id="Vector_252" d="M82.5113 115.33C82.4772 115.31 82.4346 115.315 82.4062 115.344C82.2755 115.468 82.179 115.623 82.1279 115.806C82.1023 115.902 82.2557 115.956 82.2812 115.86C82.3267 115.699 82.4119 115.561 82.5255 115.454C82.5624 115.417 82.5595 115.361 82.5141 115.332L82.5113 115.33Z" fill="#0D4C93"/>
</g>
<path id="Vector_253" opacity="0.2" d="M80.9746 118.959C81.2444 118.894 81.96 119.134 81.96 119.134L88.2364 117.856C88.2364 117.856 88.1484 117.428 88.0405 117.258C87.9808 117.163 87.9184 117.078 87.8559 116.996L77.7568 119.055C77.771 119.094 77.7852 119.139 77.7994 119.179C77.967 119.675 78.0834 120.016 78.0834 120.016L80.3611 119.534C80.3611 119.534 80.4917 119.072 80.9717 118.956L80.9746 118.959Z" fill="white"/>
<path id="Vector_254" d="M82.4544 115.487L82.4346 115.423C82.3721 115.211 82.3068 114.994 82.2812 114.771C82.2528 114.517 82.2812 114.292 82.3636 114.1C82.4232 113.968 82.5084 113.889 82.605 113.874C82.7328 113.858 82.8435 113.953 82.9032 114.049C83.0111 114.224 83.0395 114.453 82.9798 114.681C82.923 114.904 82.5936 115.315 82.4942 115.434L82.4516 115.485L82.4544 115.487ZM82.6362 113.945C82.6362 113.945 82.622 113.945 82.6163 113.945C82.5169 113.959 82.4573 114.066 82.4289 114.128C82.3494 114.306 82.3238 114.52 82.3522 114.763C82.3749 114.957 82.4289 115.152 82.4857 115.338C82.6731 115.104 82.8748 114.819 82.9145 114.664C82.9685 114.455 82.9429 114.244 82.8464 114.089C82.8009 114.015 82.7242 113.945 82.639 113.945H82.6362Z" fill="#0D4C93"/>
<path id="Vector_255" d="M82.3839 115.454C82.1823 115.454 81.7364 115.442 81.5461 115.358C81.3303 115.262 81.1684 115.096 81.1002 114.904C81.0633 114.797 81.0548 114.65 81.1485 114.563C81.2195 114.495 81.336 114.478 81.478 114.515C81.6796 114.568 81.8727 114.687 82.0573 114.87C82.2164 115.031 82.347 115.217 82.472 115.397L82.5089 115.451H82.4407C82.4237 115.451 82.4038 115.451 82.3811 115.451L82.3839 115.454ZM81.3388 114.565C81.2877 114.565 81.2366 114.577 81.1968 114.613C81.1258 114.678 81.1343 114.794 81.1656 114.881C81.228 115.056 81.3757 115.205 81.5745 115.296C81.7222 115.361 82.0715 115.386 82.3726 115.386C82.259 115.225 82.1425 115.062 82.0034 114.923C81.8301 114.751 81.6455 114.636 81.4581 114.588C81.4268 114.579 81.3842 114.571 81.3388 114.571V114.565Z" fill="#0D4C93"/>
</g>
<g id="Group_65">
<path id="Vector_256" d="M58.5352 114.681L56.8682 122.052L59.8871 123.434L62.8265 115.761L58.5352 114.681Z" fill="#895555"/>
<g id="Group_66">
<path id="Vector_257" d="M55.1045 125.267L57.1351 126.401C57.1351 126.401 57.5412 126.139 57.9786 126.367C58.2257 126.494 58.6034 127.145 58.6034 127.145L64.1641 130.301C64.1641 130.301 64.3828 129.923 64.4169 129.723C64.4566 129.48 64.468 129.263 64.4538 129.066C64.4027 128.375 63.9 127.802 63.5109 127.394C62.8605 126.708 61.29 124.379 61.29 124.379C61.29 124.379 60.9265 123.725 61.0174 122.743C61.0685 122.196 60.8896 121.745 60.6652 121.576C60.208 121.235 59.7706 121.37 59.444 121.787L59.0635 122.27C58.521 122.349 58.0354 122.055 57.8565 121.486C57.8565 121.486 57.1607 120.284 56.9221 120.84C56.7858 121.156 56.2291 122.597 55.7549 123.722C55.6441 123.984 55.539 124.232 55.4481 124.449C55.2437 124.932 55.1045 125.264 55.1045 125.264V125.267Z" fill="#263238"/>
<path id="Vector_258" d="M62.165 125.583C62.1537 125.546 62.1167 125.524 62.077 125.524C61.8981 125.532 61.7191 125.586 61.5601 125.687C61.4777 125.741 61.5573 125.882 61.6396 125.828C61.7816 125.738 61.9378 125.69 62.094 125.682C62.148 125.682 62.1821 125.634 62.165 125.583Z" fill="#0D4C93"/>
<path id="Vector_259" d="M61.8662 125.112C61.8548 125.076 61.8179 125.053 61.7782 125.053C61.5992 125.061 61.4203 125.115 61.2613 125.217C61.1789 125.27 61.2584 125.411 61.3408 125.358C61.4828 125.267 61.6362 125.219 61.7952 125.211C61.8492 125.211 61.8832 125.163 61.8662 125.112Z" fill="#0D4C93"/>
<path id="Vector_260" d="M61.5488 124.647C61.5375 124.61 61.5005 124.588 61.4608 124.588C61.2819 124.596 61.1029 124.65 60.9439 124.751C60.8615 124.805 60.9411 124.946 61.0234 124.892C61.1654 124.802 61.3188 124.754 61.4778 124.746C61.5318 124.746 61.5659 124.698 61.5488 124.647Z" fill="#0D4C93"/>
</g>
<path id="Vector_261" opacity="0.2" d="M57.9785 126.367C58.2256 126.494 58.6033 127.145 58.6033 127.145L64.164 130.301C64.164 130.301 64.3827 129.923 64.4168 129.723C64.4338 129.61 64.4452 129.506 64.4508 129.404L55.4963 124.328C55.4793 124.368 55.4622 124.413 55.4452 124.449C55.2407 124.932 55.1016 125.264 55.1016 125.264L57.1322 126.398C57.1322 126.398 57.5383 126.136 57.9756 126.364L57.9785 126.367Z" fill="white"/>
<path id="Vector_262" d="M61.3975 124.726L61.4259 124.667C61.5196 124.466 61.6133 124.26 61.7439 124.077C61.8916 123.866 62.062 123.716 62.2523 123.629C62.3829 123.57 62.5022 123.564 62.5846 123.618C62.6925 123.688 62.7124 123.835 62.6925 123.945C62.6584 124.145 62.5278 124.337 62.3318 124.469C62.1387 124.599 61.619 124.692 61.4656 124.717L61.4003 124.729L61.3975 124.726ZM62.4454 123.649C62.3829 123.649 62.3205 123.671 62.2807 123.691C62.1018 123.773 61.9427 123.916 61.8007 124.117C61.6871 124.277 61.5991 124.458 61.5167 124.636C61.8149 124.582 62.1557 124.5 62.2892 124.41C62.4681 124.289 62.5903 124.114 62.6215 123.933C62.6357 123.843 62.6243 123.728 62.5448 123.677C62.5164 123.657 62.4823 123.651 62.4483 123.651L62.4454 123.649Z" fill="#0D4C93"/>
<path id="Vector_263" d="M61.4628 124.737L61.4116 124.695C61.2924 124.593 60.8976 124.246 60.801 124.035C60.7045 123.821 60.6903 123.589 60.767 123.4C60.8096 123.296 60.9004 123.18 61.0311 123.178H61.0396C61.1362 123.178 61.2327 123.242 61.3094 123.358C61.4258 123.53 61.4912 123.747 61.5082 124.004C61.5224 124.229 61.4968 124.455 61.4684 124.672L61.4599 124.737H61.4628ZM61.0396 123.245H61.0339C60.9374 123.248 60.8664 123.341 60.8323 123.426C60.7641 123.598 60.7755 123.809 60.8635 124.004C60.9288 124.151 61.1788 124.396 61.4031 124.596C61.4258 124.401 61.4457 124.201 61.4344 124.007C61.4202 123.764 61.3577 123.558 61.2498 123.395C61.2128 123.338 61.1362 123.245 61.0396 123.245Z" fill="#0D4C93"/>
</g>
<g id="Group_67">
<path id="Vector_264" d="M61.4495 66.5266C61.4495 66.5266 62.5031 75.8383 62.7843 76.3374C63.7357 78.0266 70.0433 80.9227 70.0433 80.9227L73.2582 80.2544L75.5614 82.1635L74.042 83.3451L72.2585 82.6768C71.2872 82.8488 70.2989 82.9362 69.3106 82.9334C67.6492 82.9334 59.6404 80.9171 58.3056 78.7006C56.9679 76.484 56.3545 66.2164 56.3545 66.2164L61.4495 66.5266Z" fill="#895555"/>
<g id="Group_68">
<path id="Vector_265" d="M56.2212 70.187C56.2212 70.187 53.7504 62.009 56.829 59.7389C59.9075 57.4688 62.3556 68.7121 62.3556 68.7121L56.2212 70.187Z" fill="#0D4C93"/>
<path id="Vector_266" d="M58.1692 85.1442L58.1465 74.307L57.9108 59.4682L51.7707 58.5968L46.5394 58.5488L39.4621 60.7343L39.3145 64.3749C39.3145 64.3749 40.0443 81.0947 40.0046 81.5995C39.9535 82.2171 39.7973 86.8052 39.7973 86.8052C47.8657 88.6298 58.297 85.6998 58.1692 85.1471V85.1442Z" fill="#0D4C93"/>
<path id="Vector_267" opacity="0.2" d="M58.056 69.7471L57.7266 62.7563L59.2999 69.4481L58.056 69.7471Z" fill="black"/>
<path id="Vector_268" opacity="0.2" d="M44.404 70.7651C44.6028 70.7256 45.6081 70.3985 45.6081 70.3985L43.373 64.2227L46.4431 71.0527L44.5971 71.7831L44.404 70.7622V70.7651Z" fill="black"/>
</g>
<g id="Group_69">
<path id="Vector_269" d="M43.5374 65.6439C43.5374 65.6439 45.1023 75.982 46.0054 76.9465C47.5333 78.5793 55.0962 82.9108 55.0962 82.9108L58.8706 81.5967C59.1347 81.5092 59.4272 81.5572 59.6431 81.7207L62.2246 83.6778L61.9775 83.8837C61.8725 83.9739 61.7163 83.9908 61.5913 83.9288L61.1909 83.7314L61.6396 84.1685L61.4976 84.2869C61.3556 84.4054 61.1596 84.4477 60.9779 84.3997L59.8248 84.0924L60.8898 84.7974C60.6513 84.9976 60.3218 85.0653 60.0179 84.9807L58.3281 84.5041C57.1751 84.7663 56.0022 84.9327 54.8207 85.0032C52.8327 85.1245 43.4437 81.8674 41.6914 79.4817C39.942 77.0959 38.1357 67.1921 38.1357 67.1921L43.5317 65.6467L43.5374 65.6439Z" fill="#895555"/>
<path id="Vector_270" d="M38.542 72.5191C38.542 72.5191 36.2018 63.1511 39.2804 60.881C42.3589 58.6109 45.4091 70.4633 45.4091 70.4633L38.542 72.5191Z" fill="#0D4C93"/>
</g>
<g id="Group_70">
<path id="Vector_271" d="M63.7412 84.428H51.7734C51.7763 84.8848 52.2875 85.2514 52.9123 85.2486H72.4089C73.0308 85.243 73.5307 84.8764 73.5278 84.428H63.7412Z" fill="#263238"/>
<path id="Vector_272" d="M72.5874 85.2035H61.6534C61.466 85.2035 61.3126 85.0794 61.3155 84.9299C61.3155 84.9017 61.3212 84.8735 61.3325 84.8481L66.1974 73.774C66.3195 73.4582 66.6859 73.241 67.1006 73.241H78.0402C78.2248 73.241 78.3754 73.3595 78.3754 73.5089C78.3754 73.54 78.3697 73.571 78.3555 73.5992L73.4905 84.6733C73.3656 84.9892 73.0021 85.2035 72.5874 85.2063V85.2035Z" fill="#263238"/>
<path id="Vector_273" opacity="0.7" d="M78.0406 73.2382H67.1009C66.6863 73.2382 66.3199 73.4554 66.1978 73.7712L61.5175 84.428H51.7734C51.7763 84.8848 52.2875 85.2514 52.9123 85.2486H72.4089C72.6048 85.2486 72.7866 85.2063 72.9485 85.1415C73.2041 85.0569 73.4057 84.8876 73.4938 84.6677L78.3587 73.5935C78.3729 73.5653 78.3786 73.5343 78.3786 73.5033C78.3786 73.3567 78.228 73.2354 78.0434 73.2354L78.0406 73.2382Z" fill="white"/>
<path id="Vector_274" d="M71.469 79.1348C71.2333 79.665 70.7533 80.0316 70.3955 79.9554C70.0377 79.8793 69.9439 79.3971 70.1711 78.8641C70.4012 78.3311 70.884 77.9758 71.2418 78.0491C71.5997 78.1224 71.7047 78.5877 71.4662 79.1348H71.469Z" fill="white"/>
<g id="Group_71" opacity="0.3">
<path id="Vector_275" d="M66.195 73.774L61.5146 84.4308H62.0202L67.0981 73.241C66.6834 73.241 66.3171 73.4582 66.195 73.774Z" fill="black"/>
</g>
</g>
</g>
<g id="Group_72">
<path id="Vector_276" d="M54.9691 45.6896L55.3156 45.8899C55.7189 45.8983 56.0994 46.2001 56.1932 46.592C56.2869 46.9812 56.0881 47.4239 55.7331 47.6157C55.6791 47.6439 55.6166 47.6749 55.5996 47.7313C55.5684 47.8244 55.6678 47.9005 55.7388 47.9654C56.1023 48.2784 56.0568 48.896 55.7302 49.2457C55.4036 49.5953 54.8839 49.7081 54.4068 49.6687C54.2818 48.3263 55.0856 47.0291 54.9691 45.6896Z" fill="#263238"/>
<path id="Vector_277" d="M44.6853 49.4656C44.1712 49.491 43.6572 49.1752 43.4499 48.707C43.3931 48.5773 43.3561 48.4335 43.3789 48.2953C43.4442 47.9174 43.8787 47.7454 44.2507 47.6411C43.8361 47.5396 43.5578 47.1307 43.4783 46.7161C43.4413 46.5272 43.4385 46.3241 43.501 46.1408C43.6061 45.8306 43.8844 45.605 44.1883 45.4838C44.4921 45.3625 44.8244 45.3287 45.151 45.2977L47.0339 51.2309C46.6136 51.324 46.1763 51.3804 45.7531 51.3099C45.3271 51.2394 44.9125 51.0223 44.6767 50.6669C44.441 50.3088 44.4183 49.8012 44.6853 49.4656Z" fill="#263238"/>
<path id="Vector_278" d="M45.7393 58.797C47.4773 57.325 47.395 53.2416 47.0826 51.0223L52.0384 55.2861C51.9191 55.5371 51.8169 55.7965 51.7345 56.0616C51.5669 56.5354 51.5243 57.043 51.6124 57.5365C51.7004 57.9454 52.1605 59.0818 52.1605 59.0818C52.1605 59.0818 52.4076 60.3537 49.0393 60.2916C47.5569 60.4242 45.7449 58.797 45.7449 58.797H45.7393Z" fill="#895555"/>
<path id="Vector_279" opacity="0.2" d="M47.9713 53.2811C47.676 55.8726 50.2888 57.1275 51.6122 57.5421C51.5242 57.0486 51.5668 56.541 51.7343 56.0672L47.9713 53.2811Z" fill="black"/>
<g id="Group_73">
<g id="Group_74">
<path id="Vector_280" d="M46.233 49.0849C46.8436 52.1474 47.1248 53.8846 48.9566 55.2494C51.7086 57.2996 55.3864 55.4299 55.7385 52.2405C56.0538 49.3697 55.0001 44.8465 51.7 44.0484C48.4482 43.2616 45.6224 46.0252 46.233 49.0877V49.0849Z" fill="#895555"/>
<path id="Vector_281" d="M45.3304 45.4246C45.5405 43.6677 49.9567 43.0868 51.3086 43.7974C51.5102 43.9046 49.065 45.5063 49.2155 45.4302L48.0397 45.9998C47.8438 45.9829 47.5001 46.2452 47.3837 46.8374C47.3837 46.8374 48.1618 51.5524 46.9548 53.1006C45.7677 52.7171 45.4496 50.8502 44.947 49.7786C44.1972 48.1825 43.2373 45.825 45.3332 45.4274L45.3304 45.4246Z" fill="#263238"/>
<path id="Vector_282" d="M45.3165 51.8203C45.68 52.5817 46.373 53.1063 47.0489 53.3319C48.0656 53.6674 48.2872 52.6156 48.0656 51.654C47.8668 50.7882 47.4579 49.7561 46.4099 49.8379C45.3762 49.9168 44.9019 50.9518 45.3165 51.8232V51.8203Z" fill="#895555"/>
<path id="Vector_283" d="M50.5389 49.24C50.5815 49.5558 50.7888 49.7871 51.0047 49.7589C51.2177 49.7307 51.3568 49.4487 51.3142 49.1328C51.2716 48.817 51.0643 48.5858 50.8485 48.614C50.6355 48.6422 50.4963 48.9242 50.5389 49.24Z" fill="#263238"/>
<path id="Vector_284" d="M53.7596 49.0567C53.8022 49.3726 54.0095 49.6038 54.2254 49.5756C54.4412 49.5474 54.5775 49.2654 54.5349 48.9496C54.4923 48.6337 54.285 48.4025 54.0692 48.4307C53.8562 48.4589 53.717 48.7409 53.7596 49.0567Z" fill="#263238"/>
<path id="Vector_285" d="M53.0859 49.0031C53.0859 49.0031 54.3327 50.4413 54.753 51.0363C54.3497 51.4904 53.5403 51.4086 53.5403 51.4086L53.0859 49.0031Z" fill="#6D3939"/>
<path id="Vector_286" d="M49.9341 48.0048C49.9852 48.0189 50.0448 48.0048 50.0846 47.9654C50.5702 47.4888 51.1297 47.5875 51.1354 47.5875C51.2178 47.6044 51.3001 47.5508 51.3172 47.469C51.3342 47.3873 51.2802 47.3111 51.1979 47.2942C51.1695 47.2886 50.468 47.1645 49.8631 47.7567C49.8034 47.8159 49.8034 47.909 49.8631 47.9682C49.883 47.9879 49.9057 47.9992 49.9312 48.0048H49.9341Z" fill="#263238"/>
<path id="Vector_287" opacity="0.2" d="M47.5167 51.6821C47.4855 51.6821 47.4571 51.6596 47.4486 51.6285C47.3832 51.3776 47.2526 51.1491 47.068 50.963C46.9487 50.8418 46.7528 50.6923 46.5142 50.6669C46.2984 50.6444 46.0797 50.7459 45.9973 50.9066C45.9803 50.9405 45.9377 50.9546 45.9008 50.9376C45.8667 50.9207 45.8525 50.8784 45.8695 50.8418C45.9803 50.6274 46.2529 50.4977 46.5284 50.5259C46.8124 50.5569 47.0339 50.7261 47.1702 50.8643C47.3719 51.0674 47.5167 51.3212 47.5877 51.5947C47.5962 51.6314 47.5735 51.6708 47.5366 51.6793C47.5309 51.6793 47.5252 51.6793 47.5196 51.6793L47.5167 51.6821Z" fill="black"/>
<path id="Vector_288" d="M55.3924 47.5311C55.4208 47.5227 55.4464 47.5029 55.4634 47.4803C55.5145 47.4155 55.5032 47.3196 55.435 47.2717C54.7563 46.7754 54.0889 47.0122 54.0576 47.0179C53.9781 47.0461 53.9355 47.1335 53.9639 47.2096C53.9923 47.2858 54.0803 47.3252 54.1599 47.2999C54.1883 47.2886 54.7051 47.1137 55.2504 47.5114C55.293 47.5424 55.347 47.548 55.3953 47.5311H55.3924Z" fill="#263238"/>
</g>
<path id="Vector_289" d="M44.294 44.0258C44.4558 43.2814 45.3987 43.0163 46.1456 43.0811C46.0093 42.2098 47.1311 41.5753 47.8752 41.516C48.6534 41.454 48.9658 41.7219 48.9658 41.7219C48.9061 41.7416 49.1504 41.2622 49.3122 41.0648C49.9086 40.3373 50.9481 40.0243 51.8398 40.2978C52.7316 40.5742 53.4246 41.423 53.5268 42.3649C53.9528 41.8403 54.8133 41.7614 55.3245 42.2041C55.8357 42.6469 55.8982 43.5239 55.4552 44.0343C56.026 44.0061 56.5684 44.5306 56.5684 45.1115C56.5684 45.6953 56.0232 46.2142 55.4523 46.1803C55.4921 46.8317 55.5148 47.6467 55.5546 48.2981L54.3845 46.0196C53.9045 45.9124 53.7938 45.7178 53.6432 45.2441C53.3763 45.8927 52.8367 45.9011 52.1466 45.9519C51.4564 46.0027 50.7521 45.6304 50.3943 45.0269C50.1131 45.7037 49.494 46.2621 48.7726 46.3241C48.0513 46.3862 47.2873 45.8532 47.205 45.12C46.8528 45.7912 45.9809 46.1239 45.2794 45.8588C44.578 45.5938 44.1321 44.7619 44.294 44.0174V44.0258Z" fill="#263238"/>
<g id="Group_75">
<path id="Vector_290" d="M53.4217 52.4577C53.1548 52.7989 52.9162 53.157 52.7032 53.5321C52.6322 53.5067 52.5584 53.4813 52.4874 53.4531C51.5189 53.0865 51.1895 52.5987 51.1213 52.17C51.0929 51.9585 51.1157 51.7442 51.1838 51.5412C51.2207 51.4255 51.2747 51.3184 51.34 51.2169C51.7376 51.716 52.6123 52.1277 53.0895 52.3279C53.2996 52.4041 53.4161 52.4605 53.4161 52.4605L53.4217 52.4577Z" fill="#263238"/>
<path id="Vector_291" d="M53.1038 52.3195L52.8823 52.6297C51.9735 52.2828 51.3771 51.919 51.1953 51.5327C51.2322 51.4171 51.2862 51.3099 51.3515 51.2084C51.752 51.7132 52.6238 52.1192 53.101 52.3195H53.1038Z" fill="white"/>
<path id="Vector_292" d="M52.4989 53.4447C51.5304 53.0781 51.201 52.5902 51.1328 52.1616C51.4992 52.3082 51.8343 52.5169 52.1268 52.7791C52.3171 52.9568 52.4449 53.1909 52.496 53.4447H52.4989Z" fill="#C15854"/>
</g>
</g>
</g>
<g id="Group_76">
<g id="freepik--freepik--Character--inject-281--inject-7">
<path id="Vector_293" d="M70.3079 95.6882C70.1887 96.8698 69.9302 98.4857 69.6207 99.6306C68.7772 102.868 67.8144 105.981 66.6017 109.199C64.2587 115.552 62.3673 121.449 62.3673 121.449L56.4175 119.678C56.4175 119.678 60.3509 101.294 63.0035 99.4134H46.7359C46.4321 99.4134 46.1282 99.3937 45.8271 99.3514C48.6302 98.9904 52.9953 97.2759 57.048 95.5613C60.6264 94.0413 63.9747 92.5242 65.7895 91.9517C68.0104 92.8936 70.4812 93.8355 70.3108 95.6882H70.3079Z" fill="#263238"/>
<path id="Vector_294" opacity="0.6" d="M65.7918 91.9687C63.9742 92.5552 60.6258 94.0611 57.0503 95.5783C52.9976 97.2928 48.6325 99.0074 45.8294 99.3684C41.1094 98.7423 39.3344 93.1587 44.2703 86.7178C47.4738 86.7178 50.6944 89.755 50.6944 89.755C50.6944 89.755 60.3816 89.707 65.7918 91.9687Z" fill="black"/>
<path id="Vector_295" d="M79.0379 111.751L75.1045 114.117C75.1045 114.117 71.8215 107.273 68.6833 99.5516C68.9929 98.4039 69.2115 97.2364 69.3308 96.0548C69.5012 94.2021 68.0187 92.8964 65.7978 91.9743C63.9802 92.5609 60.6319 94.0667 57.0563 95.5839C53.0036 97.2985 48.6386 99.013 45.8355 99.374C45.5146 99.4163 45.1908 99.4388 44.8642 99.4445C39.4796 99.4445 37.6222 94.7576 39.7948 86.8052C42.9983 86.8052 48.4852 86.4612 48.4852 86.4612C48.4852 86.4612 59.0727 83.9345 66.6896 84.7946C70.3987 85.2289 73.4005 87.9896 74.1191 91.6303C76.0815 101.283 79.0351 111.751 79.0351 111.751H79.0379Z" fill="#263238"/>
<path id="Vector_296" d="M79.6599 112.039L75.1045 114.117C75.1045 114.117 71.8215 107.273 68.6833 99.5516C68.9928 98.4039 69.2115 97.2364 69.3308 96.0548C69.5012 94.2021 68.0187 92.8964 65.7978 91.9743C63.9802 92.5609 60.6319 94.0667 57.0563 95.5839C53.0036 97.2985 48.6386 99.013 45.8355 99.374C45.5146 99.4163 45.1908 99.4388 44.8642 99.4445C39.4796 99.4445 37.6222 94.7576 39.7948 86.8052C42.9983 86.8052 48.4852 86.4612 48.4852 86.4612C48.4852 86.4612 59.0727 83.9345 66.6896 84.7946C70.3987 85.2289 73.4005 87.9896 74.1191 91.6303C76.0815 101.283 79.6571 112.039 79.6571 112.039H79.6599Z" fill="#263238"/>
</g>
<path id="Vector_297" opacity="0.2" d="M70.3079 95.6882C70.1887 96.8698 69.9302 98.4857 69.6207 99.6306C68.7772 102.868 67.8144 105.981 66.6017 109.199C64.2587 115.552 62.3673 121.449 62.3673 121.449L56.4175 119.678C56.4175 119.678 60.3509 101.294 63.0035 99.4134H46.7359C46.4321 99.4134 46.1282 99.3937 45.8271 99.3514C48.6302 98.9904 52.9953 97.2759 57.048 95.5613C60.6264 94.0413 63.9747 92.5242 65.7895 91.9517C68.0104 92.8936 70.4812 93.8355 70.3108 95.6882H70.3079Z" fill="black"/>
</g>
<path id="Vector_298" d="M52.1594 76.2528C52.9578 76.2528 53.605 74.2036 53.605 71.6759C53.605 69.1482 52.9578 67.0991 52.1594 67.0991C51.3611 67.0991 50.7139 69.1482 50.7139 71.6759C50.7139 74.2036 51.3611 76.2528 52.1594 76.2528Z" fill="white"/>
</g>
</g>
</g>
</svg>
