<svg width="16" height="20" viewBox="0 0 16 20" fill="none" xmlns="http://www.w3.org/2000/svg">
<path id="docment_fill" fill-rule="evenodd" clip-rule="evenodd" d="M0 2C0 0.895431 0.895431 0 2 0H14C15.1046 0 16 0.895431 16 2V18C16 19.1046 15.1046 20 14 20H2C0.895431 20 0 19.1046 0 18V2ZM4 7C4 6.44772 4.44772 6 5 6H11C11.5523 6 12 6.44772 12 7C12 7.55228 11.5523 8 11 8H5C4.44772 8 4 7.55228 4 7ZM5 11C4.44772 11 4 11.4477 4 12C4 12.5523 4.44772 13 5 13H8C8.55228 13 9 12.5523 9 12C9 11.4477 8.55228 11 8 11H5Z" fill="#595959"/>
</svg>
