<svg width="21" height="17" viewBox="0 0 21 17" fill="none" xmlns="http://www.w3.org/2000/svg">
<g id="font_size_fill">
<path fill-rule="evenodd" clip-rule="evenodd" d="M2.92845 15.959C2.67494 16.7477 1.83008 17.1815 1.04139 16.928C0.252704 16.6745 -0.181145 15.8297 0.0723611 15.041L4.41936 1.517C4.70993 0.613009 5.55086 0 6.5004 0C7.44994 0 8.29088 0.613011 8.58145 1.517L12.9284 15.041C13.182 15.8297 12.7481 16.6745 11.9594 16.928C11.1707 17.1815 10.3259 16.7477 10.0724 15.959L8.79981 12H4.20099L2.92845 15.959ZM5.16528 8.99998H7.83553L6.5004 4.84626L5.16528 8.99998Z" fill="#595959"/>
<path fill-rule="evenodd" clip-rule="evenodd" d="M18.0731 8.82096C18.3283 8.61992 18.6504 8.49998 19.0005 8.49998C19.8289 8.49998 20.5005 9.17155 20.5005 9.99998V15C20.5005 15.8284 19.8289 16.5 19.0005 16.5C18.6504 16.5 18.3283 16.38 18.0731 16.179C17.5904 16.3856 17.0588 16.5 16.5005 16.5C14.2913 16.5 12.5005 14.7091 12.5005 12.5C12.5005 10.2908 14.2913 8.49998 16.5005 8.49998C17.0588 8.49998 17.5904 8.61436 18.0731 8.82096ZM17.5005 12.5C17.5005 11.9477 17.0528 11.5 16.5005 11.5C15.9482 11.5 15.5005 11.9477 15.5005 12.5C15.5005 13.0523 15.9482 13.5 16.5005 13.5C17.0528 13.5 17.5005 13.0523 17.5005 12.5Z" fill="#595959"/>
</g>
</svg>
