<svg width="162" height="114" viewBox="0 0 162 114" fill="none" xmlns="http://www.w3.org/2000/svg">
<g id="Group 2692">
<g id="freepik--Microscope--inject-7">
<path id="Vector" d="M63.0128 32.4082L70.0852 33.2297L71.208 34.6449L70.6333 39.0547L69.1432 40.189L62.3369 38.9487L63.0128 32.4082Z" fill="#263238"/>
<path id="Vector_2" d="M70.0165 33.1767C69.9983 34.3149 69.8844 35.4496 69.6759 36.5689C69.5604 37.7036 69.354 38.8273 69.0586 39.9293C69.0797 38.7895 69.1936 37.6533 69.3992 36.5318C69.5157 35.399 69.7221 34.2771 70.0165 33.1767Z" fill="#455A64"/>
<path id="Vector_3" d="M67.9727 39.9611C68.0174 38.809 68.1544 37.6622 68.3824 36.5318C68.5143 35.3859 68.7422 34.253 69.0636 33.1449C69.0189 34.297 68.8819 35.4438 68.6538 36.5742C68.5181 37.7195 68.2903 38.8521 67.9727 39.9611Z" fill="#455A64"/>
<path id="Vector_4" d="M56.1963 43.4646C56.1963 43.8674 60.725 50.3073 60.725 50.3073H64.8599L66.4563 49.1518L67.1588 45.1607L62.215 38.7685L56.1963 43.4646Z" fill="#263238"/>
<path id="Vector_5" d="M67.1525 45.1713C66.8509 45.4441 66.5249 45.6889 66.1787 45.9028C65.5667 46.3374 64.7418 46.9628 63.8531 47.6784C62.0757 49.12 60.7347 50.408 60.6602 50.3285C60.8892 49.9896 61.1611 49.6815 61.469 49.4116C62.0012 48.8815 62.7675 48.1713 63.6615 47.4398C64.4232 46.8168 65.223 46.2415 66.0563 45.7172C66.3945 45.4855 66.7634 45.3018 67.1525 45.1713Z" fill="#455A64"/>
<path id="Vector_6" d="M66.6743 44.5353C66.7116 44.6148 65.0299 45.4045 63.2632 46.8409C62.2202 47.7296 61.2371 48.6857 60.3203 49.7031C60.4896 49.3317 60.7178 48.9899 60.9962 48.6907C61.6211 47.9328 62.3218 47.2402 63.0875 46.6236C63.8555 46.0081 64.6805 45.4668 65.5514 45.007C65.9006 44.796 66.2789 44.6371 66.6743 44.5353Z" fill="#455A64"/>
<path id="Vector_7" d="M55.7701 42.871H48.1709V53.1907H55.7701V42.871Z" fill="#263238"/>
<path id="Vector_8" d="M55.8549 52.0299C54.5968 52.1662 53.3306 52.2123 52.0659 52.1677C50.803 52.2122 49.5385 52.1661 48.2822 52.0299C49.5383 51.8905 50.803 51.8445 52.0659 51.8921C53.3306 51.8444 54.597 51.8904 55.8549 52.0299Z" fill="#455A64"/>
<path id="Vector_9" d="M55.9189 51.0971C54.6629 51.2367 53.3981 51.2827 52.1352 51.2349C50.8723 51.2827 49.6076 51.2367 48.3516 51.0971C49.6078 50.9606 50.8723 50.9146 52.1352 50.9593C53.3981 50.9146 54.6626 50.9606 55.9189 51.0971Z" fill="#455A64"/>
<path id="Vector_10" d="M44.4141 39.9717C45.7386 41.9586 47.7088 43.4315 49.9943 44.1431C52.2798 44.8547 54.7415 44.7618 56.9664 43.88C59.1913 42.9982 61.044 41.3811 62.2137 39.3001C63.3835 37.219 63.7991 34.8006 63.3909 32.4506L59.3784 35.0583L44.4141 39.9717Z" fill="#EBEBEB"/>
<path id="Vector_11" d="M25.1504 81.8283H35.3732V71.8637H56.8778C57.551 71.8637 58.1966 71.5973 58.6727 71.1232C59.1487 70.649 59.4162 70.006 59.4162 69.3354C59.4148 68.6653 59.1469 68.0231 58.6711 67.5493C58.1954 67.0754 57.5506 66.8086 56.8778 66.8072H44.3348V63.3885H66.9569C67.6099 63.3871 68.2358 63.1281 68.6976 62.6682C69.1593 62.2083 69.4194 61.5849 69.4208 60.9344C69.4208 60.2836 69.1612 59.6594 68.6991 59.1992C68.2371 58.739 67.6103 58.4804 66.9569 58.4804H29.5514V62.3443H25.3686L25.1504 81.8283Z" fill="#263238"/>
<path id="Vector_12" d="M29.5236 81.8283C29.4438 81.8283 29.3906 76.6022 29.3959 70.1676C29.4012 63.733 29.4704 58.5069 29.5502 58.5069C29.63 58.5069 29.6832 63.733 29.6726 70.1676C29.662 76.6022 29.5981 81.8283 29.5236 81.8283Z" fill="#455A64"/>
<path id="Vector_13" d="M35.3405 58.8196C35.415 58.8196 35.4789 61.7719 35.4789 65.4079C35.4789 69.0439 35.415 71.9962 35.3405 71.9962C35.266 71.9962 35.2021 69.0439 35.2021 65.4079C35.2021 61.7719 35.2607 58.8196 35.3405 58.8196Z" fill="#455A64"/>
<path id="Vector_14" d="M69.4197 101.62C68.7173 99.3061 67.3696 97.239 65.5334 95.6588C63.6972 94.0786 61.4481 93.0504 59.0479 92.6939H25.0429L24.2979 102.208L69.4197 101.62Z" fill="#EBEBEB"/>
<path id="Vector_15" d="M7.17291 79.1569V40.7243C7.16897 40.1198 7.37264 39.5322 7.75013 39.0588C8.12763 38.5855 8.65626 38.2549 9.24833 38.1219L41.2099 29.0636L41.5238 16.4542L60.6337 16.1415L66.546 10.7193L75.8748 21.3199L63.4967 34.7827L25.5537 46.507L24.9258 101.63H69.3292C69.8477 101.632 70.3444 101.838 70.7105 102.203C71.0766 102.569 71.2822 103.064 71.2822 103.581V110.784H7.17291V79.1569Z" fill="#455A64"/>
<path id="Vector_16" d="M63.917 55.1306H46.5313C45.6349 55.1306 44.9082 55.8544 44.9082 56.7472V56.8638C44.9082 57.7566 45.6349 58.4804 46.5313 58.4804H63.917C64.8134 58.4804 65.54 57.7566 65.54 56.8638V56.7472C65.54 55.8544 64.8134 55.1306 63.917 55.1306Z" fill="#E0E0E0"/>
<path id="Vector_17" d="M63.9183 58.4804C64.069 58.4573 64.2183 58.4254 64.3653 58.385C64.5693 58.3208 64.7583 58.2164 64.921 58.078C65.0838 57.9396 65.2169 57.77 65.3125 57.5793C65.4475 57.303 65.5028 56.9947 65.4722 56.6889C65.4599 56.3248 65.3141 55.9779 65.0624 55.7136C64.9227 55.5632 64.7543 55.4421 64.5669 55.3574C64.3796 55.2728 64.1771 55.2263 63.9715 55.2207H62.5134L46.5486 55.2631C46.1932 55.2652 45.8502 55.3934 45.581 55.6245C45.3119 55.8557 45.1342 56.1748 45.0798 56.5246C45.0233 56.8693 45.0753 57.2229 45.2288 57.5369C45.3884 57.8402 45.6476 58.0797 45.9632 58.2154C46.2907 58.3299 46.6395 58.3716 46.9849 58.3373H50.13L57.3142 58.3638L62.1621 58.4115H63.4766C63.6298 58.4082 63.783 58.4188 63.9342 58.4433C63.7826 58.4637 63.6296 58.4726 63.4766 58.4698H62.1621L57.3142 58.5122L50.13 58.544H46.969C46.5852 58.5786 46.1984 58.5298 45.8355 58.4009C45.4641 58.241 45.1596 57.9583 44.9734 57.6005C44.7924 57.2345 44.7292 56.8217 44.7924 56.4186C44.8559 56.0037 45.0661 55.625 45.3852 55.351C45.7043 55.0769 46.1112 54.9254 46.5326 54.9239L62.4974 54.961H63.9608C64.1894 54.9697 64.4138 55.0244 64.6205 55.1219C64.8272 55.2194 65.0119 55.3575 65.1635 55.5281C65.4285 55.8192 65.5796 56.1954 65.5892 56.5882C65.6136 56.9148 65.5454 57.2417 65.3923 57.5316C65.2967 57.7447 65.1558 57.9347 64.9794 58.0884C64.8031 58.2421 64.5953 58.3559 64.3706 58.4221C64.225 58.4706 64.0714 58.4904 63.9183 58.4804Z" fill="#263238"/>
<path id="Vector_18" d="M16.0549 88.6975C21.5244 88.6975 25.9584 84.2813 25.9584 78.8336C25.9584 73.3859 21.5244 68.9697 16.0549 68.9697C10.5853 68.9697 6.15137 73.3859 6.15137 78.8336C6.15137 84.2813 10.5853 88.6975 16.0549 88.6975Z" fill="#263238"/>
<path id="Vector_19" d="M21.5574 79.1516C21.5075 78.7061 21.4328 78.2638 21.3339 77.8265C21.0135 76.6462 20.3053 75.6068 19.3223 74.8743C18.6538 74.3702 17.8752 74.0306 17.05 73.8831C16.103 73.7127 15.1276 73.7969 14.2242 74.1269C13.2259 74.4904 12.3577 75.1395 11.7284 75.9926C11.0539 76.9089 10.6903 78.0155 10.6903 79.1516C10.6903 80.2878 11.0539 81.3943 11.7284 82.3106C12.0423 82.7486 12.425 83.1334 12.8619 83.4502C13.2763 83.7611 13.7356 84.0077 14.2242 84.1816C15.0689 84.4918 15.9782 84.586 16.8689 84.4554C17.7596 84.3248 18.6032 83.9737 19.3223 83.4343C20.3048 82.699 21.0127 81.6581 21.3339 80.4767C21.4333 80.0395 21.5079 79.5971 21.5574 79.1516C21.5903 79.6058 21.5489 80.0622 21.435 80.5032C21.1481 81.7291 20.445 82.8187 19.4447 83.588C18.755 84.1202 17.9492 84.4834 17.0926 84.648C16.1036 84.837 15.0818 84.7583 14.1337 84.4201C13.6216 84.243 13.1404 83.9873 12.7076 83.6622C12.2485 83.3313 11.8444 82.9307 11.5102 82.4749C10.7952 81.5143 10.4092 80.3501 10.4092 79.1543C10.4092 77.9584 10.7952 76.7943 11.5102 75.8336C11.8416 75.3754 12.246 74.9744 12.7076 74.6463C13.1415 74.3216 13.6223 74.0643 14.1337 73.8831C15.0806 73.5479 16.0998 73.4693 17.0872 73.6552C17.9445 73.8179 18.7507 74.1813 19.4394 74.7152C20.4433 75.4799 21.1488 76.5686 21.435 77.7947C21.5495 78.2374 21.5908 78.6957 21.5574 79.1516Z" fill="#455A64"/>
<path id="Vector_20" d="M63.5234 12.1663L74.8797 24.4683L78.8496 20.4241L67.5732 8.44543L63.5234 12.1663Z" fill="#263238"/>
<path id="Vector_21" d="M80.824 1.23699L75.6407 6.16099C75.4717 6.3225 75.3735 6.54397 75.3675 6.77723C75.3615 7.01049 75.4482 7.23667 75.6088 7.40657L80.0151 12.0655C80.0979 12.15 80.1968 12.2171 80.306 12.2629C80.4152 12.3088 80.5325 12.3324 80.651 12.3324C80.7695 12.3324 80.8869 12.3088 80.9961 12.2629C81.1053 12.2171 81.2042 12.15 81.287 12.0655L86.5341 6.90303C86.6172 6.82076 86.6833 6.7229 86.7283 6.61511C86.7734 6.50731 86.7966 6.39171 86.7966 6.27494C86.7966 6.15818 86.7734 6.04257 86.7283 5.93478C86.6833 5.82698 86.6172 5.72913 86.5341 5.64686L82.0639 1.2264C81.8973 1.06563 81.6738 0.976626 81.4418 0.978609C81.2098 0.980593 80.9879 1.0734 80.824 1.23699Z" fill="#263238"/>
<path id="Vector_22" d="M76.0774 7.21045C75.9496 7.39596 70.2715 12.8818 70.2715 12.8818L74.7789 17.4718L80.4943 11.8164L76.0774 7.21045Z" fill="#263238"/>
<path id="Vector_23" d="M77.0086 110.773H0.334961V113.688H77.0086V110.773Z" fill="#263238"/>
<path id="Vector_24" d="M59.0431 84.6321H41.5244V92.6939H59.0431V84.6321Z" fill="#455A64"/>
<path id="Vector_25" d="M43.4241 92.6939C43.2401 90.0469 43.2401 87.3904 43.4241 84.7434C43.6081 87.3904 43.6081 90.0469 43.4241 92.6939Z" fill="#263238"/>
<path id="Vector_26" d="M46.3558 92.6939C46.1718 90.0469 46.1718 87.3904 46.3558 84.7434C46.5398 87.3904 46.5398 90.0469 46.3558 92.6939Z" fill="#263238"/>
<path id="Vector_27" d="M49.2835 92.6939C49.0995 90.0469 49.0995 87.3904 49.2835 84.7434C49.4675 87.3904 49.4675 90.0469 49.2835 92.6939Z" fill="#263238"/>
<path id="Vector_28" d="M52.2151 92.6939C52.0312 90.0469 52.0312 87.3904 52.2151 84.7434C52.3991 87.3904 52.3991 90.0469 52.2151 92.6939Z" fill="#263238"/>
<path id="Vector_29" d="M55.1468 92.6939C54.9628 90.0469 54.9628 87.3904 55.1468 84.7434C55.3308 87.3904 55.3308 90.0469 55.1468 92.6939Z" fill="#263238"/>
<path id="Vector_30" d="M58.0745 92.6939C57.8905 90.0469 57.8905 87.3904 58.0745 84.7434C58.2585 87.3904 58.2585 90.0469 58.0745 92.6939Z" fill="#263238"/>
</g>
<g id="freepik--Samples--inject-7">
<path id="Vector_31" d="M147.467 77.4184L147.818 108.733C147.85 109.577 148.208 110.376 148.818 110.963C149.428 111.55 150.243 111.879 151.091 111.881C151.53 111.882 151.965 111.795 152.369 111.625C152.774 111.456 153.141 111.207 153.447 110.893C153.753 110.58 153.993 110.208 154.152 109.801C154.312 109.393 154.387 108.958 154.374 108.521V77.5032L147.467 77.4184Z" fill="#E0E0E0"/>
<path id="Vector_32" d="M147.467 77.4184H149.266H154.374H154.454V77.5032C154.454 81.0809 154.481 85.8777 154.497 91.4802C154.497 94.2893 154.497 97.3105 154.497 100.459C154.497 102.049 154.497 103.639 154.497 105.309V107.805C154.497 108.224 154.497 108.648 154.465 109.093C154.383 109.667 154.156 110.211 153.807 110.675C153.457 111.138 152.995 111.506 152.464 111.743C151.986 111.954 151.466 112.053 150.944 112.033C150.422 112.012 149.911 111.872 149.452 111.623C148.993 111.375 148.597 111.025 148.295 110.6C147.994 110.175 147.794 109.687 147.712 109.173C147.67 108.848 147.654 108.52 147.664 108.192C147.664 107.869 147.664 107.551 147.664 107.233C147.664 106.597 147.664 105.966 147.664 105.34C147.664 104.09 147.653 102.869 147.632 101.678C147.595 96.9077 147.557 92.6303 147.531 89.0208C147.504 85.4113 147.493 82.5438 147.477 80.5403C147.477 79.5545 147.477 78.7806 147.477 78.24C147.477 77.9909 147.477 77.7948 147.477 77.6516C147.477 77.5085 147.477 77.4502 147.477 77.4555C147.484 77.526 147.484 77.597 147.477 77.6675C147.477 77.8213 147.477 78.0227 147.477 78.2824C147.477 78.8124 147.504 79.6128 147.525 80.6092C147.557 82.6392 147.605 85.5491 147.664 89.1374C147.722 92.7257 147.775 96.9978 147.845 101.736C147.845 102.924 147.861 104.137 147.893 105.378C147.893 105.998 147.893 106.623 147.893 107.254C147.893 107.572 147.893 107.89 147.893 108.208C147.887 108.523 147.903 108.838 147.94 109.151C148.049 109.776 148.343 110.354 148.784 110.811C149.225 111.268 149.793 111.583 150.415 111.717C151.054 111.844 151.717 111.774 152.315 111.515C152.917 111.246 153.419 110.796 153.752 110.227C153.96 109.876 154.095 109.487 154.151 109.082C154.186 108.668 154.196 108.252 154.183 107.837V105.34C154.183 103.687 154.183 102.07 154.183 100.485C154.183 97.3052 154.183 94.3158 154.183 91.5067C154.183 85.9042 154.215 81.1074 154.231 77.5297L154.305 77.6039L149.239 77.5085L147.882 77.4767H147.525L147.467 77.4184Z" fill="#263238"/>
<path id="Vector_33" d="M148.355 93.4731L148.393 108.388C148.422 109.1 148.726 109.774 149.241 110.267C149.757 110.761 150.444 111.038 151.16 111.038C151.531 111.038 151.899 110.965 152.24 110.821C152.582 110.677 152.892 110.467 153.151 110.202C153.41 109.937 153.613 109.623 153.748 109.279C153.883 108.935 153.948 108.567 153.938 108.197L153.826 93.5155L148.355 93.4731Z" fill="#0D4C93"/>
<path id="Vector_34" d="M155.242 75.1764H146.594C145.95 75.1764 145.429 75.6961 145.429 76.3371V80.7311C145.429 81.3722 145.95 81.8919 146.594 81.8919H155.242C155.885 81.8919 156.407 81.3722 156.407 80.7311V76.3371C156.407 75.6961 155.885 75.1764 155.242 75.1764Z" fill="#0D4C93"/>
<path id="Vector_35" d="M146.216 81.8124C146.032 79.6042 146.032 77.3846 146.216 75.1764C146.401 77.3846 146.401 79.6042 146.216 81.8124Z" fill="#263238"/>
<path id="Vector_36" d="M147.759 81.8124C147.575 79.6042 147.575 77.3846 147.759 75.1764C147.944 77.3846 147.944 79.6042 147.759 81.8124Z" fill="#263238"/>
<path id="Vector_37" d="M149.302 81.8124C149.118 79.6042 149.118 77.3846 149.302 75.1764C149.487 77.3846 149.487 79.6042 149.302 81.8124Z" fill="#263238"/>
<path id="Vector_38" d="M150.846 81.8124C150.662 79.6042 150.662 77.3846 150.846 75.1764C151.031 77.3846 151.031 79.6042 150.846 81.8124Z" fill="#263238"/>
<path id="Vector_39" d="M152.394 81.8124C152.21 79.6042 152.21 77.3846 152.394 75.1764C152.579 77.3846 152.579 79.6042 152.394 81.8124Z" fill="#263238"/>
<path id="Vector_40" d="M153.938 81.8124C153.754 79.6042 153.754 77.3846 153.938 75.1764C154.123 77.3846 154.123 79.6042 153.938 81.8124Z" fill="#263238"/>
<path id="Vector_41" d="M155.481 81.8124C155.297 79.6042 155.297 77.3846 155.481 75.1764C155.666 77.3846 155.666 79.6042 155.481 81.8124Z" fill="#263238"/>
<path id="Vector_42" d="M152.97 86.0685H149.324V102.266H152.97V86.0685Z" fill="#FAFAFA"/>
<path id="Vector_43" d="M151.181 100.39C151.075 100.391 150.97 100.37 150.872 100.329C150.774 100.288 150.686 100.227 150.612 100.151C150.539 100.074 150.482 99.9834 150.446 99.8842C150.409 99.785 150.393 99.6793 150.399 99.5738C150.394 99.4572 150.416 99.3412 150.462 99.234C150.508 99.1267 150.577 99.031 150.665 98.9536L150.872 99.1762C150.817 99.222 150.772 99.2795 150.742 99.3446C150.711 99.4097 150.696 99.4808 150.697 99.5526C150.697 99.6805 150.748 99.8032 150.838 99.8936C150.929 99.9841 151.052 100.035 151.181 100.035C151.309 100.035 151.433 99.9841 151.523 99.8936C151.614 99.8032 151.665 99.6805 151.665 99.5526C151.666 99.4801 151.651 99.4084 151.619 99.3431C151.588 99.2778 151.542 99.2207 151.484 99.1762L151.692 98.9536C151.813 99.0645 151.899 99.209 151.938 99.3686C151.977 99.5282 151.967 99.6958 151.91 99.8499C151.853 100.004 151.751 100.138 151.618 100.234C151.484 100.33 151.324 100.384 151.16 100.39H151.181Z" fill="#263238"/>
<path id="Vector_44" d="M151.182 98.8476C151.016 98.8572 150.85 98.8168 150.708 98.7317C150.565 98.6466 150.451 98.5207 150.381 98.3704C150.311 98.2201 150.288 98.0523 150.315 97.8887C150.341 97.7251 150.417 97.5734 150.532 97.4531C150.646 97.3329 150.794 97.2497 150.957 97.2143C151.119 97.179 151.289 97.1931 151.443 97.2548C151.598 97.3166 151.73 97.4231 151.823 97.5607C151.916 97.6982 151.965 97.8603 151.964 98.026C151.97 98.1319 151.954 98.2378 151.917 98.3372C151.88 98.4367 151.824 98.5277 151.751 98.6046C151.677 98.6815 151.589 98.7427 151.491 98.7845C151.394 98.8263 151.288 98.8477 151.182 98.8476ZM151.182 97.5543C151.089 97.5564 150.998 97.5858 150.922 97.6389C150.845 97.692 150.786 97.7664 150.752 97.8527C150.718 97.9391 150.71 98.0336 150.729 98.1244C150.749 98.2152 150.795 98.2983 150.861 98.3632C150.928 98.4281 151.012 98.472 151.104 98.4893C151.195 98.5067 151.29 98.4968 151.376 98.4608C151.462 98.4248 151.535 98.3643 151.587 98.287C151.638 98.2097 151.666 98.1189 151.666 98.026C151.668 97.9628 151.656 97.8999 151.632 97.8412C151.608 97.7826 151.572 97.7295 151.527 97.6853C151.481 97.641 151.427 97.6066 151.368 97.584C151.309 97.5615 151.245 97.5514 151.182 97.5543Z" fill="#263238"/>
<path id="Vector_45" d="M151.937 95.9801L151.517 96.2716V96.5897H151.937V96.9395H150.426V96.2875C150.426 95.8847 150.633 95.6356 150.958 95.6356C151.06 95.6307 151.161 95.6576 151.247 95.7128C151.333 95.7679 151.399 95.8484 151.437 95.943L151.921 95.6091L151.937 95.9801ZM150.708 96.3087V96.5844H151.24V96.3034C151.24 96.0914 151.144 95.9801 150.979 95.9801C150.814 95.9801 150.708 96.0967 150.708 96.3087Z" fill="#263238"/>
<path id="Vector_46" d="M150.426 93.9342L151.937 94.5861V94.9307L150.426 95.5826V95.2063L151.49 94.7452L150.426 94.284V93.9342Z" fill="#263238"/>
<path id="Vector_47" d="M150.426 93.7911V93.4466H151.937V93.7911H150.426Z" fill="#263238"/>
<path id="Vector_48" d="M150.426 93.0861V92.4024C150.414 92.296 150.424 92.1882 150.456 92.0861C150.488 91.9839 150.542 91.8897 150.613 91.8096C150.684 91.7295 150.772 91.6654 150.87 91.6216C150.968 91.5777 151.074 91.555 151.182 91.555C151.289 91.555 151.396 91.5777 151.494 91.6216C151.592 91.6654 151.679 91.7295 151.751 91.8096C151.822 91.8897 151.876 91.9839 151.908 92.0861C151.94 92.1882 151.95 92.296 151.938 92.4024V93.0861H150.426ZM151.65 92.4236C151.65 92.2999 151.601 92.1812 151.513 92.0938C151.425 92.0063 151.306 91.9572 151.182 91.9572C151.058 91.9572 150.939 92.0063 150.851 92.0938C150.763 92.1812 150.714 92.2999 150.714 92.4236V92.7416H151.645L151.65 92.4236Z" fill="#263238"/>
<path id="Vector_49" d="M151.192 91.3741V90.754H151.464V91.3635L151.192 91.3741Z" fill="#263238"/>
<path id="Vector_50" d="M150.426 90.0332H151.937V90.383H150.708V90.6851H150.426V90.0332Z" fill="#263238"/>
<path id="Vector_51" d="M151.149 88.5703C151.255 88.5586 151.362 88.57 151.463 88.6039C151.565 88.6378 151.657 88.6932 151.735 88.7664C151.812 88.8395 151.873 88.9287 151.912 89.0275C151.952 89.1264 151.969 89.2326 151.963 89.3388C151.967 89.4855 151.93 89.6305 151.856 89.7576L151.601 89.6304C151.654 89.5467 151.681 89.4485 151.675 89.3494C151.68 89.2913 151.671 89.2329 151.65 89.1784C151.629 89.124 151.596 89.0748 151.554 89.0343C151.512 88.9939 151.462 88.9631 151.406 88.9443C151.351 88.9255 151.292 88.919 151.234 88.9254C151.281 88.9746 151.318 89.0328 151.341 89.0967C151.365 89.1605 151.376 89.2285 151.372 89.2964C151.38 89.3625 151.373 89.4294 151.353 89.4928C151.333 89.5562 151.3 89.6147 151.256 89.6646C151.212 89.7145 151.157 89.7547 151.097 89.7826C151.036 89.8104 150.971 89.8254 150.904 89.8265C150.832 89.8231 150.762 89.8056 150.698 89.7747C150.634 89.7439 150.576 89.7005 150.529 89.6471C150.482 89.5937 150.446 89.5313 150.424 89.4638C150.401 89.3963 150.392 89.3249 150.398 89.254C150.398 88.83 150.659 88.5703 151.149 88.5703ZM150.883 88.9625C150.83 88.9561 150.777 88.9656 150.73 88.99C150.683 89.0143 150.645 89.0523 150.62 89.0988C150.595 89.1453 150.585 89.1983 150.592 89.2505C150.598 89.3028 150.62 89.352 150.655 89.3916C150.689 89.4311 150.736 89.4592 150.787 89.4721C150.838 89.485 150.892 89.482 150.942 89.4637C150.991 89.4453 151.034 89.4124 151.064 89.3693C151.094 89.3261 151.111 89.2749 151.111 89.2222C151.115 89.1899 151.112 89.1571 151.102 89.1261C151.092 89.095 151.076 89.0663 151.055 89.0419C151.033 89.0174 151.007 88.9977 150.977 88.984C150.947 88.9704 150.915 88.963 150.883 88.9625Z" fill="#263238"/>
<path id="Vector_52" d="M132.934 77.4184L133.285 108.733C133.316 109.577 133.675 110.376 134.285 110.963C134.895 111.55 135.709 111.879 136.558 111.881C136.997 111.882 137.432 111.795 137.836 111.625C138.241 111.456 138.607 111.207 138.914 110.893C139.22 110.58 139.46 110.208 139.619 109.801C139.778 109.393 139.854 108.958 139.841 108.521V77.5032L132.934 77.4184Z" fill="#E0E0E0"/>
<path id="Vector_53" d="M132.934 77.4184H134.732H139.841H139.937V77.5032C139.937 81.0809 139.937 85.8777 139.979 91.4802C139.979 94.2893 139.979 97.3105 139.979 100.459C139.979 102.049 139.979 103.639 139.979 105.309V107.805C139.979 108.224 139.979 108.648 139.947 109.093C139.866 109.667 139.639 110.211 139.289 110.675C138.939 111.138 138.478 111.506 137.947 111.743C137.469 111.954 136.949 112.053 136.427 112.033C135.905 112.012 135.394 111.872 134.935 111.623C134.476 111.375 134.08 111.025 133.778 110.6C133.476 110.175 133.277 109.687 133.194 109.173C133.152 108.848 133.136 108.52 133.146 108.192C133.146 107.869 133.146 107.551 133.146 107.233C133.146 106.597 133.146 105.966 133.146 105.34C133.146 104.09 133.136 102.869 133.115 101.678C133.077 96.9077 133.04 92.6303 133.013 89.0208C132.987 85.4113 132.971 82.5438 132.96 80.5403C132.96 79.5545 132.96 78.7806 132.96 78.24C132.96 77.9909 132.96 77.7948 132.96 77.6516C132.96 77.5085 132.96 77.4502 132.96 77.4555C132.967 77.526 132.967 77.597 132.96 77.6675C132.96 77.8213 132.96 78.0227 132.96 78.2824C132.96 78.8124 132.987 79.6128 133.008 80.6092C133.04 82.6392 133.088 85.5491 133.146 89.1374C133.205 92.7257 133.258 96.9978 133.327 101.736C133.327 102.924 133.343 104.137 133.375 105.378C133.375 105.998 133.375 106.623 133.375 107.254C133.375 107.572 133.375 107.89 133.375 108.208C133.369 108.523 133.385 108.838 133.423 109.151C133.532 109.776 133.826 110.354 134.267 110.811C134.708 111.268 135.276 111.583 135.898 111.717C136.537 111.844 137.2 111.774 137.798 111.515C138.4 111.246 138.902 110.796 139.234 110.227C139.442 109.876 139.578 109.487 139.633 109.082C139.668 108.668 139.679 108.252 139.665 107.837V105.34C139.665 103.687 139.665 102.07 139.665 100.485C139.665 97.3052 139.665 94.3158 139.665 91.5067C139.665 85.9042 139.697 81.1074 139.713 77.5297L139.788 77.6039L134.722 77.5085L133.365 77.4767H133.008L132.934 77.4184Z" fill="#263238"/>
<path id="Vector_54" d="M133.822 93.4731L133.86 108.388C133.888 109.1 134.192 109.774 134.708 110.267C135.224 110.761 135.911 111.038 136.627 111.038C136.998 111.038 137.365 110.965 137.707 110.821C138.049 110.677 138.359 110.467 138.618 110.202C138.877 109.937 139.08 109.623 139.215 109.279C139.35 108.935 139.415 108.567 139.405 108.197L139.293 93.5155L133.822 93.4731Z" fill="#0D4C93"/>
<path id="Vector_55" d="M140.708 75.1764H132.06C131.416 75.1764 130.895 75.6961 130.895 76.3371V80.7311C130.895 81.3722 131.416 81.8919 132.06 81.8919H140.708C141.351 81.8919 141.873 81.3722 141.873 80.7311V76.3371C141.873 75.6961 141.351 75.1764 140.708 75.1764Z" fill="#0D4C93"/>
<path id="Vector_56" d="M131.683 81.8124C131.499 79.6042 131.499 77.3846 131.683 75.1764C131.868 77.3846 131.868 79.6042 131.683 81.8124Z" fill="#263238"/>
<path id="Vector_57" d="M133.226 81.8124C133.042 79.6042 133.042 77.3846 133.226 75.1764C133.411 77.3846 133.411 79.6042 133.226 81.8124Z" fill="#263238"/>
<path id="Vector_58" d="M134.769 81.8124C134.585 79.6042 134.585 77.3846 134.769 75.1764C134.954 77.3846 134.954 79.6042 134.769 81.8124Z" fill="#263238"/>
<path id="Vector_59" d="M136.312 81.8124C136.128 79.6042 136.128 77.3846 136.312 75.1764C136.497 77.3846 136.497 79.6042 136.312 81.8124Z" fill="#263238"/>
<path id="Vector_60" d="M137.861 81.8124C137.677 79.6042 137.677 77.3846 137.861 75.1764C138.046 77.3846 138.046 79.6042 137.861 81.8124Z" fill="#263238"/>
<path id="Vector_61" d="M139.405 81.8124C139.22 79.6042 139.22 77.3846 139.405 75.1764C139.589 77.3846 139.589 79.6042 139.405 81.8124Z" fill="#263238"/>
<path id="Vector_62" d="M140.948 81.8124C140.763 79.6042 140.763 77.3846 140.948 75.1764C141.132 77.3846 141.132 79.6042 140.948 81.8124Z" fill="#263238"/>
<path id="Vector_63" d="M138.436 86.0685H134.791V102.266H138.436V86.0685Z" fill="#FAFAFA"/>
<path id="Vector_64" d="M136.648 100.39C136.542 100.391 136.436 100.37 136.339 100.329C136.241 100.288 136.153 100.227 136.079 100.151C136.006 100.074 135.949 99.9834 135.912 99.8842C135.876 99.785 135.86 99.6793 135.865 99.5738C135.861 99.4572 135.883 99.3412 135.929 99.234C135.975 99.1267 136.044 99.031 136.132 98.9536L136.339 99.1762C136.283 99.222 136.239 99.2795 136.209 99.3446C136.178 99.4097 136.163 99.4808 136.163 99.5526C136.163 99.6805 136.214 99.8032 136.305 99.8936C136.396 99.9841 136.519 100.035 136.648 100.035C136.776 100.035 136.899 99.9841 136.99 99.8936C137.081 99.8032 137.132 99.6805 137.132 99.5526C137.132 99.4803 137.116 99.409 137.084 99.3439C137.053 99.2788 137.008 99.2215 136.951 99.1762L137.159 98.9536C137.28 99.0645 137.366 99.209 137.405 99.3686C137.444 99.5282 137.434 99.6958 137.377 99.8499C137.32 100.004 137.218 100.138 137.084 100.234C136.951 100.33 136.791 100.384 136.626 100.39H136.648Z" fill="#263238"/>
<path id="Vector_65" d="M136.648 98.8476C136.481 98.8572 136.316 98.8168 136.173 98.7317C136.031 98.6466 135.917 98.5207 135.847 98.3704C135.777 98.2201 135.754 98.0523 135.78 97.8887C135.807 97.7251 135.883 97.5734 135.997 97.4531C136.112 97.3329 136.26 97.2497 136.423 97.2143C136.585 97.179 136.755 97.1931 136.909 97.2548C137.063 97.3166 137.196 97.4231 137.289 97.5607C137.381 97.6982 137.431 97.8603 137.43 98.026C137.436 98.1319 137.42 98.2378 137.383 98.3372C137.346 98.4367 137.29 98.5277 137.216 98.6046C137.143 98.6815 137.055 98.7427 136.957 98.7845C136.859 98.8263 136.754 98.8477 136.648 98.8476ZM136.648 97.5543C136.554 97.5564 136.464 97.5858 136.387 97.6389C136.311 97.692 136.252 97.7664 136.218 97.8527C136.183 97.9391 136.176 98.0336 136.195 98.1244C136.214 98.2152 136.26 98.2983 136.327 98.3632C136.394 98.4281 136.478 98.472 136.57 98.4893C136.661 98.5067 136.756 98.4968 136.842 98.4608C136.928 98.4248 137.001 98.3643 137.053 98.287C137.104 98.2097 137.132 98.1189 137.132 98.026C137.133 97.9628 137.122 97.8999 137.098 97.8412C137.074 97.7826 137.038 97.7295 136.993 97.6853C136.947 97.641 136.893 97.6066 136.834 97.584C136.774 97.5615 136.711 97.5514 136.648 97.5543Z" fill="#263238"/>
<path id="Vector_66" d="M137.404 95.9801L136.984 96.2716V96.5897H137.404V96.9395H135.893V96.2875C135.893 95.8847 136.1 95.6356 136.425 95.6356C136.527 95.6307 136.628 95.6576 136.714 95.7128C136.8 95.7679 136.866 95.8484 136.904 95.943L137.388 95.6091L137.404 95.9801ZM136.175 96.3087V96.5844H136.707V96.3034C136.707 96.0914 136.611 95.9801 136.446 95.9801C136.281 95.9801 136.175 96.0967 136.175 96.3087Z" fill="#263238"/>
<path id="Vector_67" d="M135.893 93.9342L137.404 94.5861V94.9307L135.893 95.5826V95.2063L136.957 94.7452L135.893 94.284V93.9342Z" fill="#263238"/>
<path id="Vector_68" d="M135.893 93.7911V93.4466H137.404V93.7911H135.893Z" fill="#263238"/>
<path id="Vector_69" d="M135.892 93.0861V92.4024C135.879 92.296 135.889 92.1882 135.922 92.0861C135.954 91.9839 136.007 91.8897 136.079 91.8096C136.15 91.7295 136.238 91.6654 136.336 91.6216C136.434 91.5777 136.54 91.555 136.648 91.555C136.755 91.555 136.862 91.5777 136.96 91.6216C137.058 91.6654 137.145 91.7295 137.217 91.8096C137.288 91.8897 137.342 91.9839 137.374 92.0861C137.406 92.1882 137.416 92.296 137.403 92.4024V93.0861H135.892ZM137.116 92.4236C137.116 92.2999 137.067 92.1812 136.979 92.0938C136.891 92.0063 136.772 91.9572 136.648 91.9572C136.524 91.9572 136.404 92.0063 136.317 92.0938C136.229 92.1812 136.179 92.2999 136.179 92.4236V92.7416H137.116V92.4236Z" fill="#263238"/>
<path id="Vector_70" d="M136.658 91.3741V90.754H136.93V91.3635L136.658 91.3741Z" fill="#263238"/>
<path id="Vector_71" d="M135.893 90.0332H137.404V90.383H136.175V90.6851H135.893V90.0332Z" fill="#263238"/>
<path id="Vector_72" d="M136.616 88.5703C136.723 88.5586 136.83 88.57 136.931 88.6039C137.032 88.6378 137.125 88.6932 137.203 88.7664C137.28 88.8395 137.341 88.9287 137.38 89.0275C137.419 89.1264 137.437 89.2326 137.431 89.3388C137.435 89.4855 137.398 89.6305 137.324 89.7576L137.069 89.6304C137.122 89.5467 137.148 89.4485 137.143 89.3494C137.147 89.2913 137.139 89.2329 137.118 89.1784C137.097 89.124 137.064 89.0748 137.022 89.0343C136.98 88.9939 136.929 88.9631 136.874 88.9443C136.819 88.9255 136.76 88.919 136.702 88.9254C136.749 88.9746 136.785 89.0328 136.809 89.0967C136.833 89.1605 136.843 89.2285 136.84 89.2964C136.847 89.3625 136.841 89.4294 136.821 89.4928C136.801 89.5562 136.768 89.6147 136.723 89.6646C136.679 89.7145 136.625 89.7547 136.565 89.7826C136.504 89.8104 136.438 89.8254 136.372 89.8265C136.3 89.8231 136.23 89.8056 136.166 89.7747C136.102 89.7439 136.044 89.7005 135.997 89.6471C135.95 89.5937 135.914 89.5313 135.891 89.4638C135.869 89.3963 135.86 89.3249 135.866 89.254C135.866 88.83 136.127 88.5703 136.616 88.5703ZM136.35 88.9625C136.298 88.9561 136.245 88.9656 136.198 88.99C136.151 89.0143 136.113 89.0523 136.088 89.0988C136.063 89.1453 136.053 89.1983 136.059 89.2505C136.066 89.3028 136.088 89.352 136.122 89.3916C136.157 89.4311 136.203 89.4592 136.255 89.4721C136.306 89.485 136.36 89.482 136.409 89.4637C136.459 89.4453 136.502 89.4124 136.532 89.3693C136.562 89.3261 136.579 89.2749 136.579 89.2222C136.583 89.1899 136.58 89.1571 136.57 89.1261C136.56 89.095 136.544 89.0663 136.522 89.0419C136.501 89.0174 136.474 88.9977 136.445 88.984C136.415 88.9704 136.383 88.963 136.35 88.9625Z" fill="#263238"/>
<path id="Vector_73" d="M118.65 77.4184L119.002 108.733C119.033 109.577 119.392 110.376 120.002 110.963C120.612 111.55 121.426 111.879 122.274 111.881C122.714 111.882 123.148 111.795 123.553 111.625C123.958 111.456 124.324 111.207 124.63 110.893C124.937 110.58 125.177 110.208 125.336 109.801C125.495 109.393 125.571 108.958 125.558 108.521V77.5032L118.65 77.4184Z" fill="#E0E0E0"/>
<path id="Vector_74" d="M118.65 77.4184H120.449H125.558H125.638V77.5032C125.638 81.0809 125.664 85.8777 125.68 91.4802C125.68 94.2893 125.68 97.3105 125.68 100.459C125.68 102.049 125.68 103.639 125.68 105.309V107.805C125.693 108.235 125.683 108.665 125.648 109.093C125.566 109.667 125.34 110.211 124.99 110.675C124.64 111.138 124.178 111.506 123.647 111.743C123.17 111.954 122.65 112.053 122.128 112.033C121.605 112.012 121.095 111.872 120.636 111.623C120.177 111.375 119.781 111.025 119.479 110.6C119.177 110.175 118.977 109.687 118.895 109.173C118.856 108.847 118.84 108.52 118.847 108.192C118.847 107.869 118.847 107.551 118.847 107.233C118.847 106.597 118.847 105.966 118.847 105.34C118.847 104.09 118.837 102.869 118.815 101.678C118.778 96.9077 118.741 92.6303 118.714 89.0208C118.688 85.4113 118.677 82.5438 118.661 80.5403C118.661 79.5545 118.661 78.7806 118.661 78.24C118.661 77.9909 118.661 77.7948 118.661 77.6516C118.661 77.5085 118.661 77.4502 118.661 77.4555C118.668 77.526 118.668 77.597 118.661 77.6675C118.661 77.8213 118.661 78.0227 118.661 78.2824C118.661 78.8124 118.688 79.6128 118.709 80.6092C118.741 82.6392 118.789 85.5491 118.847 89.1374C118.906 92.7257 118.959 96.9978 119.028 101.736C119.028 102.924 119.044 104.137 119.076 105.378C119.076 105.998 119.076 106.623 119.076 107.254C119.076 107.572 119.076 107.89 119.076 108.208C119.07 108.523 119.086 108.838 119.124 109.151C119.233 109.776 119.527 110.354 119.967 110.811C120.408 111.268 120.976 111.583 121.599 111.717C122.238 111.844 122.901 111.774 123.498 111.515C124.101 111.246 124.603 110.796 124.935 110.227C125.143 109.876 125.279 109.487 125.334 109.082C125.369 108.668 125.38 108.252 125.366 107.837V105.34C125.366 103.687 125.366 102.07 125.366 100.485C125.366 97.3052 125.366 94.3158 125.366 91.5067C125.366 85.9042 125.403 81.1074 125.414 77.5297L125.489 77.6039L120.422 77.5085L119.065 77.4767H118.709L118.65 77.4184Z" fill="#263238"/>
<path id="Vector_75" d="M119.518 93.4731L119.555 108.388C119.584 109.1 119.888 109.774 120.403 110.267C120.919 110.761 121.607 111.038 122.322 111.038C122.693 111.038 123.061 110.965 123.403 110.821C123.745 110.677 124.054 110.467 124.313 110.202C124.572 109.937 124.775 109.623 124.91 109.279C125.045 108.935 125.11 108.567 125.1 108.197L124.988 93.5155L119.518 93.4731Z" fill="#0D4C93"/>
<path id="Vector_76" d="M126.404 75.1764H117.756C117.113 75.1764 116.591 75.6961 116.591 76.3371V80.7311C116.591 81.3722 117.113 81.8919 117.756 81.8919H126.404C127.048 81.8919 127.569 81.3722 127.569 80.7311V76.3371C127.569 75.6961 127.048 75.1764 126.404 75.1764Z" fill="#0D4C93"/>
<path id="Vector_77" d="M117.378 81.8124C117.193 79.6042 117.193 77.3846 117.378 75.1764C117.562 77.3846 117.562 79.6042 117.378 81.8124Z" fill="#263238"/>
<path id="Vector_78" d="M118.922 81.8124C118.737 79.6042 118.737 77.3846 118.922 75.1764C119.106 77.3846 119.106 79.6042 118.922 81.8124Z" fill="#263238"/>
<path id="Vector_79" d="M120.465 81.8124C120.28 79.6042 120.28 77.3846 120.465 75.1764C120.649 77.3846 120.649 79.6042 120.465 81.8124Z" fill="#263238"/>
<path id="Vector_80" d="M122.008 81.8124C121.824 79.6042 121.824 77.3846 122.008 75.1764C122.193 77.3846 122.193 79.6042 122.008 81.8124Z" fill="#263238"/>
<path id="Vector_81" d="M123.557 81.8124C123.373 79.6042 123.373 77.3846 123.557 75.1764C123.742 77.3846 123.742 79.6042 123.557 81.8124Z" fill="#263238"/>
<path id="Vector_82" d="M125.099 81.8124C124.915 79.6042 124.915 77.3846 125.099 75.1764C125.284 77.3846 125.284 79.6042 125.099 81.8124Z" fill="#263238"/>
<path id="Vector_83" d="M126.633 81.8124C126.448 79.6042 126.448 77.3846 126.633 75.1764C126.817 77.3846 126.817 79.6042 126.633 81.8124Z" fill="#263238"/>
<path id="Vector_84" d="M124.132 86.0685H120.486V102.266H124.132V86.0685Z" fill="#FAFAFA"/>
<path id="Vector_85" d="M122.344 100.39C122.238 100.391 122.133 100.37 122.035 100.329C121.937 100.288 121.849 100.227 121.775 100.151C121.702 100.074 121.645 99.9834 121.609 99.8842C121.572 99.785 121.556 99.6793 121.562 99.5738C121.557 99.4572 121.579 99.3412 121.625 99.234C121.671 99.1267 121.74 99.031 121.828 98.9536L122.035 99.1762C121.98 99.222 121.935 99.2795 121.905 99.3446C121.874 99.4097 121.859 99.4808 121.86 99.5526C121.86 99.6805 121.911 99.8032 122.002 99.8936C122.092 99.9841 122.216 100.035 122.344 100.035C122.472 100.035 122.596 99.9841 122.686 99.8936C122.777 99.8032 122.828 99.6805 122.828 99.5526C122.83 99.4801 122.814 99.4084 122.782 99.3431C122.751 99.2778 122.705 99.2207 122.647 99.1762L122.855 98.9536C122.977 99.0645 123.062 99.209 123.101 99.3686C123.14 99.5282 123.13 99.6958 123.073 99.8499C123.016 100.004 122.914 100.138 122.781 100.234C122.647 100.33 122.488 100.384 122.323 100.39H122.344Z" fill="#263238"/>
<path id="Vector_86" d="M122.344 98.8476C122.178 98.8572 122.013 98.8168 121.87 98.7317C121.727 98.6466 121.613 98.5207 121.543 98.3704C121.473 98.2201 121.45 98.0523 121.477 97.8887C121.504 97.7251 121.579 97.5734 121.694 97.4531C121.808 97.3329 121.956 97.2497 122.119 97.2143C122.281 97.179 122.451 97.1931 122.605 97.2548C122.76 97.3166 122.892 97.4231 122.985 97.5607C123.078 97.6982 123.127 97.8603 123.126 98.026C123.132 98.1319 123.116 98.2378 123.079 98.3372C123.043 98.4367 122.986 98.5277 122.913 98.6046C122.839 98.6815 122.751 98.7427 122.653 98.7845C122.556 98.8263 122.45 98.8477 122.344 98.8476ZM122.344 97.5543C122.251 97.5564 122.16 97.5858 122.084 97.6389C122.007 97.692 121.948 97.7664 121.914 97.8527C121.88 97.9391 121.872 98.0336 121.891 98.1244C121.911 98.2152 121.957 98.2983 122.023 98.3632C122.09 98.4281 122.174 98.472 122.266 98.4893C122.358 98.5067 122.452 98.4968 122.538 98.4608C122.624 98.4248 122.697 98.3643 122.749 98.287C122.801 98.2097 122.828 98.1189 122.828 98.026C122.83 97.9628 122.818 97.8999 122.794 97.8412C122.77 97.7826 122.734 97.7295 122.689 97.6853C122.644 97.641 122.589 97.6066 122.53 97.584C122.471 97.5615 122.407 97.5514 122.344 97.5543Z" fill="#263238"/>
<path id="Vector_87" d="M123.099 95.9801L122.679 96.2716V96.5897H123.099V96.9395H121.588V96.2875C121.588 95.8847 121.795 95.6356 122.12 95.6356C122.222 95.6307 122.323 95.6576 122.409 95.7128C122.495 95.7679 122.561 95.8484 122.599 95.943L123.083 95.6091L123.099 95.9801ZM121.875 96.3087V96.5844H122.407V96.3034C122.407 96.0914 122.306 95.9801 122.141 95.9801C121.976 95.9801 121.875 96.0967 121.875 96.3087Z" fill="#263238"/>
<path id="Vector_88" d="M121.588 93.9342L123.099 94.5861V94.9307L121.588 95.5826V95.2063L122.652 94.7452L121.588 94.284V93.9342Z" fill="#263238"/>
<path id="Vector_89" d="M121.588 93.7911V93.4466H123.099V93.7911H121.588Z" fill="#263238"/>
<path id="Vector_90" d="M121.587 93.0861V92.4024C121.575 92.296 121.585 92.1882 121.617 92.0861C121.649 91.9839 121.703 91.8897 121.774 91.8096C121.845 91.7295 121.933 91.6654 122.031 91.6216C122.129 91.5777 122.236 91.555 122.343 91.555C122.451 91.555 122.557 91.5777 122.655 91.6216C122.753 91.6654 122.841 91.7295 122.912 91.8096C122.983 91.8897 123.037 91.9839 123.069 92.0861C123.101 92.1882 123.111 92.296 123.099 92.4024V93.0861H121.587ZM122.811 92.4236C122.811 92.2999 122.762 92.1812 122.674 92.0938C122.586 92.0063 122.467 91.9572 122.343 91.9572C122.219 91.9572 122.1 92.0063 122.012 92.0938C121.924 92.1812 121.875 92.2999 121.875 92.4236V92.7416H122.811V92.4236Z" fill="#263238"/>
<path id="Vector_91" d="M122.375 91.3741V90.754H122.646V91.3635L122.375 91.3741Z" fill="#263238"/>
<path id="Vector_92" d="M121.588 90.0332H123.099V90.383H121.87V90.6851H121.588V90.0332Z" fill="#263238"/>
<path id="Vector_93" d="M122.312 88.5703C122.418 88.5586 122.525 88.57 122.626 88.6039C122.728 88.6378 122.82 88.6932 122.898 88.7664C122.975 88.8395 123.036 88.9287 123.075 89.0275C123.115 89.1264 123.132 89.2326 123.126 89.3388C123.13 89.4855 123.093 89.6305 123.019 89.7576L122.764 89.6304C122.818 89.5467 122.844 89.4485 122.839 89.3494C122.843 89.2918 122.834 89.2339 122.813 89.1799C122.793 89.1258 122.761 89.0769 122.719 89.0366C122.678 88.9962 122.628 88.9653 122.573 88.9461C122.518 88.9269 122.46 88.9199 122.402 88.9254C122.493 89.0275 122.54 89.1603 122.535 89.2964C122.543 89.3625 122.536 89.4294 122.516 89.4928C122.496 89.5562 122.463 89.6147 122.419 89.6646C122.375 89.7145 122.321 89.7547 122.26 89.7826C122.199 89.8104 122.134 89.8254 122.067 89.8265C121.996 89.8231 121.926 89.8056 121.861 89.7747C121.797 89.7439 121.739 89.7005 121.692 89.6471C121.645 89.5937 121.609 89.5313 121.587 89.4638C121.564 89.3963 121.556 89.3249 121.561 89.254C121.561 88.83 121.843 88.5703 122.312 88.5703ZM122.046 88.9625C121.993 88.9561 121.94 88.9656 121.893 88.99C121.846 89.0143 121.808 89.0523 121.783 89.0988C121.758 89.1453 121.749 89.1983 121.755 89.2505C121.761 89.3028 121.783 89.352 121.818 89.3916C121.853 89.4311 121.899 89.4592 121.95 89.4721C122.001 89.485 122.055 89.482 122.105 89.4637C122.154 89.4453 122.197 89.4124 122.227 89.3693C122.258 89.3261 122.274 89.2749 122.274 89.2222C122.278 89.1899 122.275 89.1571 122.265 89.1261C122.256 89.095 122.239 89.0663 122.218 89.0419C122.196 89.0174 122.17 88.9977 122.14 88.984C122.11 88.9704 122.078 88.963 122.046 88.9625Z" fill="#263238"/>
<path id="Vector_94" d="M104.33 77.4184L104.676 108.733C104.708 109.577 105.066 110.376 105.676 110.963C106.286 111.55 107.101 111.879 107.949 111.881C108.388 111.882 108.823 111.795 109.227 111.625C109.632 111.456 109.998 111.207 110.305 110.893C110.611 110.58 110.851 110.208 111.01 109.801C111.17 109.393 111.245 108.958 111.232 108.521V77.5032L104.33 77.4184Z" fill="#E0E0E0"/>
<path id="Vector_95" d="M104.329 77.4184C104.329 77.4184 104.361 77.4184 104.436 77.4184H106.123H111.237H111.311V77.5032C111.311 81.0809 111.338 85.8777 111.354 91.4802C111.354 94.2893 111.354 97.3105 111.354 100.459C111.354 102.049 111.354 103.639 111.354 105.309V107.805C111.367 108.235 111.356 108.665 111.322 109.093C111.24 109.667 111.014 110.211 110.664 110.675C110.314 111.138 109.852 111.506 109.321 111.743C108.843 111.954 108.323 112.053 107.801 112.033C107.279 112.012 106.769 111.872 106.309 111.623C105.85 111.375 105.454 111.025 105.153 110.6C104.851 110.175 104.651 109.687 104.569 109.173C104.53 108.847 104.514 108.52 104.521 108.192C104.521 107.869 104.521 107.551 104.521 107.233C104.521 106.597 104.521 105.966 104.521 105.34C104.521 104.09 104.51 102.869 104.489 101.678C104.452 96.9077 104.415 92.6303 104.388 89.0208C104.361 85.4113 104.351 82.5438 104.335 80.5403C104.335 79.5545 104.335 78.7806 104.335 78.24C104.335 77.9909 104.335 77.7948 104.335 77.6516C104.326 77.5866 104.326 77.5206 104.335 77.4555C104.335 77.4555 104.335 77.5297 104.335 77.6675C104.335 77.8054 104.335 78.0227 104.335 78.2824C104.335 78.8124 104.361 79.6128 104.383 80.6092C104.415 82.6392 104.462 85.5491 104.521 89.1374C104.58 92.7257 104.633 96.9978 104.702 101.736C104.702 102.924 104.718 104.137 104.75 105.378C104.75 105.998 104.75 106.623 104.75 107.254V108.208C104.739 108.523 104.755 108.839 104.798 109.151C104.901 109.778 105.192 110.358 105.633 110.816C106.073 111.274 106.643 111.588 107.267 111.717C107.906 111.844 108.569 111.774 109.167 111.515C109.769 111.246 110.271 110.796 110.604 110.227C110.812 109.876 110.947 109.487 111.003 109.082C111.038 108.668 111.048 108.252 111.035 107.837V105.34C111.035 103.687 111.035 102.068 111.035 100.485C111.035 97.3052 111.035 94.3158 111.035 91.5067C111.035 85.9042 111.072 81.1074 111.082 77.5297L111.157 77.6039L106.091 77.5085L104.734 77.4767H104.377L104.329 77.4184Z" fill="#263238"/>
<path id="Vector_96" d="M105.213 93.4731L105.25 108.388C105.279 109.1 105.583 109.774 106.099 110.267C106.614 110.761 107.302 111.038 108.017 111.038C108.389 111.038 108.756 110.965 109.098 110.821C109.44 110.677 109.75 110.467 110.008 110.202C110.267 109.937 110.47 109.623 110.606 109.279C110.741 108.935 110.805 108.567 110.795 108.197L110.683 93.5155L105.213 93.4731Z" fill="#0D4C93"/>
<path id="Vector_97" d="M112.099 75.1764H103.452C102.808 75.1764 102.286 75.6961 102.286 76.3371V80.7311C102.286 81.3722 102.808 81.8919 103.452 81.8919H112.099C112.743 81.8919 113.265 81.3722 113.265 80.7311V76.3371C113.265 75.6961 112.743 75.1764 112.099 75.1764Z" fill="#0D4C93"/>
<path id="Vector_98" d="M103.074 81.8124C102.889 79.6042 102.889 77.3846 103.074 75.1764C103.258 77.3846 103.258 79.6042 103.074 81.8124Z" fill="#263238"/>
<path id="Vector_99" d="M104.618 81.8124C104.433 79.6042 104.433 77.3846 104.618 75.1764C104.802 77.3846 104.802 79.6042 104.618 81.8124Z" fill="#263238"/>
<path id="Vector_100" d="M106.16 81.8124C105.975 79.6042 105.975 77.3846 106.16 75.1764C106.344 77.3846 106.344 79.6042 106.16 81.8124Z" fill="#263238"/>
<path id="Vector_101" d="M107.709 81.8124C107.518 79.6045 107.518 77.3843 107.709 75.1764C107.894 77.3846 107.894 79.6042 107.709 81.8124Z" fill="#263238"/>
<path id="Vector_102" d="M109.253 81.8124C109.068 79.6042 109.068 77.3846 109.253 75.1764C109.437 77.3846 109.437 79.6042 109.253 81.8124Z" fill="#263238"/>
<path id="Vector_103" d="M110.796 81.8124C110.611 79.6042 110.611 77.3846 110.796 75.1764C110.98 77.3846 110.98 79.6042 110.796 81.8124Z" fill="#263238"/>
<path id="Vector_104" d="M112.34 81.8124C112.155 79.6042 112.155 77.3846 112.34 75.1764C112.524 77.3846 112.524 79.6042 112.34 81.8124Z" fill="#263238"/>
<path id="Vector_105" d="M109.827 86.0685H106.182V102.266H109.827V86.0685Z" fill="#FAFAFA"/>
<path id="Vector_106" d="M108.038 100.39C107.873 100.384 107.714 100.33 107.58 100.234C107.447 100.138 107.345 100.004 107.288 99.8499C107.231 99.6958 107.221 99.5282 107.26 99.3686C107.299 99.209 107.384 99.0645 107.506 98.9536L107.714 99.1762C107.657 99.2215 107.612 99.2788 107.58 99.3439C107.549 99.409 107.533 99.4803 107.533 99.5526C107.533 99.6805 107.584 99.8032 107.675 99.8936C107.765 99.9841 107.889 100.035 108.017 100.035C108.145 100.035 108.269 99.9841 108.359 99.8936C108.45 99.8032 108.501 99.6805 108.501 99.5526C108.502 99.4801 108.487 99.4084 108.455 99.3431C108.424 99.2778 108.378 99.2207 108.32 99.1762L108.528 98.9536C108.65 99.0645 108.735 99.209 108.774 99.3686C108.813 99.5282 108.803 99.6958 108.746 99.8499C108.689 100.004 108.587 100.138 108.454 100.234C108.32 100.33 108.161 100.384 107.996 100.39H108.038Z" fill="#263238"/>
<path id="Vector_107" d="M108.039 98.8476C107.873 98.8572 107.708 98.8168 107.565 98.7317C107.422 98.6466 107.308 98.5207 107.238 98.3704C107.168 98.2201 107.145 98.0523 107.172 97.8887C107.199 97.7251 107.274 97.5734 107.389 97.4531C107.503 97.3329 107.652 97.2497 107.814 97.2143C107.977 97.179 108.146 97.1931 108.301 97.2548C108.455 97.3166 108.587 97.4231 108.68 97.5607C108.773 97.6982 108.822 97.8603 108.821 98.026C108.827 98.1319 108.811 98.2378 108.775 98.3372C108.738 98.4367 108.681 98.5277 108.608 98.6046C108.535 98.6815 108.447 98.7427 108.349 98.7845C108.251 98.8263 108.146 98.8477 108.039 98.8476ZM108.039 97.5543C107.946 97.5564 107.855 97.5858 107.779 97.6389C107.703 97.692 107.643 97.7664 107.609 97.8527C107.575 97.9391 107.567 98.0336 107.587 98.1244C107.606 98.2152 107.652 98.2983 107.719 98.3632C107.785 98.4281 107.87 98.472 107.961 98.4893C108.053 98.5067 108.148 98.4968 108.233 98.4608C108.319 98.4248 108.393 98.3643 108.444 98.287C108.496 98.2097 108.523 98.1189 108.523 98.026C108.525 97.9628 108.513 97.8999 108.489 97.8412C108.466 97.7826 108.43 97.7295 108.384 97.6853C108.339 97.641 108.285 97.6066 108.225 97.584C108.166 97.5615 108.103 97.5514 108.039 97.5543Z" fill="#263238"/>
<path id="Vector_108" d="M108.795 95.9801L108.374 96.2716V96.5897H108.795V96.9395H107.283V96.2875C107.283 95.8847 107.496 95.6356 107.815 95.6356C107.917 95.6307 108.018 95.6576 108.104 95.7128C108.19 95.7679 108.257 95.8484 108.294 95.943L108.779 95.6091L108.795 95.9801ZM107.571 96.3087V96.5844H108.103V96.3034C108.103 96.0914 108.002 95.9801 107.837 95.9801C107.672 95.9801 107.571 96.0967 107.571 96.3087Z" fill="#263238"/>
<path id="Vector_109" d="M107.283 93.9342L108.795 94.5861V94.9307L107.283 95.5826V95.2063L108.348 94.7452L107.283 94.284V93.9342Z" fill="#263238"/>
<path id="Vector_110" d="M107.283 93.7911V93.4466H108.795V93.7911H107.283Z" fill="#263238"/>
<path id="Vector_111" d="M107.284 93.0861V92.4024C107.271 92.296 107.281 92.1882 107.313 92.0861C107.345 91.9839 107.399 91.8897 107.47 91.8096C107.542 91.7295 107.629 91.6654 107.727 91.6216C107.825 91.5777 107.932 91.555 108.039 91.555C108.147 91.555 108.253 91.5777 108.351 91.6216C108.449 91.6654 108.537 91.7295 108.608 91.8096C108.68 91.8897 108.733 91.9839 108.765 92.0861C108.798 92.1882 108.808 92.296 108.795 92.4024V93.0861H107.284ZM108.508 92.4236C108.508 92.2999 108.458 92.1812 108.37 92.0938C108.283 92.0063 108.164 91.9572 108.039 91.9572C107.915 91.9572 107.796 92.0063 107.708 92.0938C107.62 92.1812 107.571 92.2999 107.571 92.4236V92.7416H108.508V92.4236Z" fill="#263238"/>
<path id="Vector_112" d="M108.055 91.3741V90.754H108.321V91.3635L108.055 91.3741Z" fill="#263238"/>
<path id="Vector_113" d="M107.283 90.0332H108.795V90.383H107.565V90.6851H107.283V90.0332Z" fill="#263238"/>
<path id="Vector_114" d="M108.007 88.5703C108.113 88.5586 108.221 88.57 108.322 88.6039C108.423 88.6378 108.516 88.6932 108.593 88.7664C108.671 88.8395 108.731 88.9287 108.771 89.0275C108.81 89.1264 108.827 89.2326 108.821 89.3388C108.825 89.4848 108.79 89.6291 108.72 89.7576L108.46 89.6304C108.515 89.5472 108.542 89.449 108.539 89.3494C108.544 89.2913 108.535 89.2329 108.514 89.1784C108.493 89.124 108.46 89.0748 108.418 89.0343C108.376 88.9939 108.326 88.9631 108.27 88.9443C108.215 88.9255 108.156 88.919 108.098 88.9254C108.188 89.0275 108.236 89.1603 108.231 89.2964C108.238 89.3625 108.232 89.4294 108.212 89.4928C108.191 89.5562 108.158 89.6147 108.114 89.6646C108.07 89.7145 108.016 89.7547 107.955 89.7826C107.895 89.8104 107.829 89.8254 107.762 89.8265C107.689 89.8267 107.616 89.8117 107.548 89.7825C107.481 89.7532 107.42 89.7103 107.37 89.6565C107.32 89.6027 107.282 89.5392 107.258 89.4699C107.234 89.4006 107.224 89.3271 107.23 89.254C107.257 88.83 107.518 88.5703 108.007 88.5703ZM107.746 88.9625C107.676 88.9625 107.608 88.9904 107.558 89.0401C107.508 89.0898 107.48 89.1572 107.48 89.2275C107.48 89.2978 107.508 89.3652 107.558 89.4149C107.608 89.4646 107.676 89.4925 107.746 89.4925C107.779 89.4929 107.811 89.4862 107.84 89.4731C107.869 89.46 107.896 89.4407 107.917 89.4165C107.938 89.3924 107.954 89.3639 107.963 89.3331C107.972 89.3023 107.975 89.2699 107.97 89.2381C107.976 89.205 107.975 89.171 107.967 89.1384C107.958 89.1057 107.943 89.0753 107.922 89.0491C107.901 89.0229 107.874 89.0016 107.844 88.9867C107.813 88.9717 107.78 88.9635 107.746 88.9625Z" fill="#263238"/>
<path id="Vector_115" d="M90.0254 77.4184L90.3713 108.733C90.4029 109.577 90.7613 110.376 91.3714 110.963C91.9815 111.55 92.7959 111.879 93.6441 111.881C94.0832 111.882 94.518 111.795 94.9227 111.625C95.3274 111.456 95.6938 111.207 96.0001 110.893C96.3063 110.58 96.5462 110.208 96.7055 109.801C96.8649 109.393 96.9403 108.958 96.9275 108.521V77.5032L90.0254 77.4184Z" fill="#E0E0E0"/>
<path id="Vector_116" d="M90.0247 77.4184C90.0247 77.4184 90.0566 77.4184 90.1311 77.4184H91.8181H96.9321H97.0066V77.5032C97.0066 81.0809 97.0332 85.8777 97.0492 91.4802C97.0492 94.2893 97.0492 97.3105 97.0492 100.459C97.0492 102.049 97.0492 103.639 97.0492 105.309V107.805C97.0622 108.235 97.0515 108.665 97.0173 109.093C96.9355 109.667 96.7091 110.211 96.3592 110.675C96.0093 111.138 95.5474 111.506 95.0164 111.743C94.5387 111.954 94.0187 112.053 93.4965 112.033C92.9744 112.012 92.464 111.872 92.0048 111.623C91.5455 111.375 91.1498 111.025 90.848 110.6C90.5462 110.175 90.3464 109.687 90.2642 109.173C90.2248 108.847 90.2088 108.52 90.2163 108.192C90.2163 107.869 90.2163 107.551 90.2163 107.233C90.2163 106.597 90.2163 105.966 90.2163 105.34C90.2163 104.09 90.2056 102.869 90.1843 101.678C90.1471 96.9077 90.1098 92.6303 90.0832 89.0208C90.0566 85.4113 90.046 82.5438 90.03 80.5403C90.03 79.5545 90.03 78.7806 90.03 78.24C90.03 77.9909 90.03 77.7948 90.03 77.6516C90.0212 77.5866 90.0212 77.5206 90.03 77.4555C90.03 77.4555 90.03 77.5297 90.03 77.6675C90.03 77.8054 90.03 78.0227 90.03 78.2824C90.03 78.8124 90.0566 79.6128 90.0779 80.6092C90.1098 82.6392 90.1577 85.5491 90.2163 89.1374C90.2748 92.7257 90.3334 96.9978 90.3972 101.736C90.3972 102.924 90.4132 104.137 90.4451 105.378C90.4451 105.998 90.4451 106.623 90.4451 107.254V108.208C90.4338 108.523 90.4498 108.839 90.493 109.151C90.5959 109.778 90.887 110.358 91.3278 110.816C91.7686 111.274 92.3385 111.588 92.9622 111.717C93.6013 111.844 94.2642 111.774 94.862 111.515C95.4643 111.246 95.9667 110.796 96.2989 110.227C96.5069 109.876 96.6425 109.487 96.698 109.082C96.7329 108.668 96.7436 108.252 96.7299 107.837V105.34C96.7299 103.687 96.7299 102.068 96.7299 100.485C96.7299 97.3052 96.7299 94.3158 96.7299 91.5067C96.7299 85.9042 96.7672 81.1074 96.7778 77.5297L96.8523 77.6039L91.7861 77.5085L90.4291 77.4767H90.0726L90.0247 77.4184Z" fill="#263238"/>
<path id="Vector_117" d="M90.9092 93.4731L90.9464 108.388C90.9753 109.1 91.2793 109.774 91.7951 110.267C92.3108 110.761 92.9982 111.038 93.7137 111.038C94.0848 111.038 94.4522 110.965 94.7942 110.821C95.1362 110.677 95.4458 110.467 95.7047 110.202C95.9637 109.937 96.1667 109.623 96.3019 109.279C96.437 108.935 96.5015 108.567 96.4915 108.197L96.3798 93.5155L90.9092 93.4731Z" fill="#0D4C93"/>
<path id="Vector_118" d="M97.7955 75.1764H89.1479C88.5042 75.1764 87.9824 75.6961 87.9824 76.3371V80.7311C87.9824 81.3722 88.5042 81.8919 89.1479 81.8919H97.7955C98.4391 81.8919 98.9609 81.3722 98.9609 80.7311V76.3371C98.9609 75.6961 98.4391 75.1764 97.7955 75.1764Z" fill="#0D4C93"/>
<path id="Vector_119" d="M88.7692 81.8124C88.5847 79.6042 88.5847 77.3846 88.7692 75.1764C88.9537 77.3846 88.9537 79.6042 88.7692 81.8124Z" fill="#263238"/>
<path id="Vector_120" d="M90.3132 81.8124C90.1287 79.6042 90.1287 77.3846 90.3132 75.1764C90.4977 77.3846 90.4977 79.6042 90.3132 81.8124Z" fill="#263238"/>
<path id="Vector_121" d="M91.8561 81.8124C91.6717 79.6042 91.6717 77.3846 91.8561 75.1764C92.0406 77.3846 92.0406 79.6042 91.8561 81.8124Z" fill="#263238"/>
<path id="Vector_122" d="M93.405 81.8124C93.2205 79.6042 93.2205 77.3846 93.405 75.1764C93.5894 77.3846 93.5894 79.6042 93.405 81.8124Z" fill="#263238"/>
<path id="Vector_123" d="M94.9479 81.8124C94.7634 79.6042 94.7634 77.3846 94.9479 75.1764C95.1324 77.3846 95.1324 79.6042 94.9479 81.8124Z" fill="#263238"/>
<path id="Vector_124" d="M96.4909 81.8124C96.3064 79.6042 96.3064 77.3846 96.4909 75.1764C96.6754 77.3846 96.6754 79.6042 96.4909 81.8124Z" fill="#263238"/>
<path id="Vector_125" d="M98.0339 81.8124C97.8494 79.6042 97.8494 77.3846 98.0339 75.1764C98.2184 77.3846 98.2184 79.6042 98.0339 81.8124Z" fill="#263238"/>
<path id="Vector_126" d="M95.5223 86.0685H91.877V102.266H95.5223V86.0685Z" fill="#FAFAFA"/>
<path id="Vector_127" d="M93.7345 100.39C93.5697 100.384 93.4103 100.33 93.2766 100.234C93.1429 100.138 93.041 100.004 92.9839 99.8499C92.9269 99.6958 92.9171 99.5282 92.956 99.3686C92.9949 99.209 93.0807 99.0645 93.2024 98.9536L93.4099 99.1762C93.3534 99.2215 93.3078 99.2788 93.2765 99.3439C93.2451 99.409 93.2289 99.4803 93.229 99.5526C93.229 99.6805 93.28 99.8032 93.3708 99.8936C93.4616 99.9841 93.5848 100.035 93.7132 100.035C93.8417 100.035 93.9649 99.9841 94.0557 99.8936C94.1465 99.8032 94.1975 99.6805 94.1975 99.5526C94.1982 99.4808 94.1828 99.4097 94.1524 99.3446C94.122 99.2795 94.0774 99.222 94.0219 99.1762L94.2241 98.9536C94.3458 99.0645 94.4315 99.209 94.4704 99.3686C94.5093 99.5282 94.4996 99.6958 94.4425 99.8499C94.3854 100.004 94.2836 100.138 94.1499 100.234C94.0162 100.33 93.8568 100.384 93.692 100.39H93.7345Z" fill="#263238"/>
<path id="Vector_128" d="M93.7345 98.8476C93.5684 98.8572 93.4032 98.8168 93.2604 98.7317C93.1176 98.6466 93.0038 98.5207 92.9337 98.3704C92.8636 98.2201 92.8405 98.0523 92.8673 97.8887C92.8942 97.7251 92.9698 97.5734 93.0843 97.4531C93.1988 97.3329 93.3469 97.2497 93.5095 97.2143C93.672 97.179 93.8415 97.1931 93.996 97.2548C94.1504 97.3166 94.2826 97.4231 94.3755 97.5607C94.4683 97.6982 94.5176 97.8603 94.5168 98.026C94.5226 98.1319 94.5066 98.2378 94.4699 98.3372C94.4332 98.4367 94.3765 98.5277 94.3033 98.6046C94.23 98.6815 94.1418 98.7427 94.044 98.7845C93.9462 98.8263 93.8409 98.8477 93.7345 98.8476ZM93.7345 97.5543C93.6413 97.5564 93.5508 97.5858 93.4743 97.6389C93.3979 97.692 93.3388 97.7664 93.3046 97.8527C93.2704 97.9391 93.2625 98.0336 93.282 98.1244C93.3014 98.2152 93.3473 98.2983 93.414 98.3632C93.4806 98.4281 93.565 98.472 93.6566 98.4893C93.7482 98.5067 93.8428 98.4968 93.9288 98.4608C94.0147 98.4248 94.088 98.3643 94.1396 98.287C94.1912 98.2097 94.2187 98.1189 94.2188 98.026C94.2203 97.9628 94.2087 97.8999 94.1848 97.8412C94.1609 97.7826 94.1251 97.7295 94.0796 97.6853C94.0342 97.641 93.9801 97.6066 93.9208 97.584C93.8614 97.5615 93.798 97.5514 93.7345 97.5543Z" fill="#263238"/>
<path id="Vector_129" d="M94.4898 95.9801L94.0694 96.2716V96.5897H94.4898V96.9395H92.9785V96.2875C92.9785 95.8847 93.1914 95.6356 93.5107 95.6356C93.6127 95.6307 93.7138 95.6576 93.7997 95.7128C93.8856 95.7679 93.952 95.8484 93.9896 95.943L94.4739 95.6091L94.4898 95.9801ZM93.2659 96.3087V96.5844H93.798V96.3034C93.798 96.0914 93.6969 95.9801 93.532 95.9801C93.367 95.9801 93.2659 96.0967 93.2659 96.3087Z" fill="#263238"/>
<path id="Vector_130" d="M92.9785 93.9342L94.4898 94.5861V94.9307L92.9785 95.5826V95.2063L94.0428 94.7452L92.9785 94.284V93.9342Z" fill="#263238"/>
<path id="Vector_131" d="M92.9785 93.7911V93.4466H94.4898V93.7911H92.9785Z" fill="#263238"/>
<path id="Vector_132" d="M92.979 93.0861V92.4024C92.9663 92.296 92.9763 92.1882 93.0085 92.0861C93.0407 91.9839 93.0942 91.8897 93.1656 91.8096C93.237 91.7295 93.3247 91.6654 93.4227 91.6216C93.5208 91.5777 93.6271 91.555 93.7346 91.555C93.8421 91.555 93.9484 91.5777 94.0465 91.6216C94.1446 91.6654 94.2322 91.7295 94.3036 91.8096C94.375 91.8897 94.4286 91.9839 94.4607 92.0861C94.4929 92.1882 94.503 92.296 94.4903 92.4024V93.0861H92.979ZM94.2029 92.4236C94.2029 92.2999 94.1536 92.1812 94.0658 92.0938C93.9779 92.0063 93.8588 91.9572 93.7346 91.9572C93.6104 91.9572 93.4913 92.0063 93.4035 92.0938C93.3157 92.1812 93.2663 92.2999 93.2663 92.4236V92.7416H94.2029V92.4236Z" fill="#263238"/>
<path id="Vector_133" d="M93.751 91.3741V90.754H94.0171V91.3635L93.751 91.3741Z" fill="#263238"/>
<path id="Vector_134" d="M92.9785 90.0332H94.4898V90.383H93.2606V90.6851H92.9785V90.0332Z" fill="#263238"/>
<path id="Vector_135" d="M93.7025 88.5703C93.8086 88.5586 93.9161 88.57 94.0173 88.6039C94.1185 88.6378 94.2111 88.6932 94.2887 88.7664C94.3662 88.8395 94.4267 88.9287 94.4661 89.0275C94.5055 89.1264 94.5228 89.2326 94.5167 89.3388C94.52 89.4848 94.4851 89.6291 94.4156 89.7576L94.1548 89.6304C94.2099 89.5472 94.2378 89.449 94.2346 89.3494C94.2389 89.2913 94.2302 89.2329 94.2093 89.1784C94.1884 89.124 94.1557 89.0748 94.1136 89.0343C94.0714 88.9939 94.0208 88.9631 93.9654 88.9443C93.91 88.9255 93.8511 88.919 93.793 88.9254C93.8835 89.0275 93.9312 89.1603 93.926 89.2964C93.9334 89.3625 93.9269 89.4294 93.9068 89.4928C93.8868 89.5562 93.8537 89.6147 93.8096 89.6646C93.7655 89.7145 93.7114 89.7547 93.6508 89.7826C93.5902 89.8104 93.5244 89.8254 93.4577 89.8265C93.3841 89.8267 93.3112 89.8117 93.2437 89.7825C93.1762 89.7532 93.1155 89.7103 93.0655 89.6565C93.0155 89.6027 92.9772 89.5392 92.9531 89.4699C92.929 89.4006 92.9196 89.3271 92.9255 89.254C92.9521 88.83 93.2129 88.5703 93.7025 88.5703ZM93.4417 88.9625C93.3712 88.9625 93.3035 88.9904 93.2536 89.0401C93.2037 89.0898 93.1756 89.1572 93.1756 89.2275C93.1756 89.2978 93.2037 89.3652 93.2536 89.4149C93.3035 89.4646 93.3712 89.4925 93.4417 89.4925C93.474 89.4929 93.5059 89.4862 93.5353 89.4731C93.5648 89.46 93.591 89.4407 93.6122 89.4165C93.6335 89.3924 93.6492 89.3639 93.6583 89.3331C93.6675 89.3023 93.6698 89.2699 93.6652 89.2381C93.6714 89.205 93.6703 89.171 93.662 89.1384C93.6537 89.1057 93.6384 89.0753 93.6172 89.0491C93.5959 89.0229 93.5692 89.0016 93.539 88.9867C93.5087 88.9717 93.4755 88.9635 93.4417 88.9625Z" fill="#263238"/>
<path id="Vector_136" d="M162 84.9979H81.2607V87.1339H162V84.9979Z" fill="#455A64"/>
<path id="Vector_137" d="M162 111.685H81.2607V113.821H162V111.685Z" fill="#455A64"/>
<path id="Vector_138" d="M86.5985 86.0685H84.1719V112.75H86.5985V86.0685Z" fill="#455A64"/>
<path id="Vector_139" d="M159.573 86.0685H157.146V112.75H159.573V86.0685Z" fill="#455A64"/>
</g>
</g>
</svg>
