<svg width="26" height="26" viewBox="0 0 26 26" fill="none" xmlns="http://www.w3.org/2000/svg">
<g id="magnifier (1) 1">
<g id="Group">
<g id="Group_2">
<path id="Vector" d="M4.72934 17.9273C1.09066 14.2885 1.09074 8.36781 4.72934 4.72906C8.36809 1.09031 14.2887 1.09031 17.9274 4.72906C21.0144 7.81605 21.4819 12.4072 19.3312 15.9924C19.3312 15.9924 19.1768 16.2515 19.3854 16.46C20.5757 17.6503 24.1468 21.2214 24.1468 21.2214C25.0945 22.1691 25.3201 23.4942 24.4797 24.3348L24.335 24.4793C23.4946 25.3199 22.1694 25.0944 21.2217 24.1467C21.2217 24.1467 17.6582 20.5831 16.4703 19.3953C16.2517 19.1766 15.9926 19.3311 15.9926 19.3311C12.4075 21.4817 7.81632 21.0143 4.72934 17.9273ZM16.2045 16.2043C18.8931 13.5156 18.8931 9.14089 16.2044 6.45223C13.5157 3.76364 9.14102 3.76357 6.45243 6.45223C3.76377 9.14082 3.76377 13.5156 6.45243 16.2043C9.1411 18.8928 13.5157 18.8928 16.2045 16.2043Z" fill="#0D4C93"/>
<g id="Group_3">
<path id="Vector_2" d="M15.6087 10.7745C15.7339 10.7745 15.8611 10.7499 15.9837 10.6981C16.4735 10.4908 16.7027 9.92564 16.4954 9.43574C15.1924 6.35654 11.6273 4.91151 8.54816 6.2145C8.05834 6.42181 7.82917 6.98699 8.03648 7.47689C8.24387 7.96679 8.80889 8.19581 9.29894 7.98857C11.3998 7.09961 13.8324 8.08556 14.7212 10.1864C14.8768 10.5538 15.2334 10.7745 15.6087 10.7745Z" fill="#0D4C93"/>
</g>
</g>
</g>
</g>
</svg>
