<svg width="25" height="25" viewBox="0 0 25 25" fill="none" xmlns="http://www.w3.org/2000/svg">
<g id="maps-and-flags 1">
<g id="Group">
<g id="Group_2">
<path id="Vector" d="M12.5 0C7.50757 0 3.44595 4.06162 3.44595 9.054C3.44595 15.2497 11.5484 24.3454 11.8934 24.7295C12.2174 25.0904 12.7832 25.0898 13.1066 24.7295C13.4516 24.3454 21.554 15.2497 21.554 9.054C21.554 4.06162 17.4924 0 12.5 0ZM12.5 13.6093C9.98818 13.6093 7.94472 11.5658 7.94472 9.054C7.94472 6.54219 9.98823 4.49873 12.5 4.49873C15.0118 4.49873 17.0552 6.54224 17.0552 9.05405C17.0552 11.5659 15.0118 13.6093 12.5 13.6093Z" fill="#0D4C93"/>
</g>
</g>
</g>
</svg>
