<svg width="22" height="22" viewBox="0 0 22 22" fill="none" xmlns="http://www.w3.org/2000/svg">
<g id="phone-call (1) 1" clip-path="url(#clip0_502_117)">
<g id="Page-1">
<g id="003---Call">
<path id="Shape" d="M9.10989 12.8901C7.01002 10.7902 6.53589 8.69037 6.42892 7.84906C6.39903 7.61643 6.47908 7.38315 6.64551 7.21789L8.34482 5.51933C8.59479 5.26952 8.63915 4.88019 8.45178 4.58054L5.74616 0.3793C5.53888 0.0474982 5.11326 -0.0722526 4.76337 0.102783L0.419887 2.1484C0.136944 2.28773 -0.0294791 2.58835 0.00264593 2.90209C0.230232 5.06416 1.17282 10.3791 6.39592 15.6025C11.619 20.826 16.9332 21.7682 19.0964 21.9958C19.4101 22.0279 19.7107 21.8615 19.8501 21.5786L21.8957 17.2351C22.0701 16.886 21.9511 16.4615 21.6207 16.2538L17.4194 13.549C17.12 13.3614 16.7306 13.4054 16.4806 13.6552L14.7821 15.3545C14.6168 15.5209 14.3835 15.6009 14.1509 15.5711C13.3096 15.4641 11.2097 14.99 9.10989 12.8901Z" fill="#0D4C93"/>
<path id="Shape_2" d="M17.4483 11.7586C17.0293 11.7586 16.6896 11.419 16.6896 11C16.6861 7.85915 14.1408 5.31388 11 5.31033C10.581 5.31033 10.2414 4.97069 10.2414 4.55171C10.2414 4.13274 10.581 3.79309 11 3.79309C14.9784 3.79748 18.2025 7.02155 18.2069 11C18.2069 11.419 17.8672 11.7586 17.4483 11.7586Z" fill="#0D4C93"/>
<path id="Shape_3" d="M21.2414 11.7586C20.8224 11.7586 20.4827 11.419 20.4827 11C20.4769 5.76524 16.2347 1.52309 11 1.51724C10.581 1.51724 10.2414 1.1776 10.2414 0.758621C10.2414 0.339646 10.581 0 11 0C17.0723 0.00668947 21.9933 4.92764 22 11C22 11.2012 21.9201 11.3942 21.7778 11.5364C21.6355 11.6787 21.4426 11.7586 21.2414 11.7586Z" fill="#0D4C93"/>
</g>
</g>
</g>
<defs>
<clipPath id="clip0_502_117">
<rect width="22" height="22" fill="white"/>
</clipPath>
</defs>
</svg>
