<svg width="234" height="234" viewBox="0 0 234 234" fill="none" xmlns="http://www.w3.org/2000/svg">
<g id="Police car-rafiki 1">
<g id="freepik--background-complete--inject-2">
<path id="Vector" d="M210.553 186.493H195.053V186.61H210.553V186.493Z" fill="#EBEBEB"/>
<path id="Vector_2" d="M155.011 187.766H150.944V187.883H155.011V187.766Z" fill="#EBEBEB"/>
<path id="Vector_3" d="M194.585 182.15H185.604V182.267H194.585V182.15Z" fill="#EBEBEB"/>
<path id="Vector_4" d="M44.7647 182.937H24.5518V183.054H44.7647V182.937Z" fill="#EBEBEB"/>
<path id="Vector_5" d="M51.896 182.937H48.9336V183.054H51.896V182.937Z" fill="#EBEBEB"/>
<path id="Vector_6" d="M105.371 184.911H61.5283V185.028H105.371V184.911Z" fill="#EBEBEB"/>
<path id="Vector_7" d="M111.571 158.09H21.2006C20.4919 158.09 19.8122 157.809 19.311 157.308C18.8099 156.807 18.5283 156.127 18.5283 155.418V28.3889C18.5345 27.6842 18.8188 27.0105 19.3192 26.5144C19.8197 26.0183 20.4959 25.74 21.2006 25.74H111.571C111.922 25.74 112.27 25.8091 112.594 25.9434C112.918 26.0777 113.213 26.2746 113.461 26.5227C113.709 26.7708 113.906 27.0654 114.04 27.3896C114.175 27.7139 114.244 28.0614 114.244 28.4123V155.418C114.244 155.769 114.175 156.117 114.04 156.441C113.906 156.765 113.709 157.06 113.461 157.308C113.213 157.556 112.918 157.753 112.594 157.887C112.27 158.021 111.922 158.09 111.571 158.09ZM21.2006 25.8336C20.5233 25.8348 19.8741 26.1045 19.3951 26.5834C18.9162 27.0623 18.6466 27.7116 18.6453 28.3889V155.418C18.6466 156.095 18.9162 156.745 19.3951 157.224C19.8741 157.703 20.5233 157.972 21.2006 157.973H111.571C112.249 157.972 112.898 157.703 113.377 157.224C113.856 156.745 114.125 156.095 114.127 155.418V28.3889C114.125 27.7116 113.856 27.0623 113.377 26.5834C112.898 26.1045 112.249 25.8348 111.571 25.8336H21.2006Z" fill="#EBEBEB"/>
<path id="Vector_8" d="M212.8 158.09H122.429C121.72 158.09 121.041 157.809 120.54 157.308C120.038 156.807 119.757 156.127 119.757 155.418V28.3889C119.763 27.6842 120.047 27.0105 120.548 26.5144C121.048 26.0183 121.724 25.74 122.429 25.74H212.8C213.509 25.74 214.188 26.0215 214.689 26.5227C215.191 27.0238 215.472 27.7036 215.472 28.4123V155.418C215.472 156.127 215.191 156.807 214.689 157.308C214.188 157.809 213.509 158.09 212.8 158.09ZM122.429 25.8336C121.752 25.8348 121.103 26.1045 120.624 26.5834C120.145 27.0623 119.875 27.7116 119.874 28.3889V155.418C119.875 156.095 120.145 156.745 120.624 157.224C121.103 157.703 121.752 157.972 122.429 157.973H212.8C213.477 157.972 214.126 157.703 214.605 157.224C215.084 156.745 215.354 156.095 215.355 155.418V28.3889C215.354 27.7116 215.084 27.0623 214.605 26.5834C214.126 26.1045 213.477 25.8348 212.8 25.8336H122.429Z" fill="#EBEBEB"/>
<path id="Vector_9" d="M234 178.963H0V179.08H234V178.963Z" fill="#EBEBEB"/>
<path id="Vector_10" d="M90.9091 153.195C90.9091 153.195 95.4675 146.063 95.6827 148.581C95.6827 148.581 99.2629 145.459 99.5531 148.262C99.5531 148.262 102.689 145.726 102.502 148.393C102.502 148.393 105.033 147.214 104.299 150.022C104.299 150.022 108.618 151 105.951 152.077C105.951 152.077 109.999 153.481 107.261 155.128C107.261 155.128 109.086 158.001 107.13 158.404C107.13 158.404 107.186 161.961 104.982 162.115C104.982 162.115 106.058 166.056 104.313 165.522C104.313 165.522 105.155 169.205 101.626 168.092C101.626 168.092 100.255 169.964 97.7934 167.9C97.7934 167.9 98.0087 171.55 95.1913 168.265C95.1913 168.265 91.7328 169.627 92.0885 166.304C92.0885 166.304 90.1837 168.705 89.4303 165.925C89.4303 165.925 86.8376 170.783 85.354 164.619C85.354 164.619 82.298 165.738 83.95 161.975C83.95 161.975 80.3324 161.745 82.9344 160.061C82.9344 160.061 79.6163 158.39 84.3384 157.721C84.3384 157.721 81.9469 155.788 85.9717 155.105C85.9717 155.076 85.4429 153.921 90.9091 153.195Z" fill="#EBEBEB"/>
<path id="Vector_11" d="M91.5875 179.066H94.9899L94.3347 173.394L94.2832 168.152L97.4984 163.851L102.029 160.201L105.286 160.014L105.342 159.649L102.361 159.583L103.489 157.791L103.152 157.548L101.579 159.532L97.6154 162.658L98.6028 157.056L101.055 152.531L100.681 152.156L98.1676 156.382L94.2832 152.98L94.0024 153.298L97.9289 157.234L96.5998 163.243L93.731 166.734L92.823 163.107L92.4299 159.476L93.7497 158.217L93.6093 157.842L92.0368 159.003L90.1274 156.724L89.9589 157.098L91.508 159.363L91.7186 162.756L87.4317 160.351L87.207 160.674L91.8449 163.851L92.6546 167.464L92.9915 170.441L92.823 171.541L92.4861 173.787L91.5875 179.066Z" fill="#E0E0E0"/>
<path id="Vector_12" d="M66.7186 123.393C66.7186 123.393 45.7194 130.661 49.674 124.797C49.674 124.797 31.5811 129.215 35.8867 122.597C35.8867 122.597 26.5267 121.441 31.4922 115.984C31.4922 115.984 25.6562 111.464 31.9087 106.69C31.9087 106.69 29.3534 96.1693 36.2798 98.6497C36.2798 98.6497 33.893 91.2226 41.966 92.5657C41.966 92.5657 44.0206 84.9467 48.4057 87.6236C48.4057 87.6236 51.0546 74.9876 55.5006 78.6287C55.5006 78.6287 60.2882 68.1221 62.6704 72.437C62.6704 72.437 67.4533 62.9086 72.2129 71.707C72.2129 71.707 78.0442 70.1158 79.144 79.0452C79.144 79.0452 85.9674 73.9206 84.6991 82.9577C84.6991 82.9577 93.8906 88.7562 91.1294 91.7654C91.1294 91.7654 100.625 91.2366 97.2368 98.6357C97.2368 98.6357 106.307 99.9227 100.045 111.07C100.045 111.07 107.205 116.686 101.762 119.672C101.762 119.672 104.795 125.485 96.9373 124.451C96.9373 124.451 98.1822 130.488 88.0453 123.444C88.0453 123.444 90.8533 132.776 82.0736 126.982C82.069 126.959 78.3343 131.705 66.7186 123.393Z" fill="#F0F0F0"/>
<path id="Vector_13" d="M65.2771 142.37C65.2771 142.37 81.2406 150.069 78.6478 145.057C78.6478 145.057 92.5755 150.205 89.7722 144.589C89.7722 144.589 97.3023 144.542 93.8672 139.759C93.8672 139.759 98.9076 136.717 94.3914 132.36C94.3914 132.36 97.3912 124.259 91.677 125.583C91.677 125.583 94.251 119.92 87.7364 120.225C87.7364 120.225 86.8004 114 83.0892 115.713C83.0892 115.713 82.1532 105.454 78.3015 107.935C78.3015 107.935 75.4935 99.1645 73.191 102.366C73.191 102.366 70.2847 94.3769 65.703 100.906C65.703 100.906 61.2289 99.1084 59.5347 106.082C59.5347 106.082 54.6067 101.402 54.7752 108.665C54.7752 108.665 46.9596 112.409 48.8643 115.048C48.8643 115.048 41.3763 113.752 43.3934 119.925C43.3934 119.925 36.0879 120.108 40.0285 129.519C40.0285 129.519 33.8368 133.314 37.871 136.174C37.871 136.174 34.9366 140.498 41.25 140.386C41.25 140.386 39.7102 145.066 48.387 140.409C48.387 140.409 45.2794 147.542 52.7908 143.765C52.7862 143.779 55.304 147.888 65.2771 142.37Z" fill="#F0F0F0"/>
<path id="Vector_14" d="M56.5105 179.188H66.4509L62.5758 160.767L64.3776 143.737L73.7704 129.767L86.9914 123.023L96.5011 122.415L96.6649 121.217L87.9742 121.011L91.2549 115.189L90.2674 114.389L85.6856 120.852L74.1073 125.897L71.7533 107.701L81.8527 92.9916L80.7623 91.7748L70.485 105.511L59.1313 94.4518L58.3123 95.4814L69.7877 108.267L71.1402 127.787L62.7677 139.132L57.1657 129.182L57.0019 115.554L60.8629 111.473L60.4464 110.256L55.8553 114.024L51.5918 110.256L51.1005 111.473L54.3203 115.189L53.9459 128.04L41.4316 123.145L40.7764 124.193L54.3203 131.588L59.6227 141.509L58.6399 151.183L51.1005 145.464L50.4452 147.003L58.1485 154.749L57.1657 162.045L56.5105 179.188Z" fill="#E0E0E0"/>
<path id="Vector_15" d="M181.654 80.7674H155.629V178.725H181.654V80.7674Z" fill="#F5F5F5"/>
<path id="Vector_16" d="M157.506 73.2373H134.068V178.725H157.506V73.2373Z" fill="#F0F0F0"/>
<path id="Vector_17" d="M138.186 124.245H114.749V178.725H138.186V124.245Z" fill="#F5F5F5"/>
<path id="Vector_18" d="M203.758 110.598H177.732V178.725H203.758V110.598Z" fill="#F0F0F0"/>
<path id="Vector_19" d="M140.583 83.5942H138.187V86.0137H140.583V83.5942Z" fill="white"/>
<path id="Vector_20" d="M153.382 83.5942H150.986V86.0137H153.382V83.5942Z" fill="white"/>
<path id="Vector_21" d="M140.583 91.4332H138.187V93.8527H140.583V91.4332Z" fill="white"/>
<path id="Vector_22" d="M146.985 91.4332H144.589V93.8527H146.985V91.4332Z" fill="white"/>
<path id="Vector_23" d="M153.382 99.2675H150.986V101.687H153.382V99.2675Z" fill="white"/>
<path id="Vector_24" d="M140.583 107.106H138.187V109.526H140.583V107.106Z" fill="white"/>
<path id="Vector_25" d="M146.985 107.106H144.589V109.526H146.985V107.106Z" fill="white"/>
<path id="Vector_26" d="M146.985 114.941H144.589V117.36H146.985V114.941Z" fill="white"/>
<path id="Vector_27" d="M153.382 114.941H150.986V117.36H153.382V114.941Z" fill="white"/>
<path id="Vector_28" d="M146.985 122.78H144.589V125.199H146.985V122.78Z" fill="white"/>
<path id="Vector_29" d="M153.382 122.78H150.986V125.199H153.382V122.78Z" fill="white"/>
<path id="Vector_30" d="M153.382 130.614H150.986V133.034H153.382V130.614Z" fill="white"/>
<path id="Vector_31" d="M146.985 138.453H144.589V140.873H146.985V138.453Z" fill="white"/>
<path id="Vector_32" d="M173.843 145.997H176.239V143.578H173.843V145.997Z" fill="white"/>
<path id="Vector_33" d="M161.043 145.997H163.439V143.578H161.043V145.997Z" fill="white"/>
<path id="Vector_34" d="M173.843 138.158H176.239V135.739H173.843V138.158Z" fill="white"/>
<path id="Vector_35" d="M167.441 138.158H169.837V135.739H167.441V138.158Z" fill="white"/>
<path id="Vector_36" d="M161.043 130.324H163.439V127.904H161.043V130.324Z" fill="white"/>
<path id="Vector_37" d="M173.843 122.485H176.239V120.065H173.843V122.485Z" fill="white"/>
<path id="Vector_38" d="M167.441 122.485H169.837V120.065H167.441V122.485Z" fill="white"/>
<path id="Vector_39" d="M167.441 114.651H169.837V112.231H167.441V114.651Z" fill="white"/>
<path id="Vector_40" d="M161.043 114.651H163.439V112.231H161.043V114.651Z" fill="white"/>
<path id="Vector_41" d="M167.441 106.812H169.837V104.392H167.441V106.812Z" fill="white"/>
<path id="Vector_42" d="M161.043 106.812H163.439V104.392H161.043V106.812Z" fill="white"/>
<path id="Vector_43" d="M161.043 98.9773H163.439V96.5578H161.043V98.9773Z" fill="white"/>
<path id="Vector_44" d="M167.441 91.1383H169.837V88.7188H167.441V91.1383Z" fill="white"/>
<path id="Vector_45" d="M195.951 117.36H198.348V114.941H195.951V117.36Z" fill="white"/>
<path id="Vector_46" d="M183.147 117.36H185.543V114.941H183.147V117.36Z" fill="white"/>
<path id="Vector_47" d="M195.951 125.195H198.348V122.775H195.951V125.195Z" fill="white"/>
<path id="Vector_48" d="M189.549 125.195H191.945V122.775H189.549V125.195Z" fill="white"/>
<path id="Vector_49" d="M183.147 133.034H185.543V130.614H183.147V133.034Z" fill="white"/>
<path id="Vector_50" d="M195.951 140.868H198.348V138.448H195.951V140.868Z" fill="white"/>
<path id="Vector_51" d="M189.549 140.868H191.945V138.448H189.549V140.868Z" fill="white"/>
<path id="Vector_52" d="M189.549 148.707H191.945V146.287H189.549V148.707Z" fill="white"/>
<path id="Vector_53" d="M183.147 148.707H185.543V146.287H183.147V148.707Z" fill="white"/>
<path id="Vector_54" d="M189.549 156.546H191.945V154.126H189.549V156.546Z" fill="white"/>
<path id="Vector_55" d="M183.147 156.546H185.543V154.126H183.147V156.546Z" fill="white"/>
<path id="Vector_56" d="M183.147 164.38H185.543V161.961H183.147V164.38Z" fill="white"/>
<path id="Vector_57" d="M189.549 172.219H191.945V169.8H189.549V172.219Z" fill="white"/>
<path id="Vector_58" d="M186.138 71.1032C181.303 73.5181 168.223 74.9315 164.947 67.6354C161.072 59.0008 170.31 66.2314 170.31 66.2314C170.31 66.2314 170.31 60.5358 173.389 60.5358C177.601 60.5358 177.241 65.7446 177.241 65.7446C177.637 65.0316 178.24 64.4553 178.97 64.0919C179.7 63.7284 180.524 63.5949 181.331 63.7089C184.284 64.0271 182.562 67.8694 182.562 67.8694C182.562 67.8694 190.008 69.1798 186.138 71.1032Z" fill="#F5F5F5"/>
<path id="Vector_59" d="M164.849 54.6811C155.489 57.9056 129.795 58.631 127.778 45.1667C125.382 29.1892 139.3 39.4243 139.3 39.4243C139.3 39.4243 139.422 31.9363 145.852 31.2062C152.283 30.4762 152.194 38.9563 152.194 38.9563C152.194 38.9563 163.739 31.8895 162.64 45.4802C162.644 45.4802 180.648 49.2196 164.849 54.6811Z" fill="#F5F5F5"/>
<path id="Vector_60" d="M85.3074 59.0288C76.9443 61.9164 53.9514 62.5669 52.1262 50.5159C49.9828 36.2138 62.4222 45.3679 62.4222 45.3679C62.4222 45.3679 62.5299 38.6755 68.2909 38.0156C74.052 37.3558 73.9678 44.9514 73.9678 44.9514C73.9678 44.9514 84.3012 38.6287 83.3278 50.792C83.3325 50.7967 99.4551 54.1429 85.3074 59.0288Z" fill="#F5F5F5"/>
<path id="Vector_61" d="M53.0244 66.924C49.0136 68.9224 38.1654 70.097 35.4463 64.0458C32.2311 56.8807 39.8923 62.8945 39.8923 62.8945C39.8923 62.8945 39.8923 58.1677 42.4523 58.1677C45.9342 58.1677 45.644 62.492 45.644 62.492C45.9724 61.9004 46.4725 61.4222 47.0782 61.1206C47.684 60.8189 48.367 60.7081 49.037 60.8026C51.4847 61.0646 50.0573 64.2517 50.0573 64.2517C50.0573 64.2517 56.2208 65.3188 53.0244 66.924Z" fill="#F5F5F5"/>
<path id="Vector_62" d="M205.321 58.3409C202.311 59.8432 194.163 60.723 192.123 56.1787C189.708 50.8014 195.465 55.3176 195.465 55.3176C195.465 55.3176 195.465 51.7702 197.383 51.7702C199.999 51.7702 199.78 55.0134 199.78 55.0134C200.027 54.5692 200.403 54.2103 200.858 53.9839C201.313 53.7575 201.827 53.6743 202.33 53.7451C204.165 53.9417 203.093 56.3378 203.093 56.3378C203.093 56.3378 207.721 57.1428 205.321 58.3409Z" fill="#F5F5F5"/>
</g>
<g id="freepik--Shadow--inject-2">
<path id="freepik--path--inject-2" d="M117 199.841C167.115 199.841 207.741 197.469 207.741 194.543C207.741 191.617 167.115 189.245 117 189.245C66.8857 189.245 26.2598 191.617 26.2598 194.543C26.2598 197.469 66.8857 199.841 117 199.841Z" fill="#F5F5F5"/>
</g>
<g id="freepik--Car--inject-2">
<path id="Vector_63" d="M58.8088 174.438H54.9385C52.4494 174.438 50.4316 176.455 50.4316 178.944V187.869C50.4316 190.358 52.4494 192.376 54.9385 192.376H58.8088C61.2979 192.376 63.3157 190.358 63.3157 187.869V178.944C63.3157 176.455 61.2979 174.438 58.8088 174.438Z" fill="#263238"/>
<path id="Vector_64" opacity="0.8" d="M58.8088 174.438H54.9385C52.4494 174.438 50.4316 176.455 50.4316 178.944V187.869C50.4316 190.358 52.4494 192.376 54.9385 192.376H58.8088C61.2979 192.376 63.3157 190.358 63.3157 187.869V178.944C63.3157 176.455 61.2979 174.438 58.8088 174.438Z" fill="black"/>
<path id="Vector_65" d="M135.257 174.438H131.387C128.898 174.438 126.88 176.455 126.88 178.944V187.869C126.88 190.358 128.898 192.376 131.387 192.376H135.257C137.746 192.376 139.764 190.358 139.764 187.869V178.944C139.764 176.455 137.746 174.438 135.257 174.438Z" fill="#263238"/>
<path id="Vector_66" opacity="0.8" d="M135.257 174.438H131.387C128.898 174.438 126.88 176.455 126.88 178.944V187.869C126.88 190.358 128.898 192.376 131.387 192.376H135.257C137.746 192.376 139.764 190.358 139.764 187.869V178.944C139.764 176.455 137.746 174.438 135.257 174.438Z" fill="black"/>
<path id="Vector_67" d="M70.1951 106.737H68.4541L70.1483 103.058H73.326L70.1951 106.737Z" fill="#263238"/>
<path id="Vector_68" d="M119.649 106.737H121.39L119.696 103.058H116.522L119.649 106.737Z" fill="#263238"/>
<path id="Vector_69" d="M138.893 174.906H135.022C132.533 174.906 130.516 176.923 130.516 179.412V188.337C130.516 190.826 132.533 192.844 135.022 192.844H138.893C141.382 192.844 143.4 190.826 143.4 188.337V179.412C143.4 176.923 141.382 174.906 138.893 174.906Z" fill="#263238"/>
<g id="Group" opacity="0.5">
<path id="Vector_70" d="M136.955 191.295C136.765 191.295 136.583 191.22 136.449 191.085C136.315 190.951 136.239 190.769 136.239 190.579V187.467C136.239 187.372 136.257 187.279 136.292 187.191C136.328 187.104 136.381 187.024 136.447 186.957C136.514 186.89 136.593 186.837 136.68 186.801C136.767 186.765 136.861 186.746 136.955 186.746C137.05 186.746 137.143 186.765 137.23 186.801C137.318 186.837 137.397 186.89 137.463 186.957C137.53 187.024 137.582 187.104 137.618 187.191C137.654 187.279 137.672 187.372 137.671 187.467V190.579C137.671 190.769 137.596 190.951 137.462 191.085C137.327 191.22 137.145 191.295 136.955 191.295Z" fill="black"/>
</g>
<g id="Group_2" opacity="0.5">
<path id="Vector_71" d="M136.955 184.593C136.861 184.594 136.768 184.576 136.681 184.54C136.593 184.504 136.514 184.452 136.448 184.385C136.381 184.318 136.328 184.239 136.293 184.152C136.257 184.065 136.239 183.971 136.239 183.877V182.37C136.239 182.276 136.257 182.183 136.293 182.095C136.328 182.008 136.381 181.929 136.448 181.863C136.514 181.796 136.593 181.743 136.681 181.707C136.768 181.672 136.861 181.654 136.955 181.654C137.05 181.654 137.143 181.672 137.23 181.707C137.317 181.743 137.396 181.796 137.463 181.863C137.53 181.929 137.582 182.008 137.618 182.095C137.654 182.183 137.672 182.276 137.671 182.37V183.877C137.672 183.971 137.654 184.065 137.618 184.152C137.582 184.239 137.53 184.318 137.463 184.385C137.396 184.452 137.317 184.504 137.23 184.54C137.143 184.576 137.05 184.594 136.955 184.593Z" fill="black"/>
</g>
<g id="Group_3" opacity="0.5">
<path id="Vector_72" d="M133.736 191.295C133.546 191.295 133.363 191.22 133.228 191.086C133.093 190.951 133.017 190.769 133.016 190.579V190.336C133.016 190.241 133.034 190.148 133.071 190.061C133.107 189.973 133.16 189.894 133.227 189.828C133.294 189.761 133.373 189.708 133.461 189.673C133.548 189.637 133.642 189.619 133.736 189.62C133.926 189.62 134.108 189.695 134.243 189.829C134.377 189.964 134.452 190.146 134.452 190.336V190.579C134.451 190.769 134.375 190.95 134.241 191.084C134.107 191.218 133.926 191.294 133.736 191.295Z" fill="black"/>
</g>
<g id="Group_4" opacity="0.5">
<path id="Vector_73" d="M133.736 187.911C133.642 187.912 133.548 187.894 133.461 187.858C133.373 187.822 133.294 187.77 133.227 187.703C133.16 187.637 133.107 187.558 133.071 187.47C133.034 187.383 133.016 187.29 133.016 187.195V182.37C133.016 182.276 133.034 182.182 133.071 182.095C133.107 182.008 133.16 181.929 133.227 181.862C133.294 181.796 133.373 181.743 133.461 181.707C133.548 181.672 133.642 181.654 133.736 181.654C133.926 181.654 134.108 181.73 134.243 181.864C134.377 181.998 134.452 182.18 134.452 182.37V187.2C134.451 187.389 134.375 187.57 134.241 187.703C134.107 187.837 133.925 187.911 133.736 187.911Z" fill="black"/>
</g>
<g id="Group_5" opacity="0.5">
<path id="Vector_74" d="M140.176 191.295C139.986 191.295 139.804 191.22 139.67 191.085C139.535 190.951 139.46 190.769 139.46 190.579V190.336C139.459 190.241 139.477 190.148 139.513 190.061C139.549 189.974 139.602 189.895 139.668 189.828C139.735 189.761 139.814 189.709 139.901 189.673C139.988 189.637 140.082 189.619 140.176 189.62C140.27 189.619 140.364 189.637 140.451 189.673C140.538 189.709 140.617 189.761 140.684 189.828C140.75 189.895 140.803 189.974 140.839 190.061C140.875 190.148 140.893 190.241 140.892 190.336V190.579C140.892 190.769 140.817 190.951 140.682 191.085C140.548 191.22 140.366 191.295 140.176 191.295Z" fill="black"/>
</g>
<g id="Group_6" opacity="0.5">
<path id="Vector_75" d="M140.175 187.911C139.987 187.911 139.806 187.836 139.672 187.703C139.539 187.57 139.464 187.389 139.464 187.2V182.37C139.463 182.276 139.481 182.183 139.517 182.095C139.553 182.008 139.606 181.929 139.672 181.863C139.739 181.796 139.818 181.743 139.905 181.707C139.992 181.672 140.086 181.654 140.18 181.654C140.274 181.654 140.368 181.672 140.455 181.707C140.542 181.743 140.621 181.796 140.688 181.863C140.754 181.929 140.807 182.008 140.843 182.095C140.878 182.183 140.897 182.276 140.896 182.37V187.2C140.896 187.294 140.877 187.387 140.841 187.474C140.805 187.561 140.751 187.64 140.684 187.706C140.617 187.773 140.538 187.825 140.45 187.86C140.363 187.895 140.269 187.913 140.175 187.911Z" fill="black"/>
</g>
<path id="Vector_76" d="M54.7092 174.906H50.8389C48.3498 174.906 46.332 176.923 46.332 179.412V188.337C46.332 190.826 48.3498 192.844 50.8389 192.844H54.7092C57.1983 192.844 59.2161 190.826 59.2161 188.337V179.412C59.2161 176.923 57.1983 174.906 54.7092 174.906Z" fill="#263238"/>
<g id="Group_7" opacity="0.5">
<path id="Vector_77" d="M52.7717 191.295C52.5822 191.294 52.4008 191.218 52.2667 191.084C52.1327 190.95 52.0569 190.768 52.0557 190.579V187.467C52.0557 187.276 52.1309 187.094 52.2651 186.959C52.3992 186.824 52.5814 186.747 52.7717 186.746C52.9629 186.746 53.1462 186.822 53.2813 186.957C53.4165 187.092 53.4924 187.276 53.4924 187.467V190.579C53.4912 190.769 53.4147 190.951 53.2797 191.086C53.1447 191.22 52.962 191.295 52.7717 191.295Z" fill="black"/>
</g>
<g id="Group_8" opacity="0.5">
<path id="Vector_78" d="M52.7717 184.593C52.5818 184.593 52.3997 184.518 52.2654 184.384C52.1311 184.249 52.0557 184.067 52.0557 183.877V182.37C52.0557 182.18 52.1311 181.998 52.2654 181.864C52.3997 181.73 52.5818 181.654 52.7717 181.654C52.8661 181.654 52.9597 181.672 53.0472 181.707C53.1346 181.743 53.2141 181.796 53.281 181.862C53.348 181.929 53.4012 182.008 53.4375 182.095C53.4737 182.182 53.4924 182.276 53.4924 182.37V183.877C53.4924 183.972 53.4737 184.065 53.4375 184.152C53.4012 184.239 53.348 184.319 53.281 184.385C53.2141 184.452 53.1346 184.504 53.0472 184.54C52.9597 184.576 52.8661 184.594 52.7717 184.593Z" fill="black"/>
</g>
<g id="Group_9" opacity="0.5">
<path id="Vector_79" d="M49.552 191.295C49.3625 191.294 49.181 191.218 49.047 191.084C48.913 190.95 48.8372 190.769 48.8359 190.579V190.336C48.8359 190.146 48.9114 189.964 49.0457 189.829C49.1799 189.695 49.3621 189.62 49.552 189.62C49.6464 189.619 49.74 189.637 49.8274 189.673C49.9148 189.708 49.9943 189.761 50.0613 189.828C50.1283 189.894 50.1815 189.973 50.2178 190.061C50.254 190.148 50.2727 190.241 50.2727 190.336V190.579C50.2715 190.769 50.195 190.951 50.06 191.086C49.9249 191.22 49.7423 191.295 49.552 191.295Z" fill="black"/>
</g>
<g id="Group_10" opacity="0.5">
<path id="Vector_80" d="M49.552 187.911C49.3621 187.911 49.1799 187.836 49.0457 187.702C48.9114 187.567 48.8359 187.385 48.8359 187.195V182.37C48.8359 182.18 48.9114 181.998 49.0457 181.864C49.1799 181.73 49.3621 181.654 49.552 181.654C49.6464 181.654 49.74 181.672 49.8274 181.707C49.9148 181.743 49.9943 181.796 50.0613 181.862C50.1283 181.929 50.1815 182.008 50.2178 182.095C50.254 182.182 50.2727 182.276 50.2727 182.37V187.2C50.2721 187.294 50.253 187.387 50.2164 187.474C50.1799 187.56 50.1266 187.639 50.0597 187.705C49.9927 187.771 49.9135 187.823 49.8264 187.859C49.7392 187.894 49.646 187.912 49.552 187.911Z" fill="black"/>
</g>
<g id="Group_11" opacity="0.5">
<path id="Vector_81" d="M55.9961 191.295C55.8058 191.295 55.6232 191.22 55.4881 191.086C55.3531 190.951 55.2766 190.769 55.2754 190.579V190.336C55.2754 190.241 55.2941 190.148 55.3303 190.061C55.3666 189.973 55.4198 189.894 55.4868 189.828C55.5538 189.761 55.6332 189.708 55.7207 189.673C55.8081 189.637 55.9017 189.619 55.9961 189.62C56.186 189.62 56.3681 189.695 56.5024 189.829C56.6367 189.964 56.7122 190.146 56.7122 190.336V190.579C56.7109 190.769 56.6351 190.95 56.5011 191.084C56.3671 191.218 56.1856 191.294 55.9961 191.295Z" fill="black"/>
</g>
<g id="Group_12" opacity="0.5">
<path id="Vector_82" d="M55.9961 187.911C55.9017 187.912 55.8081 187.894 55.7207 187.858C55.6332 187.822 55.5538 187.77 55.4868 187.703C55.4198 187.637 55.3666 187.558 55.3303 187.47C55.2941 187.383 55.2754 187.29 55.2754 187.195V182.37C55.2754 182.276 55.2941 182.182 55.3303 182.095C55.3666 182.008 55.4198 181.929 55.4868 181.862C55.5538 181.796 55.6332 181.743 55.7207 181.707C55.8081 181.672 55.9017 181.654 55.9961 181.654C56.186 181.654 56.3681 181.73 56.5024 181.864C56.6367 181.998 56.7122 182.18 56.7122 182.37V187.2C56.7109 187.389 56.6349 187.57 56.5008 187.703C56.3666 187.837 56.1852 187.911 55.9961 187.911Z" fill="black"/>
</g>
<path id="Vector_83" d="M134.873 132.393H54.9198L46.332 148.913C45.6632 150.198 45.3148 151.625 45.3164 153.073V180.381C45.3164 180.927 45.5334 181.451 45.9195 181.837C46.3057 182.223 46.8295 182.44 47.3756 182.44H142.464C143.01 182.44 143.534 182.223 143.92 181.837C144.306 181.451 144.523 180.927 144.523 180.381V153.083C144.523 151.627 144.172 150.194 143.498 148.904L134.873 132.393Z" fill="#0D4C93"/>
<path id="Vector_84" opacity="0.3" d="M144.524 180.381V160.8C144.524 161.63 144.361 162.452 144.044 163.219C143.727 163.985 143.261 164.682 142.674 165.269C142.088 165.856 141.391 166.321 140.624 166.638C139.857 166.956 139.035 167.119 138.206 167.118H51.6256C50.7958 167.119 49.9739 166.956 49.2071 166.638C48.4403 166.321 47.7435 165.856 47.1567 165.269C46.5699 164.682 46.1046 163.985 45.7873 163.219C45.47 162.452 45.307 161.63 45.3076 160.8V180.381C45.3076 180.927 45.5246 181.451 45.9107 181.837C46.2969 182.223 46.8207 182.44 47.3668 182.44H142.464C143.011 182.44 143.534 182.223 143.92 181.837C144.307 181.451 144.524 180.927 144.524 180.381Z" fill="black"/>
<path id="Vector_85" d="M134.105 131.854H137.957V126.421C139.018 126.095 140.123 125.937 141.233 125.953C144.809 125.953 147.706 127.558 147.706 129.538C147.706 131.517 144.809 133.127 141.233 133.127C140.563 133.125 139.894 133.064 139.235 132.945L135.626 134.382L134.105 131.854Z" fill="#0D4C93"/>
<path id="Vector_86" opacity="0.5" d="M137.957 130.067V126.421C139.018 126.095 140.123 125.937 141.233 125.953C144.809 125.953 147.705 127.558 147.705 129.538C147.702 129.616 147.694 129.694 147.682 129.772C145.381 130.027 143.066 130.148 140.751 130.137C139.773 130.104 138.846 130.104 137.957 130.067Z" fill="white"/>
<path id="Vector_87" d="M55.9079 131.854H52.0563V126.421C50.9953 126.095 49.89 125.937 48.7803 125.953C45.2094 125.953 42.3125 127.558 42.3125 129.538C42.3125 131.517 45.2094 133.127 48.7803 133.127C49.4505 133.126 50.1192 133.065 50.7786 132.945L54.3916 134.382L55.9079 131.854Z" fill="#0D4C93"/>
<path id="Vector_88" opacity="0.5" d="M52.0558 130.067V126.421C50.9949 126.095 49.8895 125.937 48.7798 125.953C45.209 125.953 42.3121 127.558 42.3121 129.538C42.3074 129.616 42.3074 129.694 42.3121 129.772C44.6135 130.026 46.9277 130.148 49.2431 130.137C50.24 130.104 51.1713 130.104 52.0558 130.067Z" fill="white"/>
<path id="Vector_89" d="M121.755 106.737H68.1411C67.275 106.737 66.4289 106.998 65.7129 107.485C64.9968 107.973 64.4438 108.664 64.1257 109.47L55.0605 132.402H134.784L125.771 109.47C125.453 108.664 124.9 107.973 124.184 107.485C123.467 106.998 122.621 106.737 121.755 106.737Z" fill="#263238"/>
<path id="Vector_90" opacity="0.8" d="M121.755 106.737H68.1411C67.275 106.737 66.4289 106.998 65.7129 107.485C64.9968 107.973 64.4438 108.664 64.1257 109.47L55.0605 132.402H134.784L125.771 109.47C125.453 108.664 124.9 107.973 124.184 107.485C123.467 106.998 122.621 106.737 121.755 106.737Z" fill="white"/>
<path id="Vector_91" d="M133.324 131.854L125.368 111.632C125.197 111.193 124.897 110.816 124.507 110.551C124.118 110.285 123.658 110.144 123.187 110.144H66.7042C66.2337 110.143 65.7739 110.284 65.3848 110.549C64.9958 110.814 64.6955 111.189 64.5233 111.627L56.5205 131.854H133.324Z" fill="#263238"/>
<path id="Vector_92" opacity="0.2" d="M133.324 131.854L125.368 111.632C125.197 111.193 124.897 110.816 124.507 110.551C124.118 110.285 123.658 110.144 123.187 110.144H66.7042C66.2337 110.143 65.7739 110.284 65.3848 110.549C64.9958 110.814 64.6955 111.189 64.5233 111.627L56.5205 131.854H133.324Z" fill="white"/>
<path id="Vector_93" d="M123.023 97.2317H66.821C65.4485 97.2317 64.3359 98.3443 64.3359 99.7168V101.565C64.3359 102.938 65.4485 104.05 66.821 104.05H123.023C124.396 104.05 125.508 102.938 125.508 101.565V99.7168C125.508 98.3443 124.396 97.2317 123.023 97.2317Z" fill="#263238"/>
<path id="Vector_94" opacity="0.5" d="M123.023 97.2317H66.821C65.4485 97.2317 64.3359 98.3443 64.3359 99.7168V101.565C64.3359 102.938 65.4485 104.05 66.821 104.05H123.023C124.396 104.05 125.508 102.938 125.508 101.565V99.7168C125.508 98.3443 124.396 97.2317 123.023 97.2317Z" fill="white"/>
<path id="Vector_95" d="M70.9673 98.6638H67.1437C66.3864 98.6638 65.7725 99.2777 65.7725 100.035V101.238C65.7725 101.995 66.3864 102.609 67.1437 102.609H70.9673C71.7246 102.609 72.3385 101.995 72.3385 101.238V100.035C72.3385 99.2777 71.7246 98.6638 70.9673 98.6638Z" fill="#0D4C93"/>
<path id="Vector_96" d="M78.3296 98.6638H74.506C73.7487 98.6638 73.1348 99.2777 73.1348 100.035V101.238C73.1348 101.995 73.7487 102.609 74.506 102.609H78.3296C79.0869 102.609 79.7008 101.995 79.7008 101.238V100.035C79.7008 99.2777 79.0869 98.6638 78.3296 98.6638Z" fill="#0D4C93"/>
<path id="Vector_97" d="M85.6958 98.6638H81.8722C81.1149 98.6638 80.501 99.2777 80.501 100.035V101.238C80.501 101.995 81.1149 102.609 81.8722 102.609H85.6958C86.4531 102.609 87.067 101.995 87.067 101.238V100.035C87.067 99.2777 86.4531 98.6638 85.6958 98.6638Z" fill="#0D4C93"/>
<path id="Vector_98" d="M93.0571 98.6638H89.2335C88.4762 98.6638 87.8623 99.2777 87.8623 100.035V101.238C87.8623 101.995 88.4762 102.609 89.2335 102.609H93.0571C93.8144 102.609 94.4283 101.995 94.4283 101.238V100.035C94.4283 99.2777 93.8144 98.6638 93.0571 98.6638Z" fill="#0D4C93"/>
<path id="Vector_99" d="M100.611 98.6638H96.7873C96.0299 98.6638 95.416 99.2777 95.416 100.035V101.238C95.416 101.995 96.0299 102.609 96.7873 102.609H100.611C101.368 102.609 101.982 101.995 101.982 101.238V100.035C101.982 99.2777 101.368 98.6638 100.611 98.6638Z" fill="#0D4C93"/>
<path id="Vector_100" opacity="0.7" d="M93.0571 98.6638H89.2335C88.4762 98.6638 87.8623 99.2777 87.8623 100.035V101.238C87.8623 101.995 88.4762 102.609 89.2335 102.609H93.0571C93.8144 102.609 94.4283 101.995 94.4283 101.238V100.035C94.4283 99.2777 93.8144 98.6638 93.0571 98.6638Z" fill="white"/>
<path id="Vector_101" opacity="0.7" d="M100.611 98.6638H96.7873C96.0299 98.6638 95.416 99.2777 95.416 100.035V101.238C95.416 101.995 96.0299 102.609 96.7873 102.609H100.611C101.368 102.609 101.982 101.995 101.982 101.238V100.035C101.982 99.2777 101.368 98.6638 100.611 98.6638Z" fill="white"/>
<path id="Vector_102" d="M107.972 98.6638H104.149C103.391 98.6638 102.777 99.2777 102.777 100.035V101.238C102.777 101.995 103.391 102.609 104.149 102.609H107.972C108.729 102.609 109.343 101.995 109.343 101.238V100.035C109.343 99.2777 108.729 98.6638 107.972 98.6638Z" fill="#0D4C93"/>
<path id="Vector_103" d="M115.338 98.6638H111.515C110.757 98.6638 110.144 99.2777 110.144 100.035V101.238C110.144 101.995 110.757 102.609 111.515 102.609H115.338C116.096 102.609 116.71 101.995 116.71 101.238V100.035C116.71 99.2777 116.096 98.6638 115.338 98.6638Z" fill="#0D4C93"/>
<path id="Vector_104" d="M122.701 98.6638H118.877C118.12 98.6638 117.506 99.2777 117.506 100.035V101.238C117.506 101.995 118.12 102.609 118.877 102.609H122.701C123.458 102.609 124.072 101.995 124.072 101.238V100.035C124.072 99.2777 123.458 98.6638 122.701 98.6638Z" fill="#0D4C93"/>
<g id="Group_13" opacity="0.4">
<path id="Vector_105" d="M107.972 98.6638H104.149C103.391 98.6638 102.777 99.2777 102.777 100.035V101.238C102.777 101.995 103.391 102.609 104.149 102.609H107.972C108.729 102.609 109.343 101.995 109.343 101.238V100.035C109.343 99.2777 108.729 98.6638 107.972 98.6638Z" fill="black"/>
<path id="Vector_106" d="M115.338 98.6638H111.515C110.757 98.6638 110.144 99.2777 110.144 100.035V101.238C110.144 101.995 110.757 102.609 111.515 102.609H115.338C116.096 102.609 116.71 101.995 116.71 101.238V100.035C116.71 99.2777 116.096 98.6638 115.338 98.6638Z" fill="black"/>
<path id="Vector_107" d="M122.7 98.6638H118.876C118.119 98.6638 117.505 99.2777 117.505 100.035V101.238C117.505 101.995 118.119 102.609 118.876 102.609H122.7C123.457 102.609 124.071 101.995 124.071 101.238V100.035C124.071 99.2777 123.457 98.6638 122.7 98.6638Z" fill="black"/>
</g>
<path id="Vector_108" opacity="0.5" d="M67.116 155.109L53.076 151.791C52.2956 151.606 51.6167 151.128 51.1807 150.454C50.7447 149.781 50.5854 148.966 50.736 148.178L51.5738 143.676C51.6614 143.21 51.8544 142.77 52.1379 142.39C52.4215 142.01 52.7881 141.7 53.2097 141.483C53.6314 141.267 54.0971 141.149 54.5711 141.14C55.0451 141.131 55.515 141.23 55.9449 141.43L65.2721 145.759C66.0554 146.121 66.7467 146.656 67.2944 147.323C67.8422 147.99 68.2324 148.772 68.4358 149.61L69.2501 152.956C69.3222 153.252 69.3173 153.561 69.2359 153.854C69.1546 154.147 68.9994 154.414 68.7854 154.63C68.5713 154.846 68.3055 155.003 68.0132 155.087C67.7209 155.171 67.4121 155.179 67.116 155.109Z" fill="white"/>
<path id="Vector_109" opacity="0.5" d="M63.4239 153.261C65.3392 153.261 66.8918 151.708 66.8918 149.793C66.8918 147.878 65.3392 146.325 63.4239 146.325C61.5087 146.325 59.9561 147.878 59.9561 149.793C59.9561 151.708 61.5087 153.261 63.4239 153.261Z" fill="white"/>
<g id="Group_14" opacity="0.9">
<path id="Vector_110" d="M64.2187 148.248C64.0915 148.186 63.9582 148.138 63.8209 148.103C63.7093 148.086 63.6076 148.03 63.5345 147.944C63.4614 147.858 63.4218 147.748 63.4231 147.635V147.518C63.4208 147.446 63.4354 147.373 63.4659 147.307C63.4963 147.241 63.5417 147.183 63.5985 147.138C63.6553 147.093 63.7218 147.061 63.7929 147.046C63.864 147.031 63.9377 147.032 64.0081 147.05C64.272 147.103 64.5261 147.196 64.7616 147.326C64.8267 147.358 64.8835 147.405 64.9275 147.463C64.9715 147.52 65.0015 147.587 65.0152 147.659C65.0288 147.73 65.0256 147.803 65.006 147.873C64.9863 147.943 64.9507 148.007 64.902 148.061L64.8224 148.155C64.7497 148.24 64.6487 148.296 64.5379 148.314C64.4271 148.331 64.3138 148.308 64.2187 148.248Z" fill="white"/>
</g>
<g id="Group_15" opacity="0.9">
<path id="Vector_111" d="M63.4232 152.601C62.78 152.601 62.1561 152.38 61.6561 151.976C61.156 151.571 60.8101 151.007 60.6761 150.378C60.6578 150.307 60.6563 150.234 60.6715 150.163C60.6867 150.092 60.7183 150.025 60.7637 149.968C60.8091 149.911 60.8671 149.866 60.9332 149.836C60.9992 149.805 61.0714 149.79 61.1441 149.793H61.2611C61.3739 149.792 61.4834 149.831 61.5694 149.904C61.6555 149.977 61.7121 150.079 61.7291 150.191C61.8192 150.571 62.035 150.91 62.3416 151.152C62.6482 151.395 63.0277 151.526 63.4185 151.526C63.8094 151.526 64.1888 151.395 64.4954 151.152C64.802 150.91 65.0179 150.571 65.108 150.191C65.1249 150.079 65.1816 149.977 65.2676 149.904C65.3536 149.831 65.4631 149.792 65.576 149.793H65.693C65.7657 149.79 65.8379 149.805 65.9039 149.836C65.9699 149.866 66.028 149.911 66.0734 149.968C66.1188 150.025 66.1504 150.092 66.1656 150.163C66.1808 150.234 66.1792 150.307 66.161 150.378C66.0273 151.005 65.6828 151.568 65.1846 151.973C64.6865 152.377 64.0649 152.599 63.4232 152.601Z" fill="white"/>
</g>
<path id="Vector_112" opacity="0.5" d="M59.0274 147.465C59.4673 145.601 58.3129 143.733 56.4488 143.293C54.5848 142.853 52.717 144.007 52.2771 145.871C51.8371 147.735 52.9916 149.603 54.8556 150.043C56.7197 150.483 58.5874 149.329 59.0274 147.465Z" fill="white"/>
<g id="Group_16" opacity="0.9">
<path id="Vector_113" d="M56.4453 145.131C56.3176 145.067 56.1824 145.018 56.0428 144.986C55.934 144.964 55.836 144.906 55.7646 144.821C55.6932 144.736 55.6527 144.629 55.6497 144.518V144.401C55.6473 144.329 55.662 144.257 55.6924 144.191C55.7229 144.124 55.7683 144.066 55.8251 144.021C55.8818 143.976 55.9484 143.944 56.0195 143.929C56.0906 143.914 56.1643 143.915 56.2347 143.933C56.4973 143.99 56.7509 144.083 56.9881 144.21C57.0541 144.241 57.1116 144.288 57.1562 144.346C57.2008 144.404 57.2311 144.472 57.2448 144.544C57.2584 144.616 57.255 144.69 57.2348 144.76C57.2147 144.831 57.1782 144.895 57.1285 144.949L57.049 145.038C56.9762 145.123 56.8753 145.18 56.7645 145.197C56.6537 145.214 56.5404 145.191 56.4453 145.131Z" fill="white"/>
</g>
<g id="Group_17" opacity="0.9">
<path id="Vector_114" d="M55.6498 149.484C55.0065 149.484 54.3827 149.263 53.8826 148.859C53.3826 148.454 53.0366 147.89 52.9026 147.261C52.8844 147.191 52.8828 147.117 52.8981 147.046C52.9133 146.975 52.9448 146.908 52.9903 146.851C53.0357 146.795 53.0937 146.749 53.1597 146.719C53.2257 146.688 53.2979 146.674 53.3706 146.676H53.4876C53.5998 146.674 53.7088 146.713 53.7947 146.786C53.8806 146.858 53.9377 146.958 53.9556 147.069C54.0458 147.449 54.2616 147.788 54.5682 148.031C54.8748 148.273 55.2542 148.405 55.6451 148.405C56.036 148.405 56.4154 148.273 56.722 148.031C57.0286 147.788 57.2444 147.449 57.3346 147.069C57.3525 146.958 57.4096 146.858 57.4955 146.786C57.5814 146.713 57.6904 146.674 57.8026 146.676H57.9196C57.9922 146.674 58.0645 146.688 58.1305 146.719C58.1965 146.749 58.2545 146.795 58.2999 146.851C58.3454 146.908 58.3769 146.975 58.3921 147.046C58.4074 147.117 58.4058 147.191 58.3876 147.261C58.2539 147.888 57.9093 148.451 57.4112 148.856C56.9131 149.26 56.2914 149.482 55.6498 149.484Z" fill="white"/>
</g>
<path id="Vector_115" d="M75.8166 151.197C75.4933 151.193 75.1745 151.273 74.8913 151.429C74.608 151.584 74.37 151.811 74.2003 152.086C74.0307 152.362 73.9352 152.676 73.9232 152.999C73.9112 153.322 73.983 153.643 74.1318 153.93C74.9086 155.474 75.9616 157.206 76.9819 157.866C84.5775 162.63 105.254 162.63 112.845 157.866C113.87 157.22 114.918 155.474 115.7 153.93C115.848 153.642 115.92 153.321 115.908 152.998C115.896 152.674 115.8 152.36 115.63 152.084C115.46 151.809 115.221 151.582 114.937 151.427C114.653 151.271 114.334 151.192 114.01 151.197H75.8166Z" fill="#263238"/>
<path id="Vector_116" opacity="0.6" d="M75.8166 151.197C75.4933 151.193 75.1745 151.273 74.8913 151.429C74.608 151.584 74.37 151.811 74.2003 152.086C74.0307 152.362 73.9352 152.676 73.9232 152.999C73.9112 153.322 73.983 153.643 74.1318 153.93C74.9086 155.474 75.9616 157.206 76.9819 157.866C84.5775 162.63 105.254 162.63 112.845 157.866C113.87 157.22 114.918 155.474 115.7 153.93C115.848 153.642 115.92 153.321 115.908 152.998C115.896 152.674 115.8 152.36 115.63 152.084C115.46 151.809 115.221 151.582 114.937 151.427C114.653 151.271 114.334 151.192 114.01 151.197H75.8166Z" fill="white"/>
<path id="Vector_117" opacity="0.5" d="M125.354 172.935C125.976 173.847 126.534 174.801 127.025 175.79C127.195 176.13 127.275 176.508 127.258 176.888C127.241 177.267 127.127 177.636 126.927 177.96C126.727 178.283 126.448 178.55 126.117 178.736C125.785 178.921 125.411 179.019 125.031 179.019H64.8137C64.4336 179.019 64.0598 178.922 63.7279 178.736C63.3961 178.551 63.1172 178.284 62.9178 177.96C62.7185 177.636 62.6053 177.267 62.589 176.887C62.5727 176.507 62.6538 176.13 62.8247 175.79C63.3119 174.8 63.8687 173.846 64.4908 172.935C64.8869 172.379 65.4107 171.926 66.0182 171.614C66.6257 171.302 67.2992 171.141 67.9821 171.143H121.863C122.546 171.141 123.219 171.302 123.827 171.614C124.434 171.926 124.958 172.379 125.354 172.935Z" fill="white"/>
<path id="Vector_118" opacity="0.8" d="M109.742 162.527H80.0986V169.701H109.742V162.527Z" fill="white"/>
<path id="Vector_119" d="M67.1446 132.393C66.1009 133.628 65.6189 136.16 66.2507 138.402C67.3224 142.225 68.7732 146.554 70.1866 148.145H119.659C121.063 146.554 122.523 142.225 123.595 138.402C124.227 136.16 123.744 133.628 122.701 132.393H67.1446Z" fill="#263238"/>
<path id="Vector_120" opacity="0.8" d="M67.1446 132.393C66.1009 133.628 65.6189 136.16 66.2507 138.402C67.3224 142.225 68.7732 146.554 70.1866 148.145H119.659C121.063 146.554 122.523 142.225 123.595 138.402C124.227 136.16 123.744 133.628 122.701 132.393H67.1446Z" fill="white"/>
<path id="Vector_121" d="M50.0059 174.62V168.012C50.0059 167.775 50.1 167.548 50.2677 167.38C50.4353 167.212 50.6627 167.118 50.8998 167.118H57.5079C57.685 167.117 57.8584 167.169 58.006 167.267C58.1536 167.365 58.2688 167.504 58.337 167.668C58.4052 167.831 58.4233 168.011 58.389 168.185C58.3547 168.359 58.2696 168.519 58.1444 168.644L51.5362 175.252C51.4115 175.378 51.2518 175.465 51.0777 175.5C50.9036 175.536 50.7229 175.518 50.5586 175.451C50.3944 175.383 50.2541 175.268 50.1556 175.12C50.0572 174.972 50.005 174.798 50.0059 174.62Z" fill="#263238"/>
<path id="Vector_122" opacity="0.5" d="M50.0059 174.62V168.012C50.0059 167.775 50.1 167.548 50.2677 167.38C50.4353 167.212 50.6627 167.118 50.8998 167.118H57.5079C57.685 167.117 57.8584 167.169 58.006 167.267C58.1536 167.365 58.2688 167.504 58.337 167.668C58.4052 167.831 58.4233 168.011 58.389 168.185C58.3547 168.359 58.2696 168.519 58.1444 168.644L51.5362 175.252C51.4115 175.378 51.2518 175.465 51.0777 175.5C50.9036 175.536 50.7229 175.518 50.5586 175.451C50.3944 175.383 50.2541 175.268 50.1556 175.12C50.0572 174.972 50.005 174.798 50.0059 174.62Z" fill="white"/>
<path id="Vector_123" d="M57.583 172.106C58.023 170.242 56.8685 168.374 55.0045 167.934C53.1405 167.494 51.2727 168.648 50.8327 170.512C50.3928 172.377 51.5472 174.244 53.4113 174.684C55.2753 175.124 57.1431 173.97 57.583 172.106Z" fill="#0D4C93"/>
<path id="Vector_124" opacity="0.5" d="M57.583 172.106C58.023 170.242 56.8685 168.374 55.0045 167.934C53.1405 167.494 51.2727 168.648 50.8327 170.512C50.3928 172.377 51.5472 174.244 53.4113 174.684C55.2753 175.124 57.1431 173.97 57.583 172.106Z" fill="white"/>
<g id="Group_18" opacity="0.8">
<path id="Vector_125" d="M54.9992 169.776C54.8734 169.71 54.7397 169.66 54.6014 169.627C54.4906 169.609 54.39 169.552 54.3179 169.466C54.2457 169.38 54.2068 169.271 54.2082 169.159V169.037C54.2059 168.964 54.2206 168.892 54.251 168.826C54.2815 168.76 54.3269 168.702 54.3836 168.657C54.4404 168.611 54.507 168.58 54.5781 168.564C54.6492 168.549 54.7229 168.551 54.7932 168.569C55.0547 168.625 55.3069 168.718 55.542 168.845C55.608 168.877 55.6656 168.924 55.7101 168.982C55.7547 169.04 55.785 169.107 55.7987 169.179C55.8124 169.251 55.809 169.325 55.7888 169.396C55.7686 169.466 55.7322 169.531 55.6824 169.584L55.6076 169.673C55.5359 169.761 55.4347 169.82 55.3227 169.839C55.2108 169.858 55.0958 169.836 54.9992 169.776Z" fill="white"/>
</g>
<g id="Group_19" opacity="0.8">
<path id="Vector_126" d="M54.2084 174.129C53.5644 174.13 52.9395 173.91 52.4384 173.505C51.9374 173.1 51.5908 172.536 51.4566 171.906C51.4375 171.835 51.4353 171.761 51.4501 171.689C51.4649 171.617 51.4963 171.55 51.5419 171.493C51.5874 171.436 51.6457 171.39 51.7122 171.359C51.7787 171.328 51.8514 171.314 51.9246 171.316H52.0416C52.1529 171.32 52.2597 171.362 52.3446 171.434C52.4295 171.506 52.4876 171.605 52.5096 171.714C52.5977 172.095 52.8125 172.436 53.1189 172.679C53.4253 172.923 53.8053 173.056 54.1967 173.056C54.5882 173.056 54.9681 172.923 55.2745 172.679C55.5809 172.436 55.7957 172.095 55.8839 171.714C55.9066 171.605 55.965 171.507 56.0497 171.435C56.1345 171.363 56.2408 171.321 56.3519 171.316H56.4689C56.5421 171.314 56.6148 171.328 56.6813 171.359C56.7478 171.39 56.8061 171.436 56.8516 171.493C56.8972 171.55 56.9286 171.617 56.9434 171.689C56.9582 171.761 56.956 171.835 56.9369 171.906C56.8036 172.532 56.4603 173.093 55.9641 173.498C55.4679 173.902 54.8485 174.125 54.2084 174.129Z" fill="white"/>
</g>
<path id="Vector_127" d="M140.307 174.62V168.012C140.307 167.775 140.212 167.548 140.045 167.38C139.877 167.212 139.65 167.118 139.413 167.118H132.804C132.628 167.118 132.455 167.171 132.308 167.269C132.161 167.367 132.047 167.507 131.979 167.67C131.912 167.833 131.894 168.013 131.928 168.186C131.963 168.36 132.048 168.519 132.173 168.644L138.781 175.252C138.906 175.377 139.065 175.462 139.238 175.496C139.412 175.531 139.591 175.513 139.755 175.446C139.918 175.378 140.057 175.263 140.156 175.117C140.254 174.97 140.306 174.797 140.307 174.62Z" fill="#263238"/>
<path id="Vector_128" opacity="0.5" d="M140.307 174.62V168.012C140.307 167.775 140.212 167.548 140.045 167.38C139.877 167.212 139.65 167.118 139.413 167.118H132.804C132.628 167.118 132.455 167.171 132.308 167.269C132.161 167.367 132.047 167.507 131.979 167.67C131.912 167.833 131.894 168.013 131.928 168.186C131.963 168.36 132.048 168.519 132.173 168.644L138.781 175.252C138.906 175.377 139.065 175.462 139.238 175.496C139.412 175.531 139.591 175.513 139.755 175.446C139.918 175.378 140.057 175.263 140.156 175.117C140.254 174.97 140.306 174.797 140.307 174.62Z" fill="white"/>
<path id="Vector_129" d="M139.308 172.64C140.041 170.871 139.201 168.842 137.431 168.109C135.662 167.376 133.633 168.216 132.9 169.986C132.167 171.755 133.008 173.784 134.777 174.517C136.547 175.25 138.575 174.409 139.308 172.64Z" fill="#0D4C93"/>
<path id="Vector_130" opacity="0.5" d="M139.308 172.64C140.041 170.871 139.201 168.842 137.431 168.109C135.662 167.376 133.633 168.216 132.9 169.986C132.167 171.755 133.008 173.784 134.777 174.517C136.547 175.25 138.575 174.409 139.308 172.64Z" fill="white"/>
<g id="Group_20" opacity="0.8">
<path id="Vector_131" d="M135.313 169.776C135.438 169.71 135.572 169.66 135.71 169.627C135.82 169.605 135.919 169.547 135.991 169.462C136.064 169.377 136.105 169.27 136.108 169.159V169.037C136.111 168.964 136.096 168.891 136.065 168.825C136.035 168.758 135.989 168.7 135.931 168.654C135.874 168.609 135.807 168.577 135.735 168.562C135.663 168.548 135.589 168.55 135.519 168.569C135.257 168.625 135.005 168.718 134.77 168.845C134.704 168.877 134.646 168.924 134.602 168.982C134.557 169.04 134.527 169.107 134.513 169.179C134.499 169.251 134.503 169.325 134.523 169.396C134.543 169.466 134.58 169.531 134.629 169.584L134.704 169.673C134.776 169.761 134.877 169.82 134.989 169.839C135.101 169.858 135.216 169.836 135.313 169.776Z" fill="white"/>
</g>
<g id="Group_21" opacity="0.8">
<path id="Vector_132" d="M136.109 174.129C136.752 174.129 137.376 173.908 137.876 173.504C138.376 173.099 138.722 172.535 138.856 171.906C138.875 171.835 138.877 171.761 138.863 171.689C138.848 171.617 138.816 171.55 138.771 171.493C138.725 171.436 138.667 171.39 138.6 171.359C138.534 171.328 138.461 171.314 138.388 171.316H138.271C138.16 171.321 138.054 171.363 137.969 171.435C137.884 171.507 137.826 171.605 137.803 171.714C137.715 172.095 137.5 172.436 137.194 172.679C136.887 172.923 136.507 173.056 136.116 173.056C135.724 173.056 135.344 172.923 135.038 172.679C134.732 172.436 134.517 172.095 134.429 171.714C134.407 171.605 134.349 171.506 134.264 171.434C134.179 171.362 134.072 171.32 133.961 171.316H133.848C133.775 171.314 133.702 171.328 133.636 171.359C133.57 171.39 133.511 171.436 133.466 171.493C133.42 171.55 133.389 171.617 133.374 171.689C133.359 171.761 133.361 171.835 133.38 171.906C133.514 172.532 133.857 173.093 134.353 173.498C134.849 173.902 135.469 174.125 136.109 174.129Z" fill="white"/>
</g>
<path id="Vector_133" opacity="0.5" d="M122.729 155.109L136.769 151.791C137.548 151.605 138.227 151.126 138.663 150.453C139.098 149.781 139.258 148.966 139.109 148.178L138.271 143.676C138.183 143.21 137.99 142.77 137.707 142.39C137.423 142.01 137.057 141.7 136.635 141.483C136.213 141.267 135.748 141.149 135.274 141.14C134.8 141.131 134.33 141.23 133.9 141.43L124.573 145.759C123.789 146.121 123.098 146.656 122.55 147.323C122.002 147.99 121.612 148.772 121.409 149.61L120.595 152.956C120.523 153.252 120.527 153.561 120.609 153.854C120.69 154.147 120.845 154.414 121.059 154.63C121.273 154.846 121.539 155.003 121.832 155.087C122.124 155.171 122.433 155.179 122.729 155.109Z" fill="white"/>
<path id="Vector_134" opacity="0.5" d="M126.421 153.261C128.336 153.261 129.889 151.708 129.889 149.793C129.889 147.878 128.336 146.325 126.421 146.325C124.506 146.325 122.953 147.878 122.953 149.793C122.953 151.708 124.506 153.261 126.421 153.261Z" fill="white"/>
<g id="Group_22" opacity="0.9">
<path id="Vector_135" d="M125.625 148.248C125.754 148.185 125.889 148.137 126.028 148.103C126.138 148.085 126.239 148.028 126.311 147.942C126.383 147.856 126.422 147.747 126.421 147.635V147.518C126.423 147.446 126.408 147.373 126.378 147.307C126.347 147.241 126.302 147.183 126.245 147.138C126.189 147.093 126.122 147.061 126.051 147.046C125.98 147.031 125.906 147.032 125.836 147.05C125.572 147.103 125.318 147.196 125.082 147.326C125.017 147.358 124.96 147.405 124.916 147.463C124.872 147.52 124.842 147.587 124.829 147.659C124.815 147.73 124.818 147.803 124.838 147.873C124.857 147.943 124.893 148.007 124.942 148.061L125.021 148.155C125.094 148.24 125.195 148.296 125.306 148.314C125.417 148.331 125.53 148.308 125.625 148.248Z" fill="white"/>
</g>
<g id="Group_23" opacity="0.9">
<path id="Vector_136" d="M126.421 152.601C127.065 152.602 127.69 152.382 128.191 151.977C128.692 151.572 129.039 151.008 129.173 150.378C129.191 150.307 129.193 150.234 129.177 150.163C129.162 150.092 129.131 150.025 129.085 149.968C129.04 149.911 128.982 149.866 128.916 149.836C128.85 149.805 128.777 149.79 128.705 149.793H128.588C128.475 149.792 128.365 149.831 128.279 149.904C128.193 149.977 128.137 150.079 128.12 150.191C128.03 150.571 127.814 150.91 127.507 151.152C127.201 151.395 126.821 151.526 126.43 151.526C126.039 151.526 125.66 151.395 125.353 151.152C125.047 150.91 124.831 150.571 124.741 150.191C124.724 150.079 124.667 149.977 124.581 149.904C124.495 149.831 124.386 149.792 124.273 149.793H124.156C124.083 149.79 124.011 149.805 123.945 149.836C123.879 149.866 123.821 149.911 123.775 149.968C123.73 150.025 123.698 150.092 123.683 150.163C123.668 150.234 123.67 150.307 123.688 150.378C123.821 151.005 124.165 151.567 124.662 151.971C125.16 152.376 125.78 152.598 126.421 152.601Z" fill="white"/>
</g>
<path id="Vector_137" opacity="0.5" d="M137.4 148.005C138.133 146.235 137.293 144.207 135.523 143.474C133.754 142.741 131.725 143.581 130.992 145.35C130.259 147.12 131.099 149.149 132.869 149.881C134.638 150.614 136.667 149.774 137.4 148.005Z" fill="white"/>
<g id="Group_24" opacity="0.9">
<path id="Vector_138" d="M133.38 145.131C133.508 145.067 133.643 145.018 133.782 144.986C133.891 144.964 133.989 144.906 134.061 144.821C134.132 144.736 134.173 144.629 134.176 144.518V144.401C134.178 144.329 134.163 144.257 134.133 144.191C134.102 144.124 134.057 144.066 134 144.021C133.943 143.976 133.877 143.944 133.806 143.929C133.735 143.914 133.661 143.915 133.591 143.933C133.328 143.99 133.074 144.083 132.837 144.21C132.771 144.241 132.714 144.288 132.669 144.346C132.624 144.404 132.594 144.472 132.58 144.544C132.567 144.616 132.57 144.69 132.59 144.76C132.611 144.831 132.647 144.895 132.697 144.949L132.776 145.038C132.849 145.123 132.95 145.18 133.061 145.197C133.172 145.214 133.285 145.191 133.38 145.131Z" fill="white"/>
</g>
<g id="Group_25" opacity="0.9">
<path id="Vector_139" d="M134.194 149.484C134.838 149.485 135.463 149.265 135.964 148.86C136.465 148.455 136.812 147.891 136.946 147.261C136.964 147.191 136.966 147.117 136.951 147.046C136.936 146.975 136.904 146.908 136.859 146.851C136.813 146.795 136.755 146.749 136.689 146.719C136.623 146.688 136.551 146.674 136.478 146.676H136.361C136.249 146.674 136.14 146.713 136.054 146.786C135.968 146.858 135.911 146.958 135.893 147.069C135.803 147.449 135.587 147.788 135.281 148.031C134.974 148.273 134.595 148.405 134.204 148.405C133.813 148.405 133.433 148.273 133.127 148.031C132.82 147.788 132.604 147.449 132.514 147.069C132.496 146.958 132.439 146.858 132.353 146.786C132.267 146.713 132.158 146.674 132.046 146.676H131.929C131.857 146.674 131.784 146.688 131.718 146.719C131.652 146.749 131.594 146.795 131.549 146.851C131.503 146.908 131.472 146.975 131.457 147.046C131.441 147.117 131.443 147.191 131.461 147.261C131.595 147.888 131.939 148.45 132.436 148.854C132.933 149.259 133.553 149.481 134.194 149.484Z" fill="white"/>
</g>
<path id="Vector_140" d="M133.151 131.414C129.627 130.24 125.153 128.831 123.019 128.503C116.635 127.535 98.7247 128.307 95.1258 128.475C91.5316 128.307 73.5978 127.539 67.2377 128.503C65.01 128.845 60.2177 130.375 56.6328 131.569L56.5205 131.854H133.324L133.151 131.414Z" fill="#263238"/>
<g id="Group_26" opacity="0.2">
<path id="Vector_141" d="M88.3724 110.144H77.95L68.9551 131.854H79.3821L88.3724 110.144Z" fill="white"/>
<path id="Vector_142" d="M129.444 121.994L125.368 111.632C125.196 111.193 124.897 110.816 124.507 110.551C124.118 110.285 123.658 110.144 123.187 110.144H95.1866L86.1963 131.854H125.359L129.444 121.994Z" fill="white"/>
</g>
<path id="Vector_143" d="M114.997 157.416V159.12H74.8475V157.398H71.8008V183.606C71.8008 183.938 71.8662 184.266 71.9932 184.573C72.1202 184.879 72.3063 185.158 72.541 185.393C72.7757 185.627 73.0543 185.814 73.3609 185.941C73.6675 186.068 73.9961 186.133 74.328 186.133H76.3591C76.8817 186.133 77.3828 185.925 77.7523 185.556C78.1218 185.186 78.3294 184.685 78.3294 184.163V182.422H74.8475V172.781H114.997V182.422H111.515V184.163C111.515 184.685 111.723 185.186 112.092 185.556C112.462 185.925 112.963 186.133 113.486 186.133H115.517C116.187 186.133 116.83 185.867 117.304 185.393C117.778 184.919 118.044 184.276 118.044 183.606V157.398L114.997 157.416ZM74.8475 169.482V162.462H114.997V169.482H74.8475Z" fill="#263238"/>
<path id="Vector_144" opacity="0.6" d="M114.997 157.416V159.12H74.8475V157.398H71.8008V183.606C71.8008 183.938 71.8662 184.266 71.9932 184.573C72.1202 184.879 72.3063 185.158 72.541 185.393C72.7757 185.627 73.0543 185.814 73.3609 185.941C73.6675 186.068 73.9961 186.133 74.328 186.133H76.3591C76.8817 186.133 77.3828 185.925 77.7523 185.556C78.1218 185.186 78.3294 184.685 78.3294 184.163V182.422H74.8475V172.781H114.997V182.422H111.515V184.163C111.515 184.685 111.723 185.186 112.092 185.556C112.462 185.925 112.963 186.133 113.486 186.133H115.517C116.187 186.133 116.83 185.867 117.304 185.393C117.778 184.919 118.044 184.276 118.044 183.606V157.398L114.997 157.416ZM74.8475 169.482V162.462H114.997V169.482H74.8475Z" fill="black"/>
</g>
</g>
</svg>
