<svg width="194" height="194" viewBox="0 0 194 194" fill="none" xmlns="http://www.w3.org/2000/svg">
<g id="Process-rafiki 1">
<g id="freepik--background-complete--inject-7">
<path id="Vector" d="M174.561 154.614H161.711V154.711H174.561V154.614Z" fill="#EBEBEB"/>
<path id="Vector_2" d="M128.513 155.669H125.142V155.766H128.513V155.669Z" fill="#EBEBEB"/>
<path id="Vector_3" d="M161.323 151.013H153.877V151.11H161.323V151.013Z" fill="#EBEBEB"/>
<path id="Vector_4" d="M37.1122 151.665H20.3545V151.762H37.1122V151.665Z" fill="#EBEBEB"/>
<path id="Vector_5" d="M43.0254 151.665H40.5693V151.762H43.0254V151.665Z" fill="#EBEBEB"/>
<path id="Vector_6" d="M87.3586 153.303H51.0107V153.4H87.3586V153.303Z" fill="#EBEBEB"/>
<path id="Vector_7" d="M91.9557 131.066H17.0407C16.4531 131.066 15.8896 130.833 15.4741 130.418C15.0586 130.002 14.8252 129.439 14.8252 128.851V23.5361C14.8303 22.9519 15.066 22.3933 15.4809 21.9821C15.8958 21.5708 16.4564 21.34 17.0407 21.34H91.9557C92.5433 21.34 93.1068 21.5734 93.5223 21.9889C93.9378 22.4044 94.1712 22.9679 94.1712 23.5555V128.851C94.1712 129.439 93.9378 130.002 93.5223 130.418C93.1068 130.833 92.5433 131.066 91.9557 131.066ZM17.0407 21.4176C16.4791 21.4187 15.9409 21.6422 15.5438 22.0392C15.1467 22.4363 14.9232 22.9746 14.9222 23.5361V128.851C14.9232 129.412 15.1467 129.951 15.5438 130.348C15.9409 130.745 16.4791 130.968 17.0407 130.969H91.9557C92.5173 130.968 93.0555 130.745 93.4526 130.348C93.8496 129.951 94.0732 129.412 94.0742 128.851V23.5361C94.0732 22.9746 93.8496 22.4363 93.4526 22.0392C93.0555 21.6422 92.5173 21.4187 91.9557 21.4176H17.0407Z" fill="#EBEBEB"/>
<path id="Vector_8" d="M175.884 131.066H100.962C100.374 131.065 99.8114 130.832 99.3961 130.416C98.9809 130.001 98.7471 129.438 98.7461 128.851V23.5361C98.7522 22.9522 98.9882 22.3943 99.4029 21.9832C99.8176 21.5721 100.378 21.341 100.962 21.34H175.884C176.467 21.342 177.026 21.5737 177.439 21.9848C177.852 22.3959 178.087 22.9532 178.092 23.5361V128.851C178.092 129.437 177.86 130 177.446 130.415C177.032 130.83 176.471 131.064 175.884 131.066ZM100.962 21.4176C100.4 21.4187 99.8618 21.6422 99.4647 22.0392C99.0676 22.4363 98.8441 22.9746 98.8431 23.5361V128.851C98.8441 129.412 99.0676 129.951 99.4647 130.348C99.8618 130.745 100.4 130.968 100.962 130.969H175.884C176.446 130.968 176.984 130.745 177.381 130.348C177.778 129.951 178.002 129.412 178.003 128.851V23.5361C178.002 22.9746 177.778 22.4363 177.381 22.0392C176.984 21.6422 176.446 21.4187 175.884 21.4176H100.962Z" fill="#EBEBEB"/>
<path id="Vector_9" d="M194 148.371H0V148.468H194V148.371Z" fill="#EBEBEB"/>
<path id="Vector_10" d="M78.8104 124.009H32.0176V39.3044L32.4948 38.8466C38.6506 32.9201 46.869 29.6185 55.414 29.6393C63.9591 29.6177 72.1778 32.9194 78.3331 38.8466L78.8104 39.3044V124.009ZM35.1216 120.905H75.7064V40.6391C70.1686 35.5606 62.9279 32.7432 55.414 32.7432C47.9001 32.7432 40.6594 35.5606 35.1216 40.6391V120.905Z" fill="#E0E0E0"/>
<path id="Vector_11" d="M76.2965 54.386V52.058H56.5784V32.3398H54.2504V52.058H34.5322V54.386H54.2504V75.6523H34.5322V77.9803H54.2504V99.2505H34.5322V101.578H54.2504V121.293H56.5784V101.578H76.2965V99.2505H56.5784V77.9803H76.2965V75.6523H56.5784V54.386H76.2965Z" fill="#F5F5F5"/>
<path id="Vector_12" d="M80.3626 125.561H30.4658V38.672L30.9198 38.218C37.422 31.7253 46.2351 28.0786 55.4239 28.0786C64.6127 28.0786 73.4259 31.7253 79.9281 38.218L80.382 38.672L80.3626 125.561ZM33.5698 122.457H77.2586V39.964C71.3811 34.3314 63.555 31.1869 55.4142 31.1869C47.2735 31.1869 39.4474 34.3314 33.5698 39.964V122.457Z" fill="#EBEBEB"/>
<path id="Vector_13" d="M161.284 124.009H114.491V39.3044L114.968 38.8466C121.124 32.9201 129.343 29.6185 137.888 29.6393C146.434 29.6175 154.654 32.9191 160.811 38.8466L161.284 39.3044V124.009ZM117.595 120.905H158.18V40.6391C152.642 35.5606 145.401 32.7432 137.888 32.7432C130.374 32.7432 123.133 35.5606 117.595 40.6391V120.905Z" fill="#E0E0E0"/>
<path id="Vector_14" d="M158.769 54.386V52.058H139.051V32.3398H136.723V52.058H117.009V54.386H136.723V75.6523H117.009V77.9803H136.723V99.2505H117.009V101.578H136.723V121.293H139.051V101.578H158.769V99.2505H139.051V77.9803H158.769V75.6523H139.051V54.386H158.769Z" fill="#F5F5F5"/>
<path id="Vector_15" d="M162.836 125.561H112.939V38.672L113.397 38.218C119.898 31.7315 128.706 28.0886 137.89 28.0886C147.073 28.0886 155.882 31.7315 162.382 38.218L162.836 38.672V125.561ZM116.043 122.457H159.732V39.964C153.855 34.3314 146.029 31.1869 137.888 31.1869C129.747 31.1869 121.921 34.3314 116.043 39.964V122.457Z" fill="#EBEBEB"/>
<path id="Vector_16" d="M97.4575 143.863H105.249C105.531 143.863 105.761 143.633 105.761 143.351V142.008C105.761 141.725 105.531 141.496 105.249 141.496H97.4575C97.1747 141.496 96.9454 141.725 96.9454 142.008V143.351C96.9454 143.633 97.1747 143.863 97.4575 143.863Z" fill="#EBEBEB"/>
<path id="Vector_17" d="M88.2115 143.863H96.0025C96.2853 143.863 96.5146 143.633 96.5146 143.351V142.008C96.5146 141.725 96.2853 141.496 96.0025 141.496H88.2115C87.9286 141.496 87.6993 141.725 87.6993 142.008V143.351C87.6993 143.633 87.9286 143.863 88.2115 143.863Z" fill="#F5F5F5"/>
<path id="Vector_18" d="M92.3325 140.929H100.124C100.406 140.929 100.636 140.7 100.636 140.417V139.075C100.636 138.792 100.406 138.563 100.124 138.563H92.3325C92.0497 138.563 91.8204 138.792 91.8204 139.075V140.417C91.8204 140.7 92.0497 140.929 92.3325 140.929Z" fill="#F5F5F5"/>
<path id="Vector_19" d="M83.106 140.929H90.897C91.1799 140.929 91.4092 140.7 91.4092 140.417V139.075C91.4092 138.792 91.1799 138.563 90.897 138.563H83.106C82.8231 138.563 82.5938 138.792 82.5938 139.075V140.417C82.5938 140.7 82.8231 140.929 83.106 140.929Z" fill="#F0F0F0"/>
<path id="Vector_20" d="M32.0181 142.396H39.8091C40.092 142.396 40.3213 142.167 40.3213 141.884V140.541C40.3213 140.258 40.092 140.029 39.8091 140.029H32.0181C31.7352 140.029 31.5059 140.258 31.5059 140.541V141.884C31.5059 142.167 31.7352 142.396 32.0181 142.396Z" fill="#F0F0F0"/>
<path id="Vector_21" d="M22.772 142.396H30.563C30.8459 142.396 31.0752 142.167 31.0752 141.884V140.541C31.0752 140.258 30.8459 140.029 30.563 140.029H22.772C22.4891 140.029 22.2598 140.258 22.2598 140.541V141.884C22.2598 142.167 22.4891 142.396 22.772 142.396Z" fill="#F5F5F5"/>
<path id="Vector_22" d="M26.8882 139.467H34.6792C34.9621 139.467 35.1914 139.237 35.1914 138.954V137.612C35.1914 137.329 34.9621 137.1 34.6792 137.1H26.8882C26.6054 137.1 26.376 137.329 26.376 137.612V138.954C26.376 139.237 26.6054 139.467 26.8882 139.467Z" fill="#F5F5F5"/>
<path id="Vector_23" d="M17.6616 139.467H25.4527C25.7355 139.467 25.9648 139.237 25.9648 138.954V137.612C25.9648 137.329 25.7355 137.1 25.4527 137.1H17.6616C17.3788 137.1 17.1495 137.329 17.1495 137.612V138.954C17.1495 139.237 17.3788 139.467 17.6616 139.467Z" fill="#F5F5F5"/>
<path id="Vector_24" d="M26.4419 30.6443H34.233C34.5158 30.6443 34.7451 30.415 34.7451 30.1321V28.7896C34.7451 28.5068 34.5158 28.2775 34.233 28.2775H26.4419C26.1591 28.2775 25.9298 28.5068 25.9298 28.7896V30.1321C25.9298 30.415 26.1591 30.6443 26.4419 30.6443Z" fill="#F5F5F5"/>
<path id="Vector_25" d="M30.5591 27.7148H38.3501C38.633 27.7148 38.8623 27.4855 38.8623 27.2027V25.8602C38.8623 25.5773 38.633 25.348 38.3501 25.348H30.5591C30.2762 25.348 30.0469 25.5773 30.0469 25.8602V27.2027C30.0469 27.4855 30.2762 27.7148 30.5591 27.7148Z" fill="#F5F5F5"/>
<path id="Vector_26" d="M21.3325 27.7148H29.1236C29.4064 27.7148 29.6357 27.4855 29.6357 27.2027V25.8602C29.6357 25.5773 29.4064 25.348 29.1236 25.348H21.3325C21.0497 25.348 20.8204 25.5773 20.8204 25.8602V27.2027C20.8204 27.4855 21.0497 27.7148 21.3325 27.7148Z" fill="#F0F0F0"/>
<path id="Vector_27" d="M166.123 33.2982H173.914C174.196 33.2982 174.426 33.0689 174.426 32.786V31.4435C174.426 31.1607 174.196 30.9314 173.914 30.9314H166.123C165.84 30.9314 165.61 31.1607 165.61 31.4435V32.786C165.61 33.0689 165.84 33.2982 166.123 33.2982Z" fill="#F0F0F0"/>
<path id="Vector_28" d="M160.989 30.3649H168.78C169.063 30.3649 169.292 30.1356 169.292 29.8528V28.5103C169.292 28.2274 169.063 27.9981 168.78 27.9981H160.989C160.706 27.9981 160.477 28.2274 160.477 28.5103V29.8528C160.477 30.1356 160.706 30.3649 160.989 30.3649Z" fill="#F5F5F5"/>
<path id="Vector_29" d="M138.462 125.491H115.248V148.705H138.462V125.491Z" fill="#F5F5F5"/>
<path id="Vector_30" d="M152.725 125.491H138.466V148.705H152.725V125.491Z" fill="#EBEBEB"/>
<path id="Vector_31" d="M144.169 125.491V134.279L144.538 133.945L145.189 134.353L145.76 133.945L146.493 134.353L147.265 133.945L147.754 134.353L148.321 134.054V125.491H144.169Z" fill="#E0E0E0"/>
<path id="Vector_32" opacity="0.7" d="M144.169 125.491V134.279L144.538 133.945L145.189 134.353L145.76 133.945L146.493 134.353L147.265 133.945L147.754 134.353L148.321 134.054V125.491H144.169Z" fill="#E0E0E0"/>
<path id="Vector_33" d="M160.147 134.884H146.322V148.709H160.147V134.884Z" fill="#F5F5F5"/>
<path id="Vector_34" d="M168.633 134.884H160.144V148.709H168.633V134.884Z" fill="#E6E6E6"/>
<path id="Vector_35" d="M157.505 138.768H143.681L146.323 134.884H160.143L157.505 138.768Z" fill="#E6E6E6"/>
<path id="Vector_36" d="M162.646 138.768H171.136L168.637 134.884H160.144L162.646 138.768Z" fill="#F5F5F5"/>
<path id="Vector_37" d="M114.93 134.884H101.105V148.709H114.93V134.884Z" fill="#F5F5F5"/>
<path id="Vector_38" d="M123.415 134.884H114.926V148.709H123.415V134.884Z" fill="#E6E6E6"/>
<path id="Vector_39" d="M112.287 131.416H98.4629L101.105 134.884H114.926L112.287 131.416Z" fill="#E6E6E6"/>
<path id="Vector_40" d="M117.428 131.416H125.918L123.419 134.884H114.926L117.428 131.416Z" fill="#EBEBEB"/>
</g>
<g id="freepik--Shadow--inject-7">
<path id="freepik--path--inject-7" d="M95.1297 164.399C136.678 164.399 170.359 162.433 170.359 160.007C170.359 157.582 136.678 155.615 95.1297 155.615C53.5817 155.615 19.9004 157.582 19.9004 160.007C19.9004 162.433 53.5817 164.399 95.1297 164.399Z" fill="#F5F5F5"/>
</g>
<g id="freepik--Process--inject-7">
<path id="Vector_41" d="M123.539 88.9645H72.0867C71.4331 88.9645 70.9033 89.4943 70.9033 90.1479V91.6766C70.9033 92.3302 71.4331 92.86 72.0867 92.86H123.539C124.193 92.86 124.723 92.3302 124.723 91.6766V90.1479C124.723 89.4943 124.193 88.9645 123.539 88.9645Z" fill="#0D4C93"/>
<path id="Vector_42" opacity="0.8" d="M123.539 88.9645H72.0867C71.4331 88.9645 70.9033 89.4943 70.9033 90.1479V91.6766C70.9033 92.3302 71.4331 92.86 72.0867 92.86H123.539C124.193 92.86 124.723 92.3302 124.723 91.6766V90.1479C124.723 89.4943 124.193 88.9645 123.539 88.9645Z" fill="white"/>
<path id="Vector_43" d="M123.536 94.9863H72.087C71.2095 94.9852 70.3683 94.6362 69.7479 94.0158C69.1274 93.3953 68.7784 92.5541 68.7773 91.6766V90.1479C68.7784 89.2704 69.1274 88.4292 69.7479 87.8088C70.3683 87.1883 71.2095 86.8393 72.087 86.8383H123.536C124.414 86.8393 125.255 87.1882 125.876 87.8085C126.497 88.4289 126.847 89.2701 126.849 90.1479V91.6766C126.847 92.5544 126.497 93.3956 125.876 94.016C125.255 94.6363 124.414 94.9852 123.536 94.9863ZM72.087 87.5483C71.3975 87.5493 70.7365 87.8234 70.2485 88.3106C69.7606 88.7978 69.4856 89.4584 69.4835 90.1479V91.6766C69.4845 92.3664 69.7593 93.0276 70.2474 93.515C70.7356 94.0025 71.3972 94.2762 72.087 94.2762H123.536C124.226 94.2762 124.887 94.0025 125.375 93.515C125.863 93.0276 126.138 92.3664 126.139 91.6766V90.1479C126.137 89.4584 125.862 88.7978 125.374 88.3106C124.886 87.8234 124.225 87.5493 123.536 87.5483H72.087Z" fill="#263238"/>
<g id="Group" opacity="0.3">
<path id="Vector_44" d="M123.536 94.9863H72.087C71.2095 94.9852 70.3683 94.6362 69.7479 94.0158C69.1274 93.3953 68.7784 92.5541 68.7773 91.6766V90.1479C68.7784 89.2704 69.1274 88.4292 69.7479 87.8088C70.3683 87.1883 71.2095 86.8393 72.087 86.8383H123.536C124.414 86.8393 125.255 87.1882 125.876 87.8085C126.497 88.4289 126.847 89.2701 126.849 90.1479V91.6766C126.847 92.5544 126.497 93.3956 125.876 94.016C125.255 94.6363 124.414 94.9852 123.536 94.9863ZM72.087 87.5483C71.3975 87.5493 70.7365 87.8234 70.2485 88.3106C69.7606 88.7978 69.4856 89.4584 69.4835 90.1479V91.6766C69.4845 92.3664 69.7593 93.0276 70.2474 93.515C70.7356 94.0025 71.3972 94.2762 72.087 94.2762H123.536C124.226 94.2762 124.887 94.0025 125.375 93.515C125.863 93.0276 126.138 92.3664 126.139 91.6766V90.1479C126.137 89.4584 125.862 88.7978 125.374 88.3106C124.886 87.8234 124.225 87.5493 123.536 87.5483H72.087Z" fill="white"/>
</g>
<path id="Vector_45" d="M111.709 88.9645H72.0869C71.7767 88.9706 71.4812 89.0978 71.2637 89.319C71.0461 89.5401 70.9238 89.8377 70.9229 90.1479V91.6766C70.9238 91.9868 71.0461 92.2843 71.2637 92.5055C71.4812 92.7267 71.7767 92.8539 72.0869 92.86H107.814L111.709 88.9645Z" fill="#0D4C93"/>
<path id="Vector_46" d="M147.592 94.9863H132.122C131.984 94.9866 131.846 94.9585 131.719 94.9038C131.591 94.8491 131.477 94.7689 131.381 94.6681L128.456 91.5874C128.275 91.3976 128.174 91.1454 128.174 90.8832C128.174 90.6209 128.275 90.3687 128.456 90.1789L131.374 87.1487C131.469 87.0508 131.583 86.9729 131.709 86.9196C131.835 86.8663 131.97 86.8386 132.107 86.8383H147.584C147.855 86.8383 148.114 86.9458 148.306 87.1371C148.497 87.3285 148.605 87.5881 148.605 87.8587V93.9697C148.605 94.2386 148.498 94.4966 148.308 94.6871C148.118 94.8777 147.861 94.9852 147.592 94.9863Z" fill="#0D4C93"/>
<path id="Vector_47" d="M136.747 88.4989V89.24L134.943 93.3644H133.721L135.463 89.4262H133.86V90.2022H132.863V88.495L136.747 88.4989Z" fill="white"/>
<path id="Vector_48" d="M140.872 92.4371V93.3528H137.202V92.6272L139.076 90.858C139.229 90.7157 139.36 90.5508 139.464 90.3691C139.528 90.2495 139.564 90.1167 139.568 89.9811C139.573 89.8963 139.558 89.8117 139.523 89.7341C139.489 89.6565 139.436 89.5882 139.37 89.5349C139.199 89.4193 138.994 89.3646 138.788 89.3797C138.59 89.3763 138.394 89.4174 138.214 89.5C138.042 89.5824 137.893 89.708 137.784 89.8647L136.965 89.3176C137.158 89.0301 137.427 88.8007 137.741 88.6541C138.1 88.4901 138.491 88.4092 138.885 88.4174C139.21 88.4106 139.532 88.47 139.832 88.592C140.086 88.6965 140.305 88.8699 140.465 89.0926C140.622 89.32 140.701 89.5923 140.69 89.8686C140.692 90.1251 140.635 90.3787 140.523 90.6096C140.354 90.9031 140.136 91.1655 139.879 91.3856L138.761 92.4371H140.872Z" fill="white"/>
<path id="Vector_49" d="M141.659 90.7571C141.443 90.4801 141.325 90.1386 141.325 89.7871C141.325 89.4355 141.443 89.0941 141.659 88.8171C141.773 88.7016 141.908 88.6099 142.057 88.5473C142.206 88.4848 142.367 88.4525 142.528 88.4525C142.69 88.4525 142.85 88.4848 143 88.5473C143.149 88.6099 143.284 88.7016 143.397 88.8171C143.61 89.096 143.724 89.4367 143.724 89.7871C143.724 90.1374 143.61 90.4782 143.397 90.7571C143.284 90.8725 143.149 90.9642 143 91.0268C142.85 91.0894 142.69 91.1216 142.528 91.1216C142.367 91.1216 142.206 91.0894 142.057 91.0268C141.908 90.9642 141.773 90.8725 141.659 90.7571ZM142.901 90.3691C143.002 90.1954 143.049 89.9955 143.037 89.7948C143.049 89.5929 143.002 89.3918 142.901 89.2167C142.859 89.1567 142.804 89.1076 142.74 89.0737C142.675 89.0398 142.603 89.0221 142.53 89.0221C142.457 89.0221 142.386 89.0398 142.321 89.0737C142.257 89.1076 142.201 89.1567 142.16 89.2167C142.067 89.3967 142.019 89.5963 142.019 89.7987C142.019 90.0011 142.067 90.2007 142.16 90.3807C142.201 90.4407 142.257 90.4898 142.321 90.5237C142.386 90.5576 142.457 90.5753 142.53 90.5753C142.603 90.5753 142.675 90.5576 142.74 90.5237C142.804 90.4898 142.859 90.4407 142.901 90.3807V90.3691ZM145.423 88.5105H146.245L142.932 93.3644H142.105L145.423 88.5105ZM145.202 93.2597C145.018 93.1467 144.87 92.9839 144.775 92.7902C144.67 92.57 144.618 92.328 144.624 92.084C144.619 91.8388 144.67 91.5958 144.775 91.374C144.87 91.1813 145.018 91.0198 145.202 90.9084C145.39 90.7985 145.605 90.7421 145.822 90.7454C145.985 90.7397 146.148 90.769 146.298 90.8312C146.449 90.8935 146.584 90.9872 146.695 91.1063C146.909 91.3846 147.024 91.7255 147.024 92.0763C147.024 92.427 146.909 92.7679 146.695 93.0463C146.584 93.1648 146.448 93.2585 146.298 93.3213C146.147 93.3841 145.985 93.4147 145.822 93.411C145.605 93.4143 145.39 93.3579 145.202 93.248V93.2597ZM146.195 92.6544C146.288 92.4743 146.336 92.2748 146.336 92.0724C146.336 91.8699 146.288 91.6704 146.195 91.4904C146.154 91.4256 146.096 91.373 146.028 91.3382C145.96 91.3034 145.883 91.2876 145.807 91.2925C145.734 91.2917 145.663 91.3091 145.598 91.3429C145.534 91.3768 145.479 91.4261 145.438 91.4865C145.337 91.6616 145.29 91.8627 145.303 92.0646C145.29 92.2653 145.337 92.4652 145.438 92.6389C145.479 92.6992 145.534 92.7486 145.598 92.7824C145.663 92.8163 145.734 92.8336 145.807 92.8329C145.883 92.8386 145.959 92.8239 146.027 92.7905C146.095 92.7571 146.153 92.7061 146.195 92.6427V92.6544Z" fill="white"/>
</g>
<g id="freepik--gear-3--inject-7">
<path id="Vector_50" d="M164.772 53.3112L161.377 53.3655C160.947 52.4475 160.438 51.5685 159.856 50.7388L161.602 47.8249C160.705 46.7148 159.693 45.7029 158.583 44.8063L155.669 46.5523C154.839 45.9685 153.959 45.4596 153.039 45.0313L153.097 41.6324C151.771 41.1213 150.395 40.7506 148.992 40.5266L147.339 43.5026C146.839 43.4599 146.334 43.4327 145.822 43.4327C145.31 43.4327 144.805 43.4599 144.305 43.5026L142.652 40.5266C141.238 40.749 139.852 41.1197 138.516 41.6324L138.574 45.0313C137.655 45.4596 136.776 45.9686 135.947 46.5523L133.033 44.8063C131.923 45.7039 130.91 46.7157 130.011 47.8249L131.761 50.7388C131.176 51.5667 130.667 52.4459 130.24 53.3655L126.841 53.3112C126.321 54.6387 125.943 56.0173 125.712 57.424L128.688 59.073C128.641 59.5735 128.614 60.0818 128.614 60.5901C128.614 61.0984 128.641 61.6105 128.688 62.1072L125.712 63.7717C125.939 65.1834 126.315 66.5672 126.833 67.9L130.232 67.8457C130.659 68.7653 131.168 69.6445 131.753 70.4725L130.003 73.3863C130.902 74.4956 131.915 75.5073 133.026 76.405L135.94 74.659C136.768 75.2427 137.648 75.7516 138.566 76.1799L138.508 79.5749C139.84 80.09 141.222 80.4619 142.633 80.6846L144.285 77.7087C144.786 77.7513 145.29 77.7785 145.803 77.7785C146.315 77.7785 146.819 77.7513 147.32 77.7087L148.973 80.6846C150.383 80.4624 151.766 80.0904 153.097 79.5749L153.039 76.1799C153.959 75.7517 154.839 75.2427 155.669 74.659L158.583 76.405C159.693 75.5083 160.705 74.4965 161.602 73.3863L159.856 70.4725C160.438 69.6427 160.947 68.7638 161.377 67.8457L164.772 67.9C165.288 66.569 165.659 65.1862 165.878 63.7756L162.906 62.1227C162.948 61.6261 162.975 61.1178 162.975 60.6056C162.975 60.0935 162.948 59.5891 162.906 59.0885L165.878 57.4395C165.659 56.0276 165.288 54.6434 164.772 53.3112Z" fill="#0D4C93"/>
<path id="Vector_51" opacity="0.4" d="M164.772 53.3112L161.377 53.3655C160.947 52.4475 160.438 51.5685 159.856 50.7388L161.602 47.8249C160.705 46.7148 159.693 45.7029 158.583 44.8063L155.669 46.5523C154.839 45.9685 153.959 45.4596 153.039 45.0313L153.097 41.6324C151.771 41.1213 150.395 40.7506 148.992 40.5266L147.339 43.5026C146.839 43.4599 146.334 43.4327 145.822 43.4327C145.31 43.4327 144.805 43.4599 144.305 43.5026L142.652 40.5266C141.238 40.749 139.852 41.1197 138.516 41.6324L138.574 45.0313C137.655 45.4596 136.776 45.9686 135.947 46.5523L133.033 44.8063C131.923 45.7039 130.91 46.7157 130.011 47.8249L131.761 50.7388C131.176 51.5667 130.667 52.4459 130.24 53.3655L126.841 53.3112C126.321 54.6387 125.943 56.0173 125.712 57.424L128.688 59.073C128.641 59.5735 128.614 60.0818 128.614 60.5901C128.614 61.0984 128.641 61.6105 128.688 62.1072L125.712 63.7717C125.939 65.1834 126.315 66.5672 126.833 67.9L130.232 67.8457C130.659 68.7653 131.168 69.6445 131.753 70.4725L130.003 73.3863C130.902 74.4956 131.915 75.5073 133.026 76.405L135.94 74.659C136.768 75.2427 137.648 75.7516 138.566 76.1799L138.508 79.5749C139.84 80.09 141.222 80.4619 142.633 80.6846L144.285 77.7087C144.786 77.7513 145.29 77.7785 145.803 77.7785C146.315 77.7785 146.819 77.7513 147.32 77.7087L148.973 80.6846C150.383 80.4624 151.766 80.0904 153.097 79.5749L153.039 76.1799C153.959 75.7517 154.839 75.2427 155.669 74.659L158.583 76.405C159.693 75.5083 160.705 74.4965 161.602 73.3863L159.856 70.4725C160.438 69.6427 160.947 68.7638 161.377 67.8457L164.772 67.9C165.288 66.569 165.659 65.1862 165.878 63.7756L162.906 62.1227C162.948 61.6261 162.975 61.1178 162.975 60.6056C162.975 60.0935 162.948 59.5891 162.906 59.0885L165.878 57.4395C165.659 56.0276 165.288 54.6434 164.772 53.3112Z" fill="white"/>
<path id="Vector_52" opacity="0.2" d="M145.802 70.7906C151.429 70.7906 155.991 66.2289 155.991 60.6017C155.991 54.9746 151.429 50.4128 145.802 50.4128C140.175 50.4128 135.613 54.9746 135.613 60.6017C135.613 66.2289 140.175 70.7906 145.802 70.7906Z" fill="black"/>
<path id="Vector_53" d="M151.222 62.7202C151.456 62.4593 151.584 62.1216 151.584 61.7716C151.584 61.4216 151.456 61.0839 151.222 60.8229L151.195 60.7919V60.7725C150.132 59.7094 149.068 58.645 148.002 57.5792C146.722 56.2988 144.731 58.2854 146.015 59.5697L146.791 60.3457H141.359C139.551 60.3457 139.548 63.1587 141.359 63.1587H146.791L146.015 63.9347C144.731 65.219 146.722 67.2055 148.002 65.9251L151.195 62.7319V62.7086L151.222 62.7202Z" fill="#0D4C93"/>
<path id="Vector_54" opacity="0.4" d="M151.222 62.7202C151.456 62.4593 151.584 62.1216 151.584 61.7716C151.584 61.4216 151.456 61.0839 151.222 60.8229L151.195 60.7919V60.7725C150.132 59.7094 149.068 58.645 148.002 57.5792C146.722 56.2988 144.731 58.2854 146.015 59.5697L146.791 60.3457H141.359C139.551 60.3457 139.548 63.1587 141.359 63.1587H146.791L146.015 63.9347C144.731 65.219 146.722 67.2055 148.002 65.9251L151.195 62.7319V62.7086L151.222 62.7202Z" fill="black"/>
<path id="Vector_55" d="M151.222 61.5562C151.456 61.2953 151.584 60.9576 151.584 60.6076C151.584 60.2576 151.456 59.9199 151.222 59.6589L151.195 59.6279V59.6085C150.132 58.5454 149.068 57.481 148.002 56.4152C146.722 55.1348 144.731 57.1214 146.015 58.4057L146.791 59.1817H141.359C139.551 59.1817 139.548 61.9947 141.359 61.9947H146.791L146.015 62.7707C144.731 64.055 146.722 66.0415 148.002 64.7611L151.195 61.5679V61.5446L151.222 61.5562Z" fill="#0D4C93"/>
<path id="Vector_56" d="M150.994 39.0988C151.86 39.3103 152.713 39.5694 153.551 39.8748C153.76 39.9524 153.853 39.6149 153.644 39.5411C152.806 39.2357 151.953 38.9767 151.087 38.7651C150.87 38.7147 150.777 39.0522 150.994 39.1027V39.0988Z" fill="#0D4C93"/>
<path id="Vector_57" d="M129.979 45.1011C134.193 40.9228 139.872 38.5558 145.806 38.5051C145.852 38.5051 145.897 38.4868 145.929 38.454C145.962 38.4213 145.981 38.3769 145.981 38.3305C145.981 38.2842 145.962 38.2398 145.929 38.2071C145.897 38.1743 145.852 38.1559 145.806 38.1559C139.778 38.2137 134.01 40.6221 129.731 44.8683C129.715 44.8847 129.702 44.904 129.693 44.9253C129.684 44.9466 129.68 44.9694 129.68 44.9925C129.68 45.0156 129.684 45.0384 129.693 45.0597C129.702 45.081 129.715 45.1004 129.731 45.1167C129.747 45.133 129.767 45.1459 129.788 45.1547C129.809 45.1636 129.832 45.1681 129.855 45.1681C129.878 45.1681 129.901 45.1636 129.922 45.1547C129.944 45.1459 129.963 45.133 129.979 45.1167V45.1011Z" fill="#0D4C93"/>
</g>
<g id="freepik--gear-2--inject-7">
<path id="Vector_58" d="M122.31 64.6447C122.522 63.8352 122.67 63.01 122.752 62.177L126.574 61.1954C126.574 60.7104 126.574 60.2292 126.574 59.7481L122.732 58.8169C122.545 57.154 122.099 55.5306 121.409 54.0057L124.226 51.2432C123.997 50.8164 123.753 50.4012 123.493 49.9938L119.706 51.1035C118.711 49.7626 117.513 48.5845 116.156 47.6115L117.215 43.8052C116.827 43.553 116.385 43.3202 115.958 43.0952L113.242 45.9508C112.476 45.6162 111.684 45.3424 110.875 45.1322C110.067 44.9195 109.243 44.7716 108.411 44.6898L107.426 40.868C106.941 40.868 106.46 40.868 105.982 40.868L105.047 44.7092C103.384 44.8972 101.761 45.345 100.236 46.0362L97.4736 43.2154C97.0468 43.4444 96.6317 43.6888 96.2243 43.9488L97.3339 47.7356C95.993 48.7309 94.8149 49.9286 93.8419 51.2858L90.0163 50.215C89.7641 50.6224 89.5313 51.0453 89.3062 51.4721L92.1619 54.1881C91.8273 54.953 91.5535 55.743 91.3432 56.551C91.1324 57.3596 90.9846 58.1834 90.9009 59.0148L87.0791 60.0003C87.0791 60.4853 87.0791 60.9664 87.0791 61.4476L90.9203 62.3788C91.1083 64.042 91.556 65.6655 92.2473 67.19L89.4304 69.9525C89.6593 70.3793 89.8999 70.7945 90.1598 71.2019L93.9467 70.0922C94.942 71.4331 96.1397 72.6112 97.4969 73.5842L96.4377 77.3905C96.8451 77.6427 97.268 77.8755 97.6987 78.1005L100.415 75.2448C101.18 75.5795 101.97 75.8532 102.778 76.0635C103.587 76.2765 104.412 76.4244 105.245 76.5058L106.227 80.3276C106.712 80.3276 107.193 80.3276 107.674 80.3276L108.605 76.4864C110.269 76.2995 111.892 75.8517 113.417 75.1595L116.179 77.9802C116.606 77.7513 117.021 77.5069 117.428 77.2469L116.319 73.46C117.661 72.4658 118.839 71.2679 119.811 69.9098L123.617 70.9691C123.869 70.5617 124.102 70.1388 124.327 69.7081L121.471 66.9921C121.812 66.2328 122.092 65.4479 122.31 64.6447Z" fill="#0D4C93"/>
<path id="Vector_59" opacity="0.2" d="M122.31 64.6447C122.522 63.8352 122.67 63.01 122.752 62.177L126.574 61.1954C126.574 60.7104 126.574 60.2292 126.574 59.7481L122.732 58.8169C122.545 57.154 122.099 55.5306 121.409 54.0057L124.226 51.2432C123.997 50.8164 123.753 50.4012 123.493 49.9938L119.706 51.1035C118.711 49.7626 117.513 48.5845 116.156 47.6115L117.215 43.8052C116.827 43.553 116.385 43.3202 115.958 43.0952L113.242 45.9508C112.476 45.6162 111.684 45.3424 110.875 45.1322C110.067 44.9195 109.243 44.7716 108.411 44.6898L107.426 40.868C106.941 40.868 106.46 40.868 105.982 40.868L105.047 44.7092C103.384 44.8972 101.761 45.345 100.236 46.0362L97.4736 43.2154C97.0468 43.4444 96.6317 43.6888 96.2243 43.9488L97.3339 47.7356C95.993 48.7309 94.8149 49.9286 93.8419 51.2858L90.0163 50.215C89.7641 50.6224 89.5313 51.0453 89.3062 51.4721L92.1619 54.1881C91.8273 54.953 91.5535 55.743 91.3432 56.551C91.1324 57.3596 90.9846 58.1834 90.9009 59.0148L87.0791 60.0003C87.0791 60.4853 87.0791 60.9664 87.0791 61.4476L90.9203 62.3788C91.1083 64.042 91.556 65.6655 92.2473 67.19L89.4304 69.9525C89.6593 70.3793 89.8999 70.7945 90.1598 71.2019L93.9467 70.0922C94.942 71.4331 96.1397 72.6112 97.4969 73.5842L96.4377 77.3905C96.8451 77.6427 97.268 77.8755 97.6987 78.1005L100.415 75.2448C101.18 75.5795 101.97 75.8532 102.778 76.0635C103.587 76.2765 104.412 76.4244 105.245 76.5058L106.227 80.3276C106.712 80.3276 107.193 80.3276 107.674 80.3276L108.605 76.4864C110.269 76.2995 111.892 75.8517 113.417 75.1595L116.179 77.9802C116.606 77.7513 117.021 77.5069 117.428 77.2469L116.319 73.46C117.661 72.4658 118.839 71.2679 119.811 69.9098L123.617 70.9691C123.869 70.5617 124.102 70.1388 124.327 69.7081L121.471 66.9921C121.812 66.2328 122.092 65.4479 122.31 64.6447Z" fill="white"/>
<path id="Vector_60" opacity="0.3" d="M106.825 70.7479C112.429 70.7479 116.971 66.2053 116.971 60.6017C116.971 54.9981 112.429 50.4555 106.825 50.4555C101.221 50.4555 96.6787 54.9981 96.6787 60.6017C96.6787 66.2053 101.221 70.7479 106.825 70.7479Z" fill="black"/>
<path id="Vector_61" d="M111.702 62.565C111.912 62.3302 112.028 62.0263 112.028 61.7114C112.028 61.3964 111.912 61.0925 111.702 60.8578L111.679 60.8306L108.803 57.9556C107.639 56.7916 105.862 58.5919 107.015 59.7442C107.251 59.9848 107.492 60.2215 107.729 60.4582H102.84C101.21 60.4582 101.206 62.9918 102.84 62.9918H107.721C107.484 63.2285 107.244 63.4652 107.007 63.7057C105.843 64.8697 107.643 66.6468 108.796 65.4944L111.671 62.6193L111.702 62.565Z" fill="#0D4C93"/>
<path id="Vector_62" opacity="0.4" d="M111.702 62.565C111.912 62.3302 112.028 62.0263 112.028 61.7114C112.028 61.3964 111.912 61.0925 111.702 60.8578L111.679 60.8306L108.803 57.9556C107.639 56.7916 105.862 58.5919 107.015 59.7442C107.251 59.9848 107.492 60.2215 107.729 60.4582H102.84C101.21 60.4582 101.206 62.9918 102.84 62.9918H107.721C107.484 63.2285 107.244 63.4652 107.007 63.7057C105.843 64.8697 107.643 66.6468 108.796 65.4944L111.671 62.6193L111.702 62.565Z" fill="black"/>
<path id="Vector_63" d="M111.702 61.5174C111.912 61.2826 112.028 60.9787 112.028 60.6638C112.028 60.3488 111.912 60.0449 111.702 59.8102L111.679 59.783L108.803 56.9079C107.639 55.7439 105.862 57.5443 107.015 58.6966C107.251 58.9372 107.492 59.1739 107.729 59.4105H102.84C101.21 59.4105 101.206 61.9442 102.84 61.9442H107.721C107.484 62.1809 107.244 62.4176 107.007 62.6581C105.843 63.8221 107.643 65.5992 108.796 64.4468L111.671 61.5717C111.672 61.5653 111.672 61.5587 111.671 61.5523L111.702 61.5174Z" fill="#0D4C93"/>
<path id="Vector_64" d="M106.825 81.7089C101.709 81.6621 96.7767 79.7926 92.9151 76.436C92.7444 76.2886 92.496 76.5369 92.6668 76.6843C96.5962 80.104 101.616 82.0107 106.825 82.062C106.871 82.062 106.916 82.0436 106.948 82.0109C106.981 81.9781 106.999 81.9337 106.999 81.8874C106.999 81.8411 106.981 81.7967 106.948 81.764C106.916 81.7312 106.871 81.7128 106.825 81.7128V81.7089Z" fill="#0D4C93"/>
<path id="Vector_65" d="M112.87 80.8243C111.586 81.2025 110.27 81.4623 108.939 81.6003C108.718 81.6236 108.718 81.9883 108.939 81.9495C110.301 81.8133 111.648 81.5536 112.963 81.1735C113.008 81.1611 113.046 81.1315 113.069 81.0911C113.092 81.0507 113.097 81.0029 113.085 80.9581C113.073 80.9134 113.043 80.8754 113.003 80.8524C112.962 80.8295 112.915 80.8236 112.87 80.8359V80.8243Z" fill="#0D4C93"/>
</g>
<g id="freepik--gear-1--inject-7">
<path id="Vector_66" d="M86.1051 54.2851L83.1601 54.3355C82.7882 53.5399 82.3481 52.7778 81.8448 52.058L83.358 49.536C82.5789 48.5752 81.7025 47.6975 80.7429 46.917L78.217 48.4341C77.4992 47.9265 76.7369 47.485 75.9395 47.1149L75.9899 44.1738C74.836 43.7287 73.6382 43.4075 72.4164 43.2155L71.0041 45.784C70.5695 45.7452 70.1311 45.7219 69.6888 45.7219C69.2465 45.7219 68.808 45.7452 68.3735 45.784L66.9417 43.2077C65.7212 43.3996 64.5246 43.7209 63.3721 44.1661L63.4187 47.1071C62.6229 47.4781 61.862 47.9196 61.145 48.4263L58.5881 46.917C57.6266 47.6955 56.75 48.5733 55.973 49.536L57.4862 52.058C56.9802 52.7768 56.5388 53.539 56.167 54.3355L53.2259 54.2851C52.7812 55.4391 52.46 56.6369 52.2676 57.8586L54.8439 59.2903C54.8051 59.721 54.7818 60.1594 54.7818 60.6017C54.7818 61.0441 54.8051 61.4825 54.8439 61.9171L52.2676 63.3488C52.46 64.5704 52.7812 65.7683 53.2259 66.9223L56.167 66.8718C56.5388 67.6684 56.9802 68.4305 57.4862 69.1494L55.973 71.6714C56.7491 72.6337 57.6258 73.5104 58.5881 74.2865L61.114 72.7733C61.831 73.28 62.5919 73.7215 63.3877 74.0925L63.3411 77.0335C64.4936 77.4787 65.6902 77.8 66.9107 77.9919L68.3424 75.4156C68.777 75.4544 69.2154 75.4777 69.6577 75.4777C70.1001 75.4777 70.5385 75.4544 70.9731 75.4156L72.4009 77.9919C73.6226 77.7999 74.8205 77.4787 75.9744 77.0335L75.9239 74.0925C76.7214 73.7224 77.4837 73.2809 78.2015 72.7733L80.7274 74.2865C81.6879 73.5084 82.5643 72.6319 83.3425 71.6714L81.8293 69.1494C82.3326 68.4295 82.7726 67.6675 83.1446 66.8718L86.0895 66.9223C86.5325 65.7677 86.8536 64.57 87.0479 63.3488L84.4716 61.9171C84.5065 61.4825 84.5298 61.0479 84.5298 60.6017C84.5298 60.1555 84.5065 59.721 84.4716 59.2903L87.0479 57.8586C86.8587 56.6379 86.5427 55.4403 86.1051 54.2851Z" fill="#0D4C93"/>
<path id="Vector_67" opacity="0.3" d="M86.1051 54.2851L83.1601 54.3355C82.7882 53.5399 82.3481 52.7778 81.8448 52.058L83.358 49.536C82.5789 48.5752 81.7025 47.6975 80.7429 46.917L78.217 48.4341C77.4992 47.9265 76.7369 47.485 75.9395 47.1149L75.9899 44.1738C74.836 43.7287 73.6382 43.4075 72.4164 43.2155L71.0041 45.784C70.5695 45.7452 70.1311 45.7219 69.6888 45.7219C69.2465 45.7219 68.808 45.7452 68.3735 45.784L66.9417 43.2077C65.7212 43.3996 64.5246 43.7209 63.3721 44.1661L63.4187 47.1071C62.6229 47.4781 61.862 47.9196 61.145 48.4263L58.5881 46.917C57.6266 47.6955 56.75 48.5733 55.973 49.536L57.4862 52.058C56.9802 52.7768 56.5388 53.539 56.167 54.3355L53.2259 54.2851C52.7812 55.4391 52.46 56.6369 52.2676 57.8586L54.8439 59.2903C54.8051 59.721 54.7818 60.1594 54.7818 60.6017C54.7818 61.0441 54.8051 61.4825 54.8439 61.9171L52.2676 63.3488C52.46 64.5704 52.7812 65.7683 53.2259 66.9223L56.167 66.8718C56.5388 67.6684 56.9802 68.4305 57.4862 69.1494L55.973 71.6714C56.7491 72.6337 57.6258 73.5104 58.5881 74.2865L61.114 72.7733C61.831 73.28 62.5919 73.7215 63.3877 74.0925L63.3411 77.0335C64.4936 77.4787 65.6902 77.8 66.9107 77.9919L68.3424 75.4156C68.777 75.4544 69.2154 75.4777 69.6577 75.4777C70.1001 75.4777 70.5385 75.4544 70.9731 75.4156L72.4009 77.9919C73.6226 77.7999 74.8205 77.4787 75.9744 77.0335L75.9239 74.0925C76.7214 73.7224 77.4837 73.2809 78.2015 72.7733L80.7274 74.2865C81.6879 73.5084 82.5643 72.6319 83.3425 71.6714L81.8293 69.1494C82.3326 68.4295 82.7726 67.6675 83.1446 66.8718L86.0895 66.9223C86.5325 65.7677 86.8536 64.57 87.0479 63.3488L84.4716 61.9171C84.5065 61.4825 84.5298 61.0479 84.5298 60.6017C84.5298 60.1555 84.5065 59.721 84.4716 59.2903L87.0479 57.8586C86.8587 56.6379 86.5427 55.4403 86.1051 54.2851Z" fill="white"/>
<path id="Vector_68" opacity="0.4" d="M69.673 72.7074C76.3587 72.7074 81.7786 67.2875 81.7786 60.6018C81.7786 53.916 76.3587 48.4962 69.673 48.4962C62.9872 48.4962 57.5674 53.916 57.5674 60.6018C57.5674 67.2875 62.9872 72.7074 69.673 72.7074Z" fill="black"/>
<path id="Vector_69" d="M73.7665 62.4137C73.9533 62.2052 74.0566 61.9351 74.0566 61.6552C74.0566 61.3752 73.9533 61.1051 73.7665 60.8966V60.8695L71.2096 58.3164C70.1853 57.2921 68.5945 58.8829 69.6188 59.9072L70.2279 60.528H65.8901C64.439 60.528 64.439 62.7784 65.8901 62.7784H70.2279L69.5916 63.4147C68.5673 64.4391 70.1581 66.0299 71.1824 65.0055L73.7393 62.4486L73.7665 62.4137Z" fill="#0D4C93"/>
<path id="Vector_70" opacity="0.4" d="M73.7665 62.4137C73.9533 62.2052 74.0566 61.9351 74.0566 61.6552C74.0566 61.3752 73.9533 61.1051 73.7665 60.8966V60.8695L71.2096 58.3164C70.1853 57.2921 68.5945 58.8829 69.6188 59.9072L70.2279 60.528H65.8901C64.439 60.528 64.439 62.7784 65.8901 62.7784H70.2279L69.5916 63.4147C68.5673 64.4391 70.1581 66.0299 71.1824 65.0055L73.7393 62.4486L73.7665 62.4137Z" fill="black"/>
<path id="Vector_71" d="M73.7665 61.4825C73.9533 61.274 74.0566 61.0039 74.0566 60.7239C74.0566 60.444 73.9533 60.1739 73.7665 59.9654V59.9382L71.2096 57.3852C70.1853 56.3609 68.5945 57.9517 69.6188 58.976L70.2551 59.6084H65.8901C64.439 59.6084 64.439 61.8588 65.8901 61.8588H70.2279L69.5916 62.468C68.5673 63.4923 70.1581 65.0831 71.1824 64.0588L73.7393 61.5019L73.7665 61.4825Z" fill="#0D4C93"/>
<path id="Vector_72" d="M54.3702 49.7532C56.1368 47.3471 58.4393 45.3852 61.0953 44.0229C63.7513 42.6605 66.688 41.9351 69.6729 41.904C69.7192 41.904 69.7636 41.8856 69.7963 41.8529C69.8291 41.8201 69.8475 41.7757 69.8475 41.7294C69.8475 41.6831 69.8291 41.6387 69.7963 41.606C69.7636 41.5732 69.7192 41.5548 69.6729 41.5548C66.628 41.5871 63.6325 42.3288 60.9243 43.7209C58.2161 45.1131 55.8697 47.1174 54.0714 49.5748C53.9356 49.7532 54.2382 49.9279 54.3702 49.7494V49.7532Z" fill="#0D4C93"/>
<path id="Vector_73" d="M72.141 42.067C72.9519 42.1783 73.7552 42.339 74.5466 42.5481C74.7639 42.6024 74.857 42.2648 74.6397 42.2105C73.8487 42.0009 73.0452 41.8415 72.2341 41.7333C72.0168 41.7022 71.9198 42.0398 72.141 42.067Z" fill="#0D4C93"/>
</g>
</g>
</svg>
