<svg width="19" height="19" viewBox="0 0 19 19" fill="none" xmlns="http://www.w3.org/2000/svg">
<path id="Union" fill-rule="evenodd" clip-rule="evenodd" d="M17.2613 5.12132C18.4328 3.94975 18.4328 2.05025 17.2613 0.878679C16.0897 -0.292893 14.1902 -0.292893 13.0186 0.87868L1.01922 12.8781C0.865656 13.0316 0.760991 13.2272 0.718401 13.4402L0.0201747 16.9313C-0.121166 17.638 0.501902 18.2611 1.20864 18.1198L4.69977 17.4215C4.91273 17.379 5.1083 17.2743 5.26186 17.1207L15.1399 7.24266L15.847 7.94978L11.6044 12.1924C11.2139 12.5829 11.2139 13.2161 11.6044 13.6066C11.9949 13.9972 12.6281 13.9972 13.0186 13.6066L17.2613 9.364C18.0423 8.58295 18.0423 7.31662 17.2613 6.53557L16.5541 5.82845L17.2613 5.12132ZM15.14 4.41428L15.847 3.7072C16.2376 3.31667 16.2376 2.68351 15.847 2.29299C15.4565 1.90246 14.8234 1.90246 14.4328 2.29299L13.7258 3.00006L15.14 4.41428Z" fill="#595959"/>
</svg>
